<?xml version="1.0" encoding="utf-8"?>
<!-- Generator: Adobe Illustrator 19.2.1, SVG Export Plug-In . SVG Version: 6.00 Build 0)  -->
<svg version="1.1" id="Layer_1" xmlns="http://www.w3.org/2000/svg" xmlns:xlink="http://www.w3.org/1999/xlink" x="0px" y="0px"
	 viewBox="0 0 360 160" style="enable-background:new 0 0 360 160;" xml:space="preserve">
<style type="text/css">
	.st0{fill:#AAAD00;}
	.st1{fill:#5C6670;}
	.st2{fill:#A4A9AD;}
</style>
<g>
	<g>
		<path class="st0" d="M40.6,130.3c-1.6,4-3.3,5.5-6.5,5.5c-1.9,0-3.3-0.4-4.6-1.2l1.5-3.3c0.8,0.4,1.7,0.7,2.6,0.7
			c1.3,0,2-0.6,2.8-2.3l-8.2-19.6H33l5.6,14.6l5.1-14.6h4.7L40.6,130.3z"/>
		<path class="st0" d="M59.2,130.2c-6,0-10.4-4.6-10.4-10.2c0-5.7,4.5-10.3,10.5-10.3s10.4,4.6,10.4,10.2
			C69.7,125.6,65.3,130.2,59.2,130.2z M59.2,113.7c-3.6,0-5.9,2.8-5.9,6.3c0,3.5,2.5,6.4,6,6.4c3.6,0,5.9-2.8,5.9-6.3
			C65.2,116.5,62.8,113.7,59.2,113.7z"/>
		<path class="st0" d="M86.1,110.1h4.5v19.6h-4.5v-3c-1.3,1.9-3.1,3.5-6.1,3.5c-4.4,0-7-3-7-7.5v-12.5h4.5v11.2c0,3,1.5,4.8,4.2,4.8
			c2.6,0,4.4-1.8,4.4-4.9V110.1z"/>
		<path class="st0" d="M99.7,129.8h-4.5v-19.6h4.5v4.4c1.2-2.9,3.5-4.9,7-4.8v4.8h-0.3c-3.9,0-6.7,2.6-6.7,7.8V129.8z"/>
		<path class="st1" d="M133.1,110.1c4.4,0,7.1,3,7.1,7.7v11.9h-2.9v-11.2c0-3.7-1.9-5.8-5-5.8c-2.9,0-5.3,2.2-5.3,5.9v11.1h-2.8
			v-11.3c0-3.6-1.9-5.7-4.9-5.7s-5.4,2.5-5.4,6.1v11h-2.9v-19.2h2.9v3.2c1.3-1.9,3-3.6,6.2-3.6c3.1,0,5.1,1.7,6.2,3.8
			C127.7,111.9,129.8,110.1,133.1,110.1z"/>
		<path class="st1" d="M153.8,127.7c2.6,0,4.5-1.1,6.1-2.7l1.8,1.6c-1.9,2.2-4.3,3.6-7.9,3.6c-5.3,0-9.6-4.1-9.6-10
			c0-5.6,3.9-10,9.2-10c5.7,0,9,4.5,9,10.2c0,0.3,0,0.6,0,0.9h-15.2C147.5,125.4,150.4,127.7,153.8,127.7z M159.4,119.1
			c-0.3-3.5-2.3-6.5-6.1-6.5c-3.3,0-5.9,2.8-6.2,6.5H159.4z"/>
		<path class="st1" d="M188.3,110.1c4.4,0,7.1,3,7.1,7.7v11.9h-2.9v-11.2c0-3.7-1.9-5.8-5-5.8c-2.9,0-5.3,2.2-5.3,5.9v11.1h-2.8
			v-11.3c0-3.6-1.9-5.7-4.9-5.7c-3,0-5.4,2.5-5.4,6.1v11h-2.9v-19.2h2.9v3.2c1.3-1.9,3-3.6,6.2-3.6c3.1,0,5.1,1.7,6.2,3.8
			C182.9,111.9,184.9,110.1,188.3,110.1z"/>
		<path class="st1" d="M210.5,130.2c-3.6,0-5.9-1.9-7.4-4.1v3.7h-2.9v-27.1h2.9v11.8c1.6-2.3,3.8-4.3,7.4-4.3c4.6,0,9.2,3.6,9.2,10
			C219.6,126.5,215.1,130.2,210.5,130.2z M209.9,112.7c-3.6,0-7,3-7,7.4c0,4.5,3.4,7.5,7,7.5c3.7,0,6.8-2.8,6.8-7.4
			C216.7,115.6,213.6,112.7,209.9,112.7z"/>
		<path class="st1" d="M232.2,127.7c2.6,0,4.5-1.1,6.1-2.7l1.8,1.6c-1.9,2.2-4.3,3.6-7.9,3.6c-5.3,0-9.6-4.1-9.6-10
			c0-5.6,3.9-10,9.2-10c5.7,0,9,4.5,9,10.2c0,0.3,0,0.6,0,0.9h-15.2C225.8,125.4,228.8,127.7,232.2,127.7z M237.8,119.1
			c-0.3-3.5-2.3-6.5-6.1-6.5c-3.3,0-5.9,2.8-6.2,6.5H237.8z"/>
		<path class="st1" d="M247.6,129.8h-2.9v-19.2h2.9v5c1.4-3.2,4.2-5.5,7.8-5.4v3.1h-0.2c-4.2,0-7.6,3-7.6,8.8V129.8z"/>
		<path class="st1" d="M264.8,130.1c-2.8,0-5.8-1.1-8-2.8l1.4-2c2.1,1.6,4.4,2.5,6.7,2.5c2.3,0,4-1.2,4-3v-0.1
			c0-1.9-2.3-2.7-4.8-3.4c-3-0.9-6.4-1.9-6.4-5.4v-0.1c0-3.3,2.8-5.5,6.5-5.5c2.3,0,4.9,0.8,6.9,2.1l-1.3,2.2
			c-1.8-1.2-3.8-1.9-5.7-1.9c-2.3,0-3.7,1.2-3.7,2.8v0.1c0,1.8,2.4,2.5,4.9,3.3c3,0.9,6.2,2,6.2,5.5v0.1
			C271.6,128,268.6,130.1,264.8,130.1z"/>
		<path class="st1" d="M278.2,129.8h-2.9v-27.1h2.9v11.3c1.3-2.1,3.3-3.8,6.6-3.8c4.6,0,7.4,3.1,7.4,7.7v11.9h-2.9v-11.2
			c0-3.6-1.9-5.8-5.3-5.8c-3.3,0-5.8,2.4-5.8,6V129.8z"/>
		<path class="st1" d="M296.9,106.4v-3.2h3.3v3.2H296.9z M297,129.8v-19.2h2.9v19.2H297z"/>
		<path class="st1" d="M315.7,130.2c-3.6,0-5.9-1.9-7.4-4.1v9.6h-2.9v-25.2h2.9v3.9c1.6-2.3,3.8-4.3,7.4-4.3c4.6,0,9.2,3.6,9.2,10
			C324.8,126.5,320.3,130.2,315.7,130.2z M315.1,112.7c-3.6,0-7,3-7,7.4c0,4.5,3.4,7.5,7,7.5c3.7,0,6.8-2.8,6.8-7.4
			C321.9,115.6,318.8,112.7,315.1,112.7z"/>
	</g>
	<g>
		<g>
			<path class="st1" d="M106.5,17.1l2.3-4.9c0.1-0.3,0.1-0.6-0.1-0.9l-3.1-4.4c-0.2-0.3-0.5-0.4-0.8-0.4L99.4,7
				c-0.3,0-0.6,0.2-0.7,0.5l-2.3,4.9c-0.1,0.3-0.1,0.6,0.1,0.9l3.1,4.4c0.2,0.3,0.5,0.4,0.8,0.4l5.4-0.5
				C106.1,17.6,106.4,17.4,106.5,17.1"/>
			<path class="st1" d="M91.6,51l2-4.4c0.1-0.3,0.1-0.6-0.1-0.9l-2.8-4c-0.2-0.3-0.5-0.4-0.8-0.4l-4.8,0.4c-0.3,0-0.6,0.2-0.7,0.5
				l-2,4.4c-0.1,0.3-0.1,0.6,0.1,0.9l2.8,4c0.2,0.3,0.5,0.4,0.8,0.4l4.8-0.4C91.2,51.5,91.5,51.3,91.6,51"/>
			<path class="st2" d="M140.2,23.6l1.2-2.7c0.1-0.3,0.1-0.6-0.1-0.8l-1.7-2.4c-0.2-0.2-0.5-0.4-0.8-0.4l-3,0.3
				c-0.3,0-0.6,0.2-0.7,0.5l-1.2,2.7c-0.1,0.3-0.1,0.6,0.1,0.8l1.7,2.4c0.2,0.2,0.5,0.4,0.8,0.4l3-0.3C139.8,24,140,23.8,140.2,23.6
				"/>
			<path class="st2" d="M74.4,63.8l1.7-3.7c0.1-0.2,0.1-0.5-0.1-0.7l-2.3-3.4c-0.1-0.2-0.4-0.3-0.6-0.3l-4.1,0.3
				c-0.2,0-0.4,0.2-0.6,0.4l-1.7,3.7c-0.1,0.2-0.1,0.5,0.1,0.7l2.3,3.4c0.1,0.2,0.4,0.3,0.6,0.3l4.1-0.3
				C74.1,64.2,74.3,64,74.4,63.8"/>
			<path class="st2" d="M117.9,33.6l1.1-2.3c0.1-0.3,0.1-0.6-0.1-0.9l-1.4-2.1c-0.2-0.3-0.5-0.4-0.8-0.4l-2.5,0.2
				c-0.3,0-0.6,0.2-0.7,0.5l-1.1,2.3c-0.1,0.3-0.1,0.6,0.1,0.9l1.4,2.1c0.2,0.3,0.5,0.4,0.8,0.4l2.5-0.2
				C117.5,34.1,117.8,33.9,117.9,33.6"/>
			<path class="st2" d="M107.9,61.8l1.6-3.4c0.2-0.4,0.2-0.9-0.1-1.2l-2.2-3.1c-0.3-0.4-0.7-0.6-1.1-0.5l-3.8,0.3
				c-0.4,0-0.8,0.3-1,0.7l-1.6,3.4c-0.2,0.4-0.2,0.9,0.1,1.2l2.2,3.1c0.3,0.4,0.7,0.6,1.1,0.5l3.8-0.3
				C107.3,62.5,107.7,62.2,107.9,61.8"/>
			<path class="st1" d="M147.9,53.8l1.5-3.1c0.2-0.4,0.1-0.8-0.1-1.1l-2-2.8c-0.2-0.3-0.6-0.5-1-0.5l-3.4,0.3
				c-0.4,0-0.8,0.3-0.9,0.6l-1.5,3.1c-0.2,0.4-0.1,0.8,0.1,1.1l2,2.8c0.2,0.3,0.6,0.5,1,0.5l3.4-0.3
				C147.4,54.4,147.7,54.2,147.9,53.8"/>
			<path class="st2" d="M79.3,26.3l1.1-2.3c0.2-0.4,0.1-0.8-0.1-1.1l-1.5-2.1c-0.2-0.3-0.6-0.5-1-0.5l-2.6,0.2
				c-0.4,0-0.7,0.3-0.9,0.6l-1.1,2.3c-0.2,0.4-0.1,0.8,0.1,1.1l1.5,2.1c0.2,0.3,0.6,0.5,1,0.5l2.6-0.2
				C78.8,26.9,79.1,26.6,79.3,26.3"/>
		</g>
		<path class="st0" d="M144.9,34.8l-4.4-6.4c-0.2-0.3-0.5-0.4-0.9-0.4l-7.2,0.6l-5.5-7.3l0.8-1.7c0.1-0.3,0.1-0.6-0.1-0.9l-3-4.3
			c-0.2-0.3-0.5-0.4-0.8-0.4l-5.3,0.5c-0.3,0-0.6,0.2-0.7,0.5l-2,4.2l-20,3.9l-1.7-2.5c-0.2-0.3-0.5-0.4-0.9-0.4L85.7,21
			c-0.3,0-0.6,0.2-0.8,0.5l-3.2,6.8c-0.1,0.3-0.1,0.7,0.1,1l1.4,2l-4.9,4.9l-0.5-0.7c-0.2-0.2-0.4-0.4-0.7-0.3L73,35.5
			c-0.3,0-0.5,0.2-0.7,0.5l-1.7,3.7c-0.1,0.3-0.1,0.6,0.1,0.8l2.3,3.3c0.2,0.2,0.4,0.4,0.7,0.3L75,44l7.6,19.5l-2.3,0.2
			c-0.3,0-0.6,0.2-0.7,0.5l-2.9,6.3c-0.1,0.3-0.1,0.6,0.1,0.9l4,5.7c0.2,0.3,0.5,0.4,0.8,0.4l6.9-0.6c0.3,0,0.6-0.2,0.7-0.5l2.9-6.3
			c0.1-0.3,0.1-0.6-0.1-0.9l-3.7-5.3l15.4-18.8l1.2,1.7c0.2,0.3,0.5,0.4,0.8,0.4l5.9-0.5c0.3,0,0.6-0.2,0.7-0.5l0.8-1.7L128,58
			l-1.1,2.4c-0.1,0.3-0.1,0.6,0.1,0.9l3.4,4.9c0.2,0.3,0.5,0.4,0.8,0.4l5.9-0.5c0.3,0,0.6-0.2,0.7-0.5l2.6-5.4
			c0.1-0.3,0.1-0.6-0.1-0.9l-3.4-4.9c-0.2-0.3-0.5-0.4-0.8-0.4l-1.6,0.1l3.2-10.6l3.2-0.3c0.3,0,0.6-0.2,0.8-0.5l3.3-7
			C145.2,35.5,145.1,35.1,144.9,34.8z M115.9,21.2l2.8,4c0.2,0.3,0.5,0.4,0.8,0.4l5.3-0.5c0.3,0,0.6-0.2,0.7-0.5l0.6-1.3l4.9,6.4
			l-2.9,6.2l-13.7,3.4l-3.1-4.4c-0.2-0.3-0.5-0.4-0.8-0.4l-5.9,0.5c-0.3,0-0.6,0.2-0.7,0.5l-0.7,1.5L97,30.8l1.4-2.9
			c0.1-0.3,0.1-0.7-0.1-1l-1.4-2.1L115.9,21.2z M86.6,63.1l-2.1,0.2l-7.6-19.5l1-0.1c0.3,0,0.5-0.2,0.7-0.5l1.7-3.7
			c0.1-0.3,0.1-0.6-0.1-0.8l-0.8-1.2l4.9-4.9l1.9,2.7c0.2,0.3,0.5,0.4,0.9,0.4l7.5-0.6c0.3,0,0.6-0.2,0.8-0.5l1-2.2l6.1,6.2l-1,2.2
			c-0.1,0.3-0.1,0.6,0.1,0.9l1.2,1.7L86.6,63.1z M132.6,54.4l-2.4,0.2c-0.3,0-0.6,0.2-0.7,0.5l-0.6,1.3l-15-13.8l0.8-1.6l13.6-3.3
			l4.2,6c0.2,0.3,0.5,0.4,0.9,0.4l2.6-0.2L132.6,54.4z"/>
		<path class="st1" d="M120.6,56.7c-2.1-1-4.5-0.1-5.4,2L108.5,73l-8.3-6.4c-1.5-1.2-3.7-0.9-4.8,0.6c-1.2,1.5-0.9,3.7,0.6,4.8
			l10.1,7.9v17.7c0,2.3,1.8,4.1,4.1,4.1s4.1-1.8,4.1-4.1V80l8.3-17.8C123.5,60.1,122.6,57.7,120.6,56.7z"/>
	</g>
	<g>
		<path class="st1" d="M330.1,112.5c0,1.4-1.1,2.5-2.5,2.5c-1.4,0-2.5-1.1-2.5-2.5c0-1.4,1.1-2.5,2.5-2.5
			C329,110.1,330.1,111.1,330.1,112.5z M325.7,112.5c0,1.1,0.8,2,1.9,2c1.1,0,1.9-0.9,1.9-1.9c0-1.1-0.8-2-1.9-2
			C326.5,110.5,325.7,111.4,325.7,112.5z M327.2,113.8h-0.6v-2.5c0.2,0,0.5-0.1,0.9-0.1c0.5,0,0.7,0.1,0.9,0.2
			c0.1,0.1,0.2,0.3,0.2,0.5c0,0.3-0.2,0.5-0.5,0.6v0c0.2,0.1,0.4,0.3,0.4,0.6c0.1,0.4,0.1,0.5,0.2,0.6h-0.6
			c-0.1-0.1-0.1-0.3-0.2-0.6c0-0.3-0.2-0.4-0.5-0.4h-0.3V113.8z M327.2,112.4h0.3c0.3,0,0.6-0.1,0.6-0.4c0-0.2-0.2-0.4-0.5-0.4
			c-0.1,0-0.3,0-0.3,0V112.4z"/>
	</g>
</g>
</svg>
