<svg xmlns="http://www.w3.org/2000/svg" width="96" height="96" viewBox="0 0 96 96">
  <g fill="#F6F7F7" fill-rule="evenodd">
    <path d="M53.2281561,57.8423064 C53.2281561,58.0912756 53.2281561,58.5495918 52.5250103,58.9176246 L52.5250103,56.5769593 C53.2279589,57.0017643 53.2281561,57.366446 53.2281561,57.7037273 L53.2281561,57.8423064 Z M57.1706612,57.8423064 L57.1706612,57.7037273 C57.1706612,53.9920559 54.0848624,52.6606719 51.0660862,51.8479244 L48.5825051,51.1790784 L48.5825051,63.5287786 L50.7244682,63.3422982 C52.7016345,63.1704049 54.1946612,62.6697068 55.2889035,61.8118177 C56.5199507,60.8464953 57.1706612,59.473715 57.1706612,57.8423064 L57.1706612,57.8423064 Z"/>
    <path d="M69.1660287 56.9409906C69.1660287 55.8524649 68.2833018 54.969738 67.1947762 54.969738 66.1062505 54.969738 65.2235236 55.8524649 65.2235236 56.9409906 65.2235236 60.481163 63.9428008 63.3822554 61.4166407 65.5636435 58.8835811 67.7515368 55.1608706 69.125894 50.6512361 69.5388715L48.8597618 69.7028797 48.8597618 76.3256969 45.5912279 76.3256969 45.5912279 69.6504444 43.8180862 69.4712575C38.0082136 68.8844156 32.3347515 66.9474628 27.636271 63.9702801L31.6844353 57.9881199C35.980386 60.6928756 39.8339877 62.2884074 43.6915318 62.9730234L46.0071622 63.3838324 46.0071622 51.0745429 44.4800329 50.7212945C38.6409856 49.3711836 34.8197125 47.7659926 32.4542094 45.6699598 31.6392936 44.9476928 30.393462 45.0231918 29.6713922 45.8381076 28.9495195 46.6530234 29.0246242 47.8986579 29.83954 48.6207277 32.5245832 50.9998324 36.3320575 52.7416312 42.0646571 54.1932616L42.0646571 58.5495326C39.0076386 57.6636517 35.8297823 56.0716682 32.2440739 53.6442678L30.6114825 52.5391836 22.1928542 64.9797585 23.7467926 66.0984444C28.8190226 69.7503869 35.1173717 72.232391 41.6487228 73.1760296L41.6487228 80.2682021 52.8022669 80.2682021 52.8022669 73.25074C57.3513265 72.5753889 61.1944805 70.9650727 63.9936591 68.5475285 67.3775113 65.6251466 69.1660287 61.6116764 69.1660287 56.9409906M42.133986 37.7003039C41.3614522 37.2705708 41.3616493 36.9192936 41.3616493 36.5555975L41.3616493 36.4168214C41.3616493 36.0142916 41.4962858 35.8250513 41.6987335 35.6645914 41.789214 35.5926407 41.9281873 35.5023573 42.133986 35.4108912L42.133986 37.7003039zM39.2488608 32.5756386C38.0517191 33.5249938 37.4191441 34.8532238 37.4191441 36.4168214L37.4191441 36.5555975C37.4191441 40.3764764 40.597986 41.5795318 43.5777314 42.4070637L46.0764912 43.1011417 46.0764912 30.923729 43.9847951 31.0516632C41.9609101 31.175655 40.3675466 31.6883778 39.2488608 32.5756386L39.2488608 32.5756386z"/>
    <path d="M25.2155729 37.4569725L25.2155729 37.5957487C25.2155729 38.7185741 25.305462 39.7946809 25.4824805 40.7937117 25.6723121 41.8656789 26.6949979 42.5800608 27.7673593 42.3906234 28.8393265 42.2005947 29.5544969 41.1777117 29.3644682 40.1057446 29.2274661 39.3332107 29.158078 38.488529 29.158078 37.5957487L29.158078 37.4569725C29.158078 33.9652928 30.3936591 31.0955433 32.8305216 28.9277569 35.3884189 26.65234 39.2163943 25.270492 43.9008789 24.9314366L45.729807 24.7991655 45.729807 20.9150094 48.9983409 20.9150094 48.9983409 24.8494324 50.7308747 25.0607507C55.1458891 25.5990998 59.1447721 26.9222045 62.8990226 29.0925536L59.2845339 35.0431737C56.7550226 33.528069 53.9101109 32.3482743 51.0910226 31.6591244L48.6517947 31.0628205 48.6517947 43.3979335 50.1850349 43.7472394C57.6746119 45.4535556 61.8812649 47.6790998 63.8249199 50.9632066 64.1929528 51.5851368 64.8493799 51.9308945 65.5233511 51.9308945 65.8645749 51.9306973 66.2103326 51.8421881 66.5255359 51.6555105 67.462078 51.1011943 67.7723532 49.8920279 67.2176427 48.9552887 64.8310472 44.9226973 60.2906612 42.2149848 52.5942998 40.2711326L52.5942998 36.2227713C54.7914579 37.0073298 56.9255359 38.1041347 58.7759507 39.4130464L60.5015852 40.633646 68.2736427 27.838837 66.6810678 26.7946645C62.4284846 24.0061306 57.9180616 22.2325947 52.940846 21.3977692L52.940846 16.9725043 41.7873018 16.9725043 41.7873018 21.183494C31.513922 22.5217774 25.2155729 28.6387713 25.2155729 37.4569725M47.4057462 2.44480657C47.4057462 2.18381273 47.6180501 1.9713117 47.8790439 1.9713117L48.0753807 1.9713117C48.3365717 1.9713117 48.5488756 2.18381273 48.5488756 2.44480657L48.5488756 10.7177593C48.5488756 10.9787532 48.3365717 11.1912542 48.0753807 11.1912542L47.8790439 11.1912542C47.6180501 11.1912542 47.4057462 10.9787532 47.4057462 10.7177593L47.4057462 2.44480657zM47.8790439 13.1625068L48.0753807 13.1625068C49.4235203 13.1625068 50.5201281 12.065899 50.5201281 10.7177593L50.5201281 2.44480657C50.5201281 1.09686407 49.4235203.000059137577 48.0753807.000059137577L47.8790439.000059137577C46.5311014.000059137577 45.4344936 1.09686407 45.4344936 2.44480657L45.4344936 10.7177593C45.4344936 12.065899 46.5311014 13.1625068 47.8790439 13.1625068L47.8790439 13.1625068zM24.8895671 8.18397043L25.059292 8.08599918C25.1336082 8.04302587 25.2148238 8.02272197 25.2952509 8.02272197 25.4588649 8.02272197 25.6183392 8.10748583 25.70606 8.25927228L29.8425363 15.4239869C29.9278916 15.5716337 29.9087704 15.7123811 29.8898464 15.7831491 29.8709224 15.853917 29.8171072 15.9852025 29.6692632 16.0705577L29.4991441 16.1687261C29.3514973 16.2540813 29.2103556 16.2349602 29.1399819 16.2160361 29.069214 16.196915 28.9377314 16.1430998 28.8525733 15.995453L24.7160969 8.83093552C24.5856 8.60483285 24.6632674 8.31466448 24.8895671 8.18397043L24.8895671 8.18397043zM27.1452715 16.9810793C27.471908 17.5466316 27.9990209 17.9511326 28.6298218 18.120069 28.8403515 18.1764468 29.0540353 18.2044386 29.2665363 18.2044386 29.6901585 18.2044386 30.1082612 18.0934571 30.4847704 17.8758308L30.6548895 17.7776624 30.6548895 17.7776624C31.2204419 17.451223 31.6249429 16.9239129 31.7938793 16.2933092 31.9628156 15.6625084 31.8760805 15.0037158 31.5496411 14.4383606L27.4131647 7.273646C26.7391934 6.10627023 25.2410415 5.70472608 24.0734686 6.37889446L23.9037437 6.47686571C22.736368 7.15083696 22.3348238 8.64879179 23.0087951 9.81636468L27.1452715 16.9810793zM16.1686078 29.4992821L16.0704394 29.6694012C15.9850842 29.817048 15.8537988 29.8710604 15.7830308 29.8897873 15.7122628 29.9089084 15.5717125 29.9280296 15.4238686 29.8426743L8.259154 25.7060008C8.03305133 25.5755039 7.95538398 25.2855326 8.08568378 25.0598242L8.18424641 24.8893109C8.2715729 24.7375244 8.43124435 24.6527606 8.59485832 24.6527606 8.6750883 24.6527606 8.7563039 24.6730645 8.83062012 24.7160378L15.9953347 28.8525142C16.1431786 28.9378694 16.1969938 29.069352 16.2159179 29.1401199 16.2348419 29.2108879 16.253963 29.3514382 16.1686078 29.4992821M16.980961 27.1454094L9.81624641 23.0087359C8.64906776 22.3351589 7.15052156 22.7363088 6.47714168 23.9034875L6.37857906 24.0740008C5.70480493 25.2411795 6.10634908 26.7393314 7.27352772 27.4131055L14.4382423 31.5497791C14.8149487 31.7672082 15.2328542 31.8783869 15.6564764 31.8783869 15.8687803 31.8783869 16.0826612 31.8503951 16.293191 31.7940172 16.9239918 31.6250809 17.4511047 31.2203828 17.7777413 30.6548304L17.8757125 30.4849084C18.202152 29.9193561 18.2888871 29.2605634 18.1199507 28.6297626 17.9510144 27.9991589 17.5465133 27.4718489 16.980961 27.1454094M1.97125257 48.0755581L1.97125257 47.8792214C1.97125257 47.6182275 2.18375359 47.4059236 2.44474743 47.4059236L10.7177002 47.4059236C10.978694 47.4059236 11.1909979 47.6182275 11.1909979 47.8792214L11.1909979 48.0755581C11.1909979 48.336552 10.978694 48.5488559 10.7177002 48.5488559L2.44474743 48.5488559C2.18375359 48.5488559 1.97125257 48.336552 1.97125257 48.0755581M13.1622505 48.0755581L13.1622505 47.8792214C13.1622505 46.5312789 12.0656427 45.434671 10.7177002 45.434671L2.44474743 45.434671C1.0966078 45.434671 0 46.5312789 0 47.8792214L0 48.0755581C0 49.4235006 1.0966078 50.5201084 2.44474743 50.5201084L10.7177002 50.5201084C12.0656427 50.5201084 13.1622505 49.4235006 13.1622505 48.0755581M16.2158587 66.8147778C16.1969347 66.8853487 16.1431195 67.0168312 15.9952756 67.1021864L8.83075811 71.2386628C8.68291417 71.3240181 8.54216674 71.3048969 8.47139877 71.28617 8.4006308 71.2670489 8.26934538 71.2132337 8.18399014 71.0653897L8.08582177 70.8952706C7.95532485 70.6693651 8.03318932 70.3791967 8.25909487 70.2486998L15.4238094 66.1122234C15.5085733 66.0631392 15.5907745 66.048552 15.6589799 66.048552 15.7098382 66.048552 15.7528115 66.0566341 15.7829717 66.0647162 15.8537396 66.0838374 15.9852222 66.1376526 16.0701832 66.2851023L16.1685487 66.4556156C16.2539039 66.6034595 16.2347828 66.7440099 16.2158587 66.8147778L16.2158587 66.8147778zM17.777485 65.2996731C17.4510456 64.7341207 16.9239326 64.3298168 16.2931318 64.1606834 15.662331 63.9915499 15.0035384 64.078285 14.4381832 64.4049216L7.27346858 68.5415951C6.10628994 69.2155663 5.70474579 70.7135211 6.37871704 71.8808969L6.47688542 72.051016C6.80332485 72.6165684 7.33043778 73.0210694 7.9612386 73.1902029 8.1719655 73.2465807 8.38564928 73.2745725 8.59795318 73.2745725 9.02157536 73.2745725 9.43967803 73.1633938 9.81638439 72.9459647L16.9809018 68.8092912C17.5464542 68.4828517 17.9509552 67.9555417 18.1200887 67.324938 18.2890251 66.6943343 18.2022899 66.0355417 17.8758505 65.4701864L17.777485 65.2996731zM29.8425363 80.5309503L25.70606 87.6956649C25.6207047 87.8435088 25.4894193 87.8971269 25.4186513 87.916248 25.3478834 87.9351721 25.2073331 87.9540961 25.059292 87.868938L24.88937 87.7707696C24.6632674 87.6400756 24.5856 87.3501043 24.7158998 87.1240016L28.8525733 79.9592871C28.9377314 79.8116402 29.069214 79.7576279 29.1399819 79.7385068 29.1701421 79.7304246 29.2131154 79.7223425 29.2639737 79.7223425 29.3321791 79.7223425 29.4145774 79.7371269 29.4991441 79.786014L29.6692632 79.8841823C29.8171072 79.9693405 29.8709224 80.100823 29.8898464 80.171591 29.9087704 80.2423589 29.9278916 80.3831064 29.8425363 80.5309503M30.6548895 78.1770776L30.4847704 78.0789092C29.9194152 77.7522727 29.2606226 77.6655376 28.6298218 77.8344739 27.9990209 78.0036074 27.471908 78.4079113 27.1452715 78.9736608L23.0087951 86.1383754C22.3350209 87.3057511 22.736368 88.8039031 23.9037437 89.4778743L24.0736657 89.5760427C24.4503721 89.7934719 24.8684747 89.9046505 25.2920969 89.9046505 25.5044008 89.9046505 25.7182817 89.8766587 25.9288115 89.8202809 26.5594152 89.6513446 27.0867253 89.2468435 27.4131647 88.6812912L31.5496411 81.5165766C31.8760805 80.9512214 31.9628156 80.2922316 31.7938793 79.6616279 31.6249429 79.0308271 31.2204419 78.503517 30.6548895 78.1770776M48.5489347 93.510032C48.5489347 93.7710259 48.3366308 93.9833298 48.0754398 93.9833298L47.8791031 93.9833298C47.6181092 93.9833298 47.4058053 93.7710259 47.4058053 93.510032L47.4058053 85.2368821C47.4058053 84.9758883 47.6181092 84.7635844 47.8791031 84.7635844L48.0754398 84.7635844C48.3366308 84.7635844 48.5489347 84.9758883 48.5489347 85.2368821L48.5489347 93.510032zM48.0754398 82.7923318L47.8791031 82.7923318C46.5311606 82.7923318 45.4345528 83.8889396 45.4345528 85.2368821L45.4345528 93.510032C45.4345528 94.8579745 46.5311606 95.9545823 47.8791031 95.9545823L48.0754398 95.9545823C49.4235795 95.9545823 50.5201873 94.8579745 50.5201873 93.510032L50.5201873 85.2368821C50.5201873 83.8889396 49.4235795 82.7923318 48.0754398 82.7923318L48.0754398 82.7923318zM71.285894 87.4832821C71.2667729 87.553853 71.2129577 87.6853355 71.0651138 87.7706908L70.8953889 87.8688591C70.747545 87.9542144 70.6066004 87.9350932 70.5358324 87.9161692 70.4652616 87.8972452 70.3337791 87.8432329 70.2484238 87.695586L66.1121446 80.5308715C66.0267893 80.3830275 66.0459105 80.2424772 66.0648345 80.1715121 66.0837585 80.1009413 66.1377708 79.9694587 66.2854177 79.8841035L66.4553396 79.7859351C66.5401035 79.737048 66.6225018 79.7224608 66.6905101 79.7224608 66.7413684 79.7224608 66.7843417 79.7305429 66.8145018 79.7386251 66.8852698 79.7577462 67.0167524 79.8113643 67.1019105 79.9592082L71.238584 87.1241199C71.3237421 87.2719639 71.3048181 87.4125142 71.285894 87.4832821L71.285894 87.4832821zM68.8092123 78.9735819C68.4825758 78.4080296 67.9552657 78.0035285 67.324662 77.8345922 66.6940583 77.6656559 66.0350686 77.752391 65.4695162 78.0788304L65.2997914 78.1769988C64.734239 78.5034382 64.329738 79.0307483 64.1606045 79.6615491 63.9916682 80.2923499 64.0784033 80.9511425 64.4050398 81.5164977L68.5413191 88.6812123C68.8677585 89.2467647 69.3950686 89.6512657 70.0258694 89.8202021 70.2365963 89.876777 70.4502801 89.9045717 70.662584 89.9045717 71.086009 89.9045717 71.5043088 89.7935901 71.8812123 89.5759639L72.0509372 89.4777955C72.6164895 89.1513561 73.0209906 88.624046 73.1899269 87.9934423 73.3590604 87.3628386 73.2721281 86.7038489 72.9456887 86.1384936L68.8092123 78.9735819zM87.8684846 70.8955072L87.7705133 71.0654292C87.6851581 71.213076 87.5536756 71.2670883 87.4831047 71.2860123 87.4125339 71.3049363 87.2717864 71.3240575 87.1239425 71.2387023L79.9592279 67.1022259C79.811384 67.0168706 79.7575688 66.8853881 79.7386448 66.8148172 79.7197207 66.7438522 79.7005996 66.603499 79.7859548 66.455655L79.8841232 66.2853388C79.9694784 66.137692 80.100961 66.0838768 80.1715318 66.0647556 80.201692 66.0566735 80.2446653 66.0485914 80.2955236 66.0485914 80.363729 66.0485914 80.4461273 66.0631786 80.530694 66.1120657L87.6954086 70.2487392C87.8430554 70.3338973 87.8970678 70.4653799 87.9159918 70.5361478 87.9349158 70.6069158 87.954037 70.7474661 87.8684846 70.8955072M88.6810349 68.5416345L81.5163203 64.404961C80.950768 64.0783244 80.2919754 63.9917864 79.6613717 64.1607228 79.030768 64.3296591 78.5034579 64.7341602 78.1768214 65.2999097L78.078653 65.4702259C77.7524107 66.0357782 77.6654784 66.6943737 77.8346119 67.3249774 78.0035483 67.9555811 78.4080493 68.4828912 78.9736016 68.8093306L86.1383162 72.945807C86.5150226 73.1634333 86.9329281 73.2744148 87.3565503 73.2744148 87.5688542 73.2744148 87.782538 73.2466201 87.9932649 73.1902423 88.6238686 73.0211088 89.1511786 72.6166078 89.4778152 72.0508583L89.5757864 71.8809363C89.9022259 71.315384 89.9891581 70.6565914 89.8200246 70.0259877 89.6510883 69.395384 89.2465873 68.8680739 88.6810349 68.5416345M93.9832115 48.0755581C93.9832115 48.336552 93.7709076 48.5488559 93.5099138 48.5488559L85.2367639 48.5488559C84.97577 48.5488559 84.7634661 48.336552 84.7634661 48.0755581L84.7634661 47.8792214C84.7634661 47.6182275 84.97577 47.4059236 85.2367639 47.4059236L93.5099138 47.4059236C93.7709076 47.4059236 93.9832115 47.6182275 93.9832115 47.8792214L93.9832115 48.0755581zM93.5099138 45.434671L85.2367639 45.434671C83.8888214 45.434671 82.7922136 46.5312789 82.7922136 47.8792214L82.7922136 48.0755581C82.7922136 49.4235006 83.8888214 50.5201084 85.2367639 50.5201084L93.5099138 50.5201084C94.8578563 50.5201084 95.9544641 49.4235006 95.9544641 48.0755581L95.9544641 47.8792214C95.9544641 46.5312789 94.8578563 45.434671 93.5099138 45.434671L93.5099138 45.434671zM79.7386053 29.1400805C79.7577265 29.0693125 79.8115417 28.93783 79.9591885 28.8526719L87.1239031 24.7161955C87.3496115 24.5855014 87.639977 24.6633659 87.7704739 24.8892715L87.8686423 25.0593906C87.9539975 25.2072345 87.9348764 25.3479819 87.9159524 25.4187499 87.8970283 25.4893207 87.843016 25.6208033 87.6953692 25.7061585L80.5308517 29.8426349C80.3830078 29.9279901 80.2424575 29.908869 80.1714924 29.889945 80.1009216 29.8710209 79.969439 29.8172057 79.8840838 29.6695589L79.7859154 29.4992427C79.7007573 29.3515959 79.7196813 29.2108485 79.7386053 29.1400805L79.7386053 29.1400805zM78.1769791 30.6549881L78.1769791 30.6549881C78.5034185 31.2205405 79.0307285 31.6250415 79.6613322 31.7939778 79.8720591 31.8505528 80.0857429 31.8783474 80.2980468 31.8783474 80.7214719 31.8783474 81.1395745 31.7671688 81.516478 31.5497396L88.6809955 27.4132632C89.2465478 27.0866267 89.6510489 26.5595138 89.8201823 25.9287129 89.9891187 25.2981092 89.9023836 24.6393166 89.575747 24.0739614L89.4775786 23.9038423C88.8034103 22.7362694 87.3050612 22.3351195 86.1382768 23.0088936L78.9735622 27.14537C78.4080099 27.4720066 78.0035088 27.9991195 77.8345725 28.6299203 77.665439 29.260524 77.7523713 29.9195138 78.0788107 30.484869L78.1769791 30.6549881zM71.2385446 8.83077782L67.1020682 15.9954924C67.0167129 16.1431392 66.8852304 16.1971515 66.8146595 16.2158784 66.7436945 16.2349996 66.602947 16.2541207 66.4554973 16.1687655L66.2853782 16.0705971C66.1377314 15.9852419 66.0839162 15.8537593 66.0647951 15.7831885 66.045871 15.7124205 66.026947 15.5716731 66.1121051 15.4238292L70.2485815 8.2593117C70.3788813 8.03301191 70.6690497 7.95554168 70.8947581 8.08564435L71.0652715 8.18420698C71.2131154 8.26936509 71.2669306 8.40084764 71.2858546 8.47161561 71.3047786 8.54238357 71.3238998 8.68293388 71.2385446 8.83077782M72.0514891 6.47729938L71.8809758 6.37873676C70.7130086 5.7047655 69.2152509 6.10611253 68.5412797 7.27368542L64.4050004 14.4382029C64.078561 15.0037552 63.9916287 15.6625478 64.1607622 16.2931515 64.3296986 16.9239524 64.7341996 17.4510653 65.2995548 17.7775047L65.4694768 17.8756731 65.4696739 17.8758702C65.8463803 18.0932994 66.264483 18.204478 66.6881051 18.204478 66.900409 18.204478 67.1140928 18.1764862 67.3248197 18.1201084 67.9554234 17.9511721 68.4827335 17.5464739 68.8091729 16.9811187L72.9456493 9.81640411C73.2720887 9.25085175 73.3590209 8.59205914 73.1898875 7.96125832 73.0209511 7.33065462 72.616253 6.80334456 72.0514891 6.47729938M61.2019121 62.1742522C61.1644583 62.1192542 61.1248361 62.0699729 61.0777232 62.024437 61.0323844 61.9792953 60.9831031 61.9377018 60.9277109 61.9022193 60.8746842 61.8667368 60.8175179 61.8351967 60.7583803 61.8115417 60.6990456 61.7859154 60.6381339 61.7681741 60.5748567 61.7543754 60.4469224 61.7287491 60.3168197 61.7287491 60.1884912 61.7543754 60.1256082 61.7681741 60.0643023 61.7859154 60.0053618 61.8115417 59.9462242 61.8351967 59.8890579 61.8667368 59.8338628 61.9022193 59.780639 61.9377018 59.7291893 61.9792953 59.6840476 62.024437 59.6385117 62.0699729 59.5971154 62.1192542 59.56183 62.1742522 59.5263474 62.2276731 59.4967786 62.2848394 59.4711524 62.3437799 59.4474973 62.4029175 59.4277848 62.4659975 59.4157602 62.5290776 59.4021585 62.5921577 59.3962448 62.657209 59.3962448 62.7204862 59.3962448 62.7855376 59.4021585 62.8505889 59.4157602 62.9134719 59.4277848 62.976552 59.4474973 63.0376608 59.4711524 63.0987696 59.4967786 63.1579072 59.5263474 63.2150735 59.56183 63.2682973 59.5971154 63.3215211 59.6385117 63.3727737 59.6840476 63.4183097 59.7291893 63.4634513 59.780639 63.5048476 59.8338628 63.5405273 59.8890579 63.5758127 59.9462242 63.6075499 60.0053618 63.6312049 60.0643023 63.6568312 60.1256082 63.6743754 60.1884912 63.6883713 60.2535425 63.7000016 60.3168197 63.7061125 60.381871 63.7061125 60.4469224 63.7061125 60.5098053 63.7000016 60.5748567 63.6883713 60.6381339 63.6743754 60.6990456 63.6568312 60.7583803 63.6312049 60.8175179 63.6075499 60.8746842 63.5758127 60.9277109 63.5405273 60.9831031 63.5048476 61.0323844 63.4634513 61.0777232 63.4183097 61.1248361 63.3727737 61.1644583 63.3215211 61.2019121 63.2682973 61.2373947 63.2150735 61.2669634 63.1579072 61.2925897 63.0987696 61.3162448 63.0376608 61.3359573 62.976552 61.3475877 62.9134719 61.3615836 62.8505889 61.3674973 62.7855376 61.3674973 62.7204862 61.3674973 62.657209 61.3615836 62.5921577 61.3475877 62.5290776 61.3359573 62.4659975 61.3162448 62.4029175 61.2925897 62.3437799 61.2669634 62.2848394 61.2373947 62.2276731 61.2019121 62.1742522M52.3129823 68.0367967C52.367586 68.0367967 52.4231754 68.0322628 52.4787647 68.0228008 52.625623 67.997963 56.1080378 67.3874661 58.7276353 65.1333388 59.1402185 64.7781191 59.18674 64.1559918 58.8317175 63.7432115 58.4766949 63.3306283 57.8541733 63.2841068 57.4417873 63.6389322 55.2497544 65.5252238 52.1862308 66.0728378 52.1481856 66.0793429 51.6122021 66.170809 51.2514628 66.6791951 51.3423376 67.2155729 51.4237503 67.6965585 51.8408674 68.0367967 52.3129823 68.0367967"/>
  </g>
</svg>
