<svg xmlns="http://www.w3.org/2000/svg" width="30" height="30" viewBox="0 0 30 30">
  <g fill="#FFFFFF" fill-rule="evenodd" transform="translate(0 .294)">
    <path d="M27.6808148 24.1186463L23.9982222 27.7563293C22.6411852 29.0968171 15.3741481 26.5127927 9.26674074 20.4798659 3.16007407 14.446939.543777778 7.26815854 1.90081481 5.92767073L5.58340741 2.2899878 5.56859259 2.3049878C6.24711111 1.6347439 7.34525926 1.63437805 8.02414815 2.3049878L9.26637037 6.96376829 6.7322963 9.46693902C5.37340741 10.8092561 7.56785185 14.114378 11.638963 18.1362073 15.7100741 22.1580366 19.0556296 24.3257195 20.4148889 22.9830366L22.948963 20.4798659 27.6652593 21.7073049C28.3445185 22.3775488 28.3437778 23.4626707 27.6652593 24.1329146L27.6808148 24.1186463zM28.9082222 20.4802317L22.3297037 18.6590122 22.2919259 18.6966951 19.833037 21.1248659 19.798963 21.1662073C18.7804444 22.1726707 16.2585926 20.2753537 12.866 16.9237683 9.47414815 13.5725488 7.55340741 11.0818171 8.57192593 10.0753537L8.61377778 10.0416951 11.0726667 7.61315854 11.1104444 7.57547561 9.26637037 1.07754878C7.90933333-.262939024 5.71303704-.263304878 4.356 1.07754878L4.4022963 1.03145122.673407407 4.71596341C-1.36251852 6.72669512 1.25340741 14.9902317 8.03896296 21.6930366 14.8241481 28.3958415 23.1900741 30.9798659 25.2256296 28.9691341L28.9115556 25.3277927C30.2648889 23.9865732 30.2641481 21.819622 28.9082222 20.4802317L28.9082222 20.4802317zM14.9497037 5.06059756C14.9500741 5.06023171 14.9504444 5.05986585 14.9508148 5.05913415 16.3085926 3.72047561 19.6015556 4.80523171 22.3152593 7.48547561 25.0285926 10.1660854 26.1267407 13.4188902 24.7715556 14.7601098 24.7708148 14.7604756 24.7708148 14.7608415 24.7700741 14.7612073 24.4311852 15.0963293 24.4311852 15.639622 24.7704444 15.974378 25.1093333 16.3091341 25.658963 16.3095 25.9978519 15.974378 28.0334074 13.9632805 26.9352593 9.62462195 23.5426667 6.27303659 20.1497037 2.92181707 15.7571111 1.83706098 13.7215556 3.84779268 13.3822963 4.18291463 13.3826667 4.72547561 13.7215556 5.06023171 14.0608148 5.39535366 14.6104444 5.39535366 14.9497037 5.06059756"/>
    <path d="M21.0874815,14.7615732 C21.4263704,15.0963293 21.9756296,15.0966951 22.3148889,14.7615732 C23.3326667,13.7562073 22.5085926,11.3155976 20.4734074,9.30486585 C18.4378519,7.29413415 15.9667407,6.48010976 14.948963,7.48547561 C14.6097037,7.82059756 14.6100741,8.36352439 14.948963,8.69791463 C15.2882222,9.03303659 15.8374815,9.03340244 16.1767407,8.69828049 C16.516,8.36315854 17.8885926,9.17681707 19.2456296,10.5173049 C20.6026667,11.8577927 21.426,13.2132805 21.0867407,13.5484024 C20.7474815,13.8835244 20.7482222,14.4264512 21.0874815,14.7615732"/>
  </g>
</svg>
