<svg xmlns="http://www.w3.org/2000/svg" width="30" height="30" viewBox="0 0 30 30">
  <g fill="#ABB3BE" fill-rule="evenodd">
    <polygon points="7.988 8.25 10.084 8.25 10.084 0 7.988 0"/>
    <polygon points="19.843 8.25 21.94 8.25 21.94 0 19.843 0"/>
    <path d="M23.3855783,3.67867857 L23.3855783,5.75010714 L27.8313614,5.75010714 L27.8313614,11.0358214 L2.09642169,11.0358214 L2.09642169,5.75010714 L6.54220482,5.75010714 L6.54220482,3.67867857 L3.61445783e-05,3.67867857 L3.61445783e-05,29.8215357 L29.927747,29.8215357 L29.927747,3.67867857 L23.3855783,3.67867857 Z M2.09642169,27.7501071 L27.8317229,27.7501071 L27.8317229,13.1429643 L2.09642169,13.1429643 L2.09642169,27.7501071 Z"/>
    <polygon points="11.53 5.75 18.361 5.75 18.361 3.679 11.53 3.679"/>
  </g>
</svg>
