<svg xmlns="http://www.w3.org/2000/svg" width="17" height="11" viewBox="0 0 17 11">
  <path fill="#A8AD00" fill-rule="evenodd" d="M16.5366609,0.397039348 C16.3861522,0.136952261 16.0846923,-0.0234994736 15.7947419,0.00281116039 L15.7925285,0.00324248226 C15.6203289,0.0213580007 15.4569828,0.0964080058 15.3356905,0.212433588 L5.64337739,9.24733276 L1.32200899,5.80279632 C1.17681243,5.65787217 0.973183105,5.57894027 0.747862831,5.58325349 C0.516345143,5.58842935 0.304305043,5.6859081 0.16619124,5.85067305 C0.028077438,6.015438 -0.0276992899,6.23756876 0.013026575,6.45969953 C0.05198175,6.67190989 0.173716672,6.85392771 0.348572287,6.96391479 L5.19937692,10.8311467 C5.33926142,10.944153 5.51500238,11.0002248 5.69118601,11.0002248 C5.88197783,11.0002248 6.073655,10.9342326 6.22195027,10.8026794 L16.4034165,1.31359832 L16.4392729,1.27391671 C16.6588385,0.989244273 16.6942523,0.669634769 16.5366609,0.397039348"/>
</svg>
