<?xml version="1.0" encoding="UTF-8"?>
<svg width="183px" height="80px" viewBox="0 0 183 80" version="1.1" xmlns="http://www.w3.org/2000/svg" xmlns:xlink="http://www.w3.org/1999/xlink">
    <!-- Generator: Sketch 41.2 (35397) - http://www.bohemiancoding.com/sketch -->
    <title>ym-logo-stacked-color</title>
    <desc>Created with Sketch.</desc>
    <defs>
        <polygon id="path-1" points="6.12405688 15.8072289 0.0450325894 15.8072289 0.0450325894 0.203988526 12.2030812 0.203988526 12.2030812 15.8072289 6.12405688 15.8072289"></polygon>
    </defs>
    <g id="Symbols" stroke="none" stroke-width="1" fill="none" fill-rule="evenodd">
        <g id="Sections/Navigation/TopNav-Desktop" transform="translate(-120.000000, -25.000000)">
            <g id="Top">
                <g id="ym-logo-stacked-color" transform="translate(120.000000, 25.000000)">
                    <g id="Group-3" transform="translate(0.000000, 63.228916)">
                        <mask id="mask-2" fill="white">
                            <use xlink:href="#path-1"></use>
                        </mask>
                        <g id="Clip-2"></g>
                        <path d="M7.47540984,12.4651291 C6.52972546,14.903206 5.47145961,15.8072289 3.55757456,15.8072289 C2.40924353,15.8072289 1.57614063,15.5362478 0.743037725,15.0846127 L1.66620581,13.051502 C2.16156429,13.3232358 2.70195536,13.5038898 3.26486273,13.5038898 C4.03041675,13.5038898 4.50325894,13.1651635 4.95358483,12.1264028 L0,0.203988526 L2.90460201,0.203988526 L6.28204622,9.05528399 L9.36602805,0.203988526 L12.2030812,0.203988526 L7.47540984,12.4651291" id="Fill-1" fill="#A1A83A" mask="url(#mask-2)"></path>
                    </g>
                    <path d="M18.7815919,65.6233345 C16.5975114,65.6233345 15.2015011,67.3387952 15.2015011,69.4388985 C15.2015011,71.5615835 16.7100928,73.3003787 18.8266245,73.3003787 C21.0332214,73.3003787 22.4284811,71.5841652 22.4284811,69.484062 C22.4284811,67.3613769 20.9206399,65.6233345 18.7815919,65.6233345 Z M18.7815919,75.671463 C15.1564685,75.671463 12.4770294,72.8939071 12.4770294,69.484062 C12.4770294,66.0516351 15.1789848,63.2296684 18.8266245,63.2296684 C22.4742643,63.2296684 25.1529528,66.0064716 25.1529528,69.4388985 C25.1529528,72.8487435 22.4509974,75.671463 18.7815919,75.671463 L18.7815919,75.671463 Z" id="Fill-4" fill="#A1A83A"></path>
                    <path d="M35.0601225,63.4780677 L37.7845941,63.4780677 L37.7845941,75.4004819 L35.0601225,75.4004819 L35.0601225,73.548778 C34.2938179,74.6778657 33.19127,75.6488812 31.3449338,75.6488812 C28.6662453,75.6488812 27.112621,73.8415881 27.112621,71.0647849 L27.112621,63.4780677 L29.8370926,63.4780677 L29.8370926,70.2518417 C29.8370926,72.1035456 30.7595102,73.1648881 32.3806834,73.1648881 C33.956824,73.1648881 35.0601225,72.0583821 35.0601225,70.2066781 L35.0601225,63.4780677" id="Fill-5" fill="#A1A83A"></path>
                    <path d="M43.3236026,75.4004819 L40.599131,75.4004819 L40.599131,63.4780677 L43.3236026,63.4780677 L43.3236026,66.1645439 C44.0666403,64.3805852 45.4401343,63.1611704 47.5341497,63.2514974 L47.5341497,66.1419621 L47.3765357,66.1419621 C44.990559,66.1419621 43.3236026,67.7001033 43.3236026,70.8615491 L43.3236026,75.4004819" id="Fill-6" fill="#A1A83A"></path>
                    <path d="M63.5424847,63.4780677 C66.2219238,63.4780677 67.8656133,65.2838554 67.8656133,68.1743201 L67.8656133,75.4004819 L66.1318586,75.4004819 L66.1318586,68.5807917 C66.1318586,66.3226162 65.0060438,65.0587906 63.1146751,65.0587906 C61.3584041,65.0587906 59.894845,66.3685324 59.894845,68.6711188 L59.894845,75.4004819 L58.1843571,75.4004819 L58.1843571,68.5356282 C58.1843571,66.3451979 57.0360261,65.0587906 55.1896899,65.0587906 C53.3433537,65.0587906 51.9465929,66.59435 51.9465929,68.738864 L51.9465929,75.4004819 L50.2135888,75.4004819 L50.2135888,63.7257143 L51.9465929,63.7257143 L51.9465929,65.690327 C52.7128975,64.5386575 53.748647,63.4780677 55.7068141,63.4780677 C57.5989334,63.4780677 58.8148134,64.4942467 59.4445191,65.8039885 C60.277622,64.5168285 61.5160182,63.4780677 63.5424847,63.4780677" id="Fill-7" fill="#575F64"></path>
                    <path d="M79.4840213,68.9195181 C79.3031404,66.796833 78.0872605,64.9451291 75.7680822,64.9451291 C73.7423662,64.9451291 72.2112581,66.6387608 71.9860952,68.9195181 L79.4840213,68.9195181 Z M76.0833103,74.1577326 C77.6819672,74.1577326 78.8077819,73.5036145 79.7542169,72.5100172 L80.8342485,73.4810327 C79.6641517,74.7907745 78.2448746,75.671463 76.0390282,75.671463 C72.8417144,75.671463 70.2305748,73.2100516 70.2305748,69.5751417 C70.2305748,66.1878784 72.5940352,63.4780677 75.8138653,63.4780677 C79.2588584,63.4780677 81.2402923,66.2322892 81.2402923,69.664716 C81.2402923,69.8227883 81.2402923,70.0034423 81.2170255,70.2066781 L71.9860952,70.2066781 C72.234525,72.7358348 74.035078,74.1577326 76.0833103,74.1577326 L76.0833103,74.1577326 Z" id="Fill-8" fill="#575F64"></path>
                    <path d="M96.9341497,63.4780677 C99.6128382,63.4780677 101.256528,65.2838554 101.256528,68.1743201 L101.256528,75.4004819 L99.5227731,75.4004819 L99.5227731,68.5807917 C99.5227731,66.3226162 98.3977089,65.0587906 96.5055896,65.0587906 C94.7500691,65.0587906 93.2857594,66.3685324 93.2857594,68.6711188 L93.2857594,75.4004819 L91.5752716,75.4004819 L91.5752716,68.5356282 C91.5752716,66.3451979 90.4269405,65.0587906 88.5806044,65.0587906 C86.7342682,65.0587906 85.3375074,66.59435 85.3375074,68.738864 L85.3375074,75.4004819 L83.6045033,75.4004819 L83.6045033,63.7257143 L85.3375074,63.7257143 L85.3375074,65.690327 C86.103812,64.5386575 87.1395615,63.4780677 89.0977286,63.4780677 C90.9898479,63.4780677 92.2057278,64.4942467 92.8361841,65.8039885 C93.6685364,64.5168285 94.9069326,63.4780677 96.9341497,63.4780677" id="Fill-9" fill="#575F64"></path>
                    <path d="M110.063401,65.0354561 C107.901837,65.0354561 105.852854,66.8427493 105.852854,69.5518072 C105.852854,72.2841997 107.901837,74.0907401 110.063401,74.0907401 C112.315031,74.0907401 114.161367,72.4196902 114.161367,69.5751417 C114.161367,66.796833 112.269998,65.0354561 110.063401,65.0354561 Z M110.378629,75.6488812 C108.217065,75.6488812 106.821055,74.4746299 105.920403,73.1648881 L105.920403,75.4004819 L104.187399,75.4004819 L104.187399,58.9158003 L105.920403,58.9158003 L105.920403,66.0742169 C106.866087,64.6749007 108.239581,63.4780677 110.378629,63.4780677 C113.17065,63.4780677 115.940154,65.690327 115.940154,69.5518072 C115.940154,73.3907057 113.193166,75.6488812 110.378629,75.6488812 L110.378629,75.6488812 Z" id="Fill-10" fill="#575F64"></path>
                    <path d="M126.93411,68.9195181 C126.75398,66.796833 125.53885,64.9451291 123.219672,64.9451291 C121.192455,64.9451291 119.661347,66.6387608 119.436935,68.9195181 L126.93411,68.9195181 Z M123.5349,74.1577326 C125.132807,74.1577326 126.258621,73.5036145 127.204306,72.5100172 L128.285088,73.4810327 C127.114241,74.7907745 125.695714,75.671463 123.489117,75.671463 C120.291803,75.671463 117.680664,73.2100516 117.680664,69.5751417 C117.680664,66.1878784 120.044124,63.4780677 123.263954,63.4780677 C126.708947,63.4780677 128.690381,66.2322892 128.690381,69.664716 C128.690381,69.8227883 128.690381,70.0034423 128.667865,70.2066781 L119.436935,70.2066781 C119.684614,72.7358348 121.485167,74.1577326 123.5349,74.1577326 L123.5349,74.1577326 Z" id="Fill-11" fill="#575F64"></path>
                    <path d="M132.849891,75.4004819 L131.116137,75.4004819 L131.116137,63.7257143 L132.849891,63.7257143 L132.849891,66.7742513 C133.705511,64.832973 135.394233,63.4321515 137.60083,63.5224785 L137.60083,65.3975169 L137.465732,65.3975169 C134.92139,65.3975169 132.849891,67.2258864 132.849891,70.7486403 L132.849891,75.4004819" id="Fill-12" fill="#575F64"></path>
                    <path d="M143.28094,75.6262995 C141.614734,75.6262995 139.768398,74.9706758 138.462453,73.9100861 L139.340589,72.6680895 C140.600751,73.6165232 141.997511,74.1577326 143.371005,74.1577326 C144.766265,74.1577326 145.780249,73.4351165 145.780249,72.3067814 L145.780249,72.2616179 C145.780249,71.0873666 144.406755,70.6357315 142.875647,70.2066781 C141.051827,69.6872978 139.02536,69.0550086 139.02536,66.9097418 L139.02536,66.8645783 C139.02536,64.8548021 140.690816,63.5224785 142.987478,63.5224785 C144.406755,63.5224785 145.982145,64.0200298 147.175509,64.8096386 L146.387438,66.1201331 C145.306656,65.419346 144.06826,64.9910453 142.942445,64.9910453 C141.568951,64.9910453 140.690816,65.7136615 140.690816,66.684677 L140.690816,66.7290878 C140.690816,67.8355938 142.131859,68.2646472 143.686233,68.738864 C145.486786,69.2808262 147.423188,69.9808606 147.423188,72.0809639 L147.423188,72.1261274 C147.423188,74.3391394 145.599368,75.6262995 143.28094,75.6262995" id="Fill-13" fill="#575F64"></path>
                    <path d="M151.388307,75.4004819 L149.654553,75.4004819 L149.654553,58.9158003 L151.388307,58.9158003 L151.388307,65.7580723 C152.153861,64.4942467 153.368991,63.4780677 155.372941,63.4780677 C158.187478,63.4780677 159.831918,65.3741824 159.831918,68.1517384 L159.831918,75.4004819 L158.097413,75.4004819 L158.097413,68.5807917 C158.097413,66.4129432 156.927316,65.0587906 154.878333,65.0587906 C152.874383,65.0587906 151.388307,66.5266047 151.388307,68.7162823 L151.388307,75.4004819" id="Fill-14" fill="#575F64"></path>
                    <path d="M162.823583,75.4004819 L164.557338,75.4004819 L164.557338,63.7257143 L162.823583,63.7257143 L162.823583,75.4004819 Z M162.711001,61.1747286 L164.692435,61.1747286 L164.692435,59.2552794 L162.711001,59.2552794 L162.711001,61.1747286 Z" id="Fill-15" fill="#575F64"></path>
                    <g id="Group-19" transform="translate(40.529330, 0.000000)" fill="#575F64">
                        <path d="M133.259688,65.0354561 C131.098124,65.0354561 129.049141,66.8427493 129.049141,69.5518072 C129.049141,72.2841997 131.098124,74.0907401 133.259688,74.0907401 C135.511317,74.0907401 137.356903,72.4196902 137.356903,69.5751417 C137.356903,66.796833 135.466285,65.0354561 133.259688,65.0354561 Z M133.574166,75.6488812 C131.413352,75.6488812 130.017341,74.4746299 129.11669,73.1648881 L129.11669,79.0135628 L127.382935,79.0135628 L127.382935,63.7257143 L129.11669,63.7257143 L129.11669,66.0742169 C130.062374,64.6749007 131.435868,63.4780677 133.574166,63.4780677 C136.366937,63.4780677 139.136441,65.690327 139.136441,69.5518072 C139.136441,73.3907057 136.388702,75.6488812 133.574166,75.6488812 L133.574166,75.6488812 Z" id="Fill-16"></path>
                        <path d="M6.90574758,6.9815261 L8.29350188,3.99471256 C8.37456054,3.8193276 8.3565475,3.61383362 8.2469682,3.45576133 L6.36085325,0.757241538 C6.25052341,0.599169248 6.06363816,0.511853127 5.8730002,0.529165806 L2.59988149,0.817459552 C2.40774245,0.834019507 2.23962078,0.952197361 2.15781157,1.12758233 L0.770807821,4.11439587 C0.688998617,4.28902811 0.70626111,4.49452209 0.81809204,4.65259438 L2.70270591,7.3518669 C2.81378629,7.50993919 2.999921,7.59650258 3.1913095,7.57994263 L6.4644282,7.29164888 C6.65581671,7.27508893 6.82468892,7.15615835 6.90574758,6.9815261" id="Fill-18"></path>
                    </g>
                    <path d="M38.4075449,27.5700654 L39.6474422,24.906171 C39.7285009,24.730786 39.7112384,24.5267975 39.6009086,24.3679725 L37.921193,21.9584991 C37.8116137,21.8004269 37.6247284,21.7131107 37.4333399,21.7296707 L34.512226,21.9840918 C34.3208374,22.0006517 34.1527158,22.1188296 34.0709066,22.2942146 L32.8302587,24.958109 C32.7492001,25.1327413 32.7672131,25.3374825 32.8767924,25.4955548 L34.5572585,27.9050281 C34.6675884,28.0631004 34.8537231,28.1504165 35.0451116,28.1338566 L37.9662256,27.8794355 C38.1568635,27.8628755 38.3264863,27.7446976 38.4075449,27.5700654" id="Fill-20" fill="#575F64"></path>
                    <path d="M67.8025676,10.8911807 L68.5538613,9.24346529 C68.6296662,9.0763603 68.6116532,8.88140448 68.5058266,8.73161216 L67.4580683,7.25551807 C67.3522418,7.10572576 67.174363,7.02367871 66.991981,7.04099139 L65.1929291,7.21261274 C65.0105471,7.22992542 64.851432,7.34358692 64.7756271,7.51069191 L64.0243334,9.15916007 C63.9485285,9.32551234 63.9665416,9.52046816 64.0723682,9.67026047 L65.1201264,11.1463546 C65.225953,11.2961469 65.4038317,11.3781939 65.5862137,11.3608812 L67.3852657,11.1892599 C67.5676476,11.1719472 67.7267628,11.0582857 67.8025676,10.8911807" id="Fill-21" fill="#9CA2A2"></path>
                    <path d="M27.9982619,35.3231348 L29.0542761,33.0754974 C29.1165712,32.9437705 29.103812,32.7887091 29.0205017,32.6690258 L27.6079795,30.6268824 C27.5246692,30.5087045 27.3850681,30.441712 27.2402133,30.4537556 L24.7709263,30.660755 C24.6260715,30.6727986 24.4992297,30.7616202 24.4369346,30.8925944 L23.3801699,33.1409845 C23.3193759,33.2727114 23.3321351,33.4270201 23.4139443,33.5474561 L24.8272171,35.5880941 C24.9105274,35.7077774 25.0501284,35.7732645 25.1949832,35.7612209 L27.6642702,35.5549742 C27.809125,35.5429306 27.9359668,35.4548617 27.9982619,35.3231348" id="Fill-22" fill="#9CA2A2"></path>
                    <path d="M54.3243136,16.9927711 L54.9780367,15.5994768 C55.0605965,15.4248445 55.043334,15.2193505 54.9330041,15.0605255 L54.0571203,13.7959472 C53.947541,13.6371222 53.7606557,13.5490534 53.5700178,13.5656133 L52.0389097,13.6943293 C51.8475212,13.7101365 51.6778985,13.8283144 51.5968398,14.0029466 L50.9423662,15.396241 C50.8598064,15.5708732 50.8770689,15.7763672 50.9881493,15.9351922 L51.8640332,17.1997705 C51.9736125,17.3578428 52.1597472,17.4459116 52.3511357,17.4301044 L53.8822437,17.3013884 C54.0728817,17.2848285 54.2425044,17.1674033 54.3243136,16.9927711" id="Fill-23" fill="#9CA2A2"></path>
                    <path d="M48.2576733,34.1165164 L49.2423859,32.0284567 C49.3579696,31.7853264 49.3347027,31.4970327 49.1815919,31.2757315 L47.8718941,29.3758531 C47.7180328,29.1530465 47.4590954,29.0303523 47.1896504,29.0521813 L44.89524,29.2403626 C44.625795,29.2621916 44.3901244,29.4247803 44.2745408,29.6701687 L43.2898282,31.7574756 C43.173494,32.0013586 43.1975114,32.2888996 43.3506222,32.5109535 L44.66032,34.4108319 C44.8134308,34.6321331 45.0731187,34.75558 45.3418132,34.733751 L47.6369741,34.5463224 C47.9056686,34.5244934 48.1413391,34.3603993 48.2576733,34.1165164" id="Fill-24" fill="#9CA2A2"></path>
                    <path d="M72.4844559,29.266708 L73.3663441,27.363066 C73.469919,27.141012 73.4466522,26.8790637 73.3063006,26.6788388 L72.1031799,24.9603672 C71.9620778,24.7586368 71.7264073,24.6494917 71.4817302,24.6713207 L69.3974719,24.8564911 C69.1520442,24.8783201 68.93889,25.0281124 68.8360656,25.2516718 L67.9534268,27.1553138 C67.8498519,27.3773678 67.8731187,27.6393161 68.0142208,27.839541 L69.216591,29.5580126 C69.3576931,29.7582375 69.5941142,29.8688881 69.8387912,29.8470591 L71.9230496,29.6618887 C72.1677266,29.6400597 72.3808809,29.4895146 72.4844559,29.266708" id="Fill-25" fill="#575F64"></path>
                    <path d="M30.9531503,12.5291107 L31.609125,11.1132347 C31.7081967,10.8972025 31.6856804,10.6450396 31.5498321,10.4500838 L30.6544341,9.17270912 C30.5178353,8.97850602 30.2889196,8.87161905 30.0532491,8.89269535 L28.5033774,9.03119679 C28.2662058,9.05227309 28.0598064,9.19830178 27.9599842,9.41358118 L27.30476,10.8294573 C27.2041872,11.0454894 27.2267035,11.2976523 27.3633024,11.4926081 L28.2579498,12.7699828 C28.3945487,12.9634332 28.6234643,13.0703201 28.8598854,13.0492438 L30.4105076,12.9107424 C30.6461782,12.8896661 30.8525775,12.7436374 30.9531503,12.5291107" id="Fill-26" fill="#9CA2A2"></path>
                    <path d="M63.2077424,29.6039289 L61.7599447,29.7168376 C61.5685562,29.7318921 61.3981829,29.8478118 61.3156231,30.0216913 L60.9456054,30.797751 L51.8572783,22.4394905 L52.312858,21.4564314 L60.5253012,19.422568 L63.0508789,23.0695215 C63.1702153,23.2403901 63.3706103,23.3359862 63.5777602,23.3179208 L65.1516492,23.1861939 L63.2077424,29.6039289 Z M35.3475805,34.8752633 L34.0543946,34.991183 L29.4498124,23.1733976 L30.0307328,23.122965 C30.2011061,23.1079105 30.3527158,23.002529 30.4247679,22.8459621 L31.4680229,20.605852 C31.5415761,20.4492851 31.5258147,20.2663729 31.426743,20.1248606 L30.9186253,19.3962226 L33.9072882,16.4334963 L35.0368556,18.0751899 C35.1554414,18.2483167 35.356587,18.3439128 35.565238,18.3273528 L40.0827573,17.9622811 C40.2906577,17.9457212 40.4745408,17.8185106 40.5638554,17.6288239 L41.1913095,16.3032748 L44.9042465,20.0638898 L44.2865495,21.3984716 C44.2047403,21.5731038 44.2227533,21.7785978 44.3338337,21.9366701 L45.0393443,22.9438164 L35.3475805,34.8752633 Z M53.0889196,9.43164659 L54.7633814,11.8328399 C54.8737112,11.9909122 55.0590954,12.0782283 55.2512344,12.0616684 L58.4327869,11.7846655 C58.6249259,11.7673528 58.7930476,11.6499277 58.8741063,11.4745427 L59.242623,10.6834286 L62.2087695,14.5855559 L60.451748,18.3273528 L52.1680032,20.3792817 L50.3104088,17.7274309 C50.2008295,17.5693586 50.0131938,17.4835479 49.8225558,17.5001079 L46.2417144,17.8192633 C46.0503259,17.836576 45.8814537,17.9540011 45.8011456,18.1293861 L45.3883468,19.0183546 L41.6829153,15.2652668 L42.5077622,13.522708 C42.5970768,13.3345267 42.5790638,13.1109673 42.460478,12.9385932 L41.5936006,11.6777785 L53.0889196,9.43164659 Z M70.6996642,17.7409799 L68.0157219,13.8651979 C67.8971361,13.6935766 67.6959905,13.5987332 67.4895912,13.6160459 L63.1064191,13.9841285 L59.7574956,9.578428 L60.2258345,8.57278715 C60.3076437,8.39815491 60.2896307,8.19266093 60.1785503,8.03458864 L58.3487261,5.40983592 C58.2391468,5.2510109 58.053012,5.16369478 57.860873,5.18100746 L54.6793206,5.45801033 C54.4871815,5.47457028 54.3190598,5.59274814 54.2380012,5.7681331 L53.0386332,8.34170052 L40.9263678,10.7082685 L39.8868655,9.19679633 C39.7682797,9.02442226 39.5663836,8.92957889 39.3584831,8.94613884 L34.8409639,9.31121056 C34.6323129,9.32777051 34.4484298,9.45422834 34.3598657,9.64316236 L32.4159589,13.750031 C32.3266443,13.938965 32.3446573,14.1625244 32.4624926,14.3341457 L33.286589,15.5309788 L30.2926723,18.4982215 L30.0142208,18.0985244 C29.9158997,17.957012 29.7485285,17.8787286 29.5781552,17.8937831 L27.1216275,18.1075571 C26.9505037,18.1226116 26.7996445,18.2279931 26.7275923,18.38456 L25.6835868,20.6254228 C25.6107841,20.7812369 25.6272961,20.9641492 25.7248667,21.1056615 L27.1381394,23.1319977 C27.2364606,23.27351 27.4030812,23.3517935 27.574205,23.336739 L28.3307525,23.2712519 L32.9368359,35.0920482 L31.5415761,35.2170006 C31.3501876,35.2343133 31.1828165,35.3532438 31.1010073,35.5278761 L29.3342287,39.3494618 C29.2524195,39.5240941 29.2711831,39.7288353 29.3822635,39.8869076 L31.7982619,43.3321308 C31.9093423,43.4902031 32.095477,43.5767665 32.2868655,43.5594538 L36.4696425,43.1838439 C36.6617816,43.1665313 36.8299032,43.0476007 36.9102113,42.8729684 L38.6769899,39.0513827 C38.7587991,38.8759977 38.7400356,38.6720092 38.6289552,38.5139369 L36.38333,35.3110912 L45.6825597,23.8628939 L46.3993285,24.8873528 C46.5096583,25.0454251 46.6965436,25.1319885 46.8879321,25.1146758 L50.4687735,24.7962731 C50.6594114,24.7789604 50.8290342,24.6600298 50.9093423,24.4853976 L51.3806834,23.4669604 L60.460004,31.8169409 L59.7657515,33.2742169 C59.6816907,33.4480964 59.6974521,33.6535904 59.8070314,33.8131681 L61.8402528,36.7856799 C61.9490816,36.9452576 62.1352163,37.0340792 62.3258542,37.0190247 L65.9104484,36.7397636 C66.1018369,36.7247091 66.2714596,36.6080367 66.3540194,36.4341572 L67.9046415,33.1816317 C67.9887024,33.0077522 67.9721904,32.8015055 67.8626111,32.6426804 L65.8301402,29.6694159 C65.7213115,29.5105909 65.5351768,29.4225221 65.3445388,29.4375766 L64.3605767,29.5143546 L66.3067351,23.0890924 L68.2664033,22.9242456 C68.4728027,22.9069329 68.6559352,22.780475 68.7437488,22.591541 L70.7484495,18.3220838 C70.8362631,18.1331497 70.81825,17.9126013 70.6996642,17.7409799 L70.6996642,17.7409799 Z" id="Fill-27" fill="#A1A83A"></path>
                    <path d="M55.9439858,31.0423867 C54.7003358,30.4590247 53.2240174,31.0009868 52.6445981,32.246747 L48.6216867,40.8963121 L43.6020541,36.9821411 C42.6916453,36.2715686 41.3781947,36.4364154 40.6689315,37.3502238 C39.9596682,38.2647849 40.1240371,39.5820539 41.0351965,40.2926265 L47.1581276,45.0671624 L47.1581276,55.8258635 C47.1581276,57.2018451 48.269682,58.3166311 49.6409244,58.3166311 C51.0129172,58.3166311 52.1244717,57.2018451 52.1244717,55.8258635 L52.1244717,45.147704 L57.1448548,34.3521193 C57.7250247,33.1056064 57.1876358,31.6234905 55.9439858,31.0423867" id="Fill-28" fill="#575F64"></path>
                    <path d="M181.083547,64.8510384 L181.247166,64.8510384 C181.437053,64.8510384 181.590914,64.7870568 181.590914,64.6327481 C181.590914,64.4957522 181.491092,64.4054251 181.274185,64.4054251 C181.18337,64.4054251 181.120324,64.4144578 181.083547,64.4234905 L181.083547,64.8510384 Z M181.074541,65.6955961 L180.730792,65.6955961 L180.730792,64.2052002 C180.86664,64.1781021 181.056528,64.1600367 181.301205,64.1600367 C181.582659,64.1600367 181.70875,64.2052002 181.817579,64.2691819 C181.899388,64.3331635 181.962433,64.4505886 181.962433,64.5958646 C181.962433,64.7599587 181.835592,64.8871692 181.654711,64.9413655 L181.654711,64.9594309 C181.799565,65.0136271 181.880624,65.1227722 181.926407,65.3229971 C181.97144,65.5503201 181.99921,65.6406472 182.035236,65.6955961 L181.663717,65.6955961 C181.617934,65.6406472 181.590914,65.5044039 181.545882,65.3320298 C181.518862,65.1686885 181.428047,65.0956741 181.238159,65.0956741 L181.074541,65.0956741 L181.074541,65.6955961 Z M180.160379,64.9142674 C180.160379,65.5774182 180.648983,66.1043259 181.319218,66.1043259 C181.97144,66.1043259 182.451787,65.5774182 182.451787,64.9233001 C182.451787,64.2601492 181.97144,63.7242088 181.310211,63.7242088 C180.648983,63.7242088 180.160379,64.2601492 180.160379,64.9142674 Z M182.832313,64.9142674 C182.832313,65.758825 182.171084,66.4227286 181.310211,66.4227286 C180.458345,66.4227286 179.779103,65.758825 179.779103,64.9142674 C179.779103,64.0877751 180.458345,63.4246242 181.310211,63.4246242 C182.171084,63.4246242 182.832313,64.0877751 182.832313,64.9142674 L182.832313,64.9142674 Z" id="Fill-29" fill="#575F64"></path>
                </g>
            </g>
        </g>
    </g>
</svg>