<svg xmlns="http://www.w3.org/2000/svg" width="32" height="21" viewBox="0 0 32 21">
  <path fill="#FFFFFF" fill-rule="evenodd" stroke="#FFFFFF" stroke-width=".2" d="M10.6458333,10.131375 L14.5728333,13.4767159 C14.8201667,13.6873977 15.1798333,13.6873977 15.4271667,13.4767159 L19.3541667,10.131375 L27.6355,17.7271705 L2.3645,17.7271705 L10.6458333,10.131375 Z M28.6668333,2.19467045 L28.6668333,16.8428523 L20.3855,9.24705682 L28.6668333,2.19467045 Z M1.3335,2.19467045 L9.6145,9.24705682 L1.3335,16.8428523 L1.3335,2.19467045 Z M2.44783333,1.36353409 L27.5521667,1.36353409 L15.0001667,12.0595568 L2.44783333,1.36353409 Z M1.00016667,-0.000102272727 C0.4575,-0.000102272727 0.000166666666,0.467965909 0.000166666666,1.022625 L0.000166666666,18.0680795 C0.000166666666,18.6230795 0.4575,19.0908068 1.00016667,19.0908068 L29.0001667,19.0908068 C29.5425,19.0908068 30.0001667,18.6230795 30.0001667,18.0680795 L30.0001667,1.022625 C30.0001667,0.467965909 29.5425,-0.000102272727 29.0001667,-0.000102272727 L1.00016667,-0.000102272727 Z" transform="translate(1 1)"/>
</svg>
