<svg xmlns="http://www.w3.org/2000/svg" width="26" height="25" viewBox="0 0 26 25" xmlns:xlink="http://www.w3.org/1999/xlink">
  <defs>
    <polygon id="a" points=".218 .031 .218 24.722 24.909 24.722 24.909 .031"/>
  </defs>
  <g fill="none" fill-rule="evenodd" transform="translate(.25)">
    <mask id="b" fill="white">
      <use xlink:href="#a"/>
    </mask>
    <path fill="#ABB3BE" d="M20.6430833,12.866 L19.1889167,12.866 L19.1889167,14.3201667 L17.73475,14.3201667 L17.73475,12.866 L16.2805833,12.866 L16.2805833,11.4118333 L17.73475,11.4118333 L17.73475,9.95766667 L19.1889167,9.95766667 L19.1889167,11.4118333 L20.6430833,11.4118333 L20.6430833,12.866 Z M9.73725,17.2282222 C6.90197222,17.2282222 4.64780556,14.9743333 4.64780556,12.1390556 C4.64780556,9.3035 6.90197222,7.04961111 9.73725,7.04961111 C11.1186389,7.04961111 12.2819722,7.5585 13.1544722,8.431 L11.7730833,9.73961111 C11.4094722,9.376 10.7550278,8.93988889 9.73725,8.93988889 C7.99252778,8.93988889 6.61113889,10.3940556 6.61113889,12.1390556 C6.61113889,13.8837778 7.99252778,15.3379444 9.73725,15.3379444 C11.7730833,15.3379444 12.5000278,13.8837778 12.6455833,13.1568333 L9.73725,13.1568333 L9.73725,11.4118333 L14.5358611,11.4118333 C14.6086389,11.7026667 14.6086389,11.9207222 14.6086389,12.2843333 C14.6086389,15.1926667 12.6455833,17.2282222 9.73725,17.2282222 L9.73725,17.2282222 Z M12.5633611,0.0304444444 C5.74502778,0.0304444444 0.217527778,5.55794444 0.217527778,12.3762778 C0.217527778,19.1948889 5.74502778,24.7221111 12.5633611,24.7221111 C19.3819722,24.7221111 24.9091944,19.1948889 24.9091944,12.3762778 C24.9091944,5.55794444 19.3819722,0.0304444444 12.5633611,0.0304444444 L12.5633611,0.0304444444 Z" mask="url(#b)"/>
  </g>
</svg>
