<svg xmlns="http://www.w3.org/2000/svg" width="25" height="25" viewBox="0 0 25 25" xmlns:xlink="http://www.w3.org/1999/xlink">
  <defs>
    <polygon id="a" points="24.837 .031 .145 .031 .145 24.722 24.837 24.722 24.837 .031"/>
  </defs>
  <g fill="none" fill-rule="evenodd" transform="translate(.167)">
    <mask id="b" fill="white">
      <use xlink:href="#a"/>
    </mask>
    <path fill="#ABB3BE" d="M18.4754444,17.2740556 L16.0287778,17.2740556 L16.0287778,13.3371111 C16.0287778,12.3482222 15.6754444,11.6732222 14.7898889,11.6732222 C14.1135,11.6732222 13.7115556,12.1276667 13.5346111,12.5679444 C13.4704444,12.7251667 13.4535,12.9437778 13.4535,13.1640556 L13.4535,17.2740556 L11.0062778,17.2740556 C11.0062778,17.2740556 11.0390556,10.6054444 11.0062778,9.91516667 L13.4535,9.91516667 L13.4535,10.9579444 C13.7785,10.4576667 14.3587778,9.74238889 15.6585,9.74238889 C17.2687778,9.74238889 18.4754444,10.7940556 18.4754444,13.0540556 L18.4754444,17.2740556 Z M8.43044444,8.91072222 L8.41433333,8.91072222 C7.59377778,8.91072222 7.06183333,8.34572222 7.06183333,7.63905556 C7.06183333,6.91683333 7.60933333,6.36766667 8.44655556,6.36766667 C9.28377778,6.36766667 9.79822222,6.91683333 9.81433333,7.63905556 C9.81433333,8.34572222 9.28377778,8.91072222 8.43044444,8.91072222 L8.43044444,8.91072222 Z M7.20738889,17.2740556 L9.6535,17.2740556 L9.6535,9.91516667 L7.20738889,9.91516667 L7.20738889,17.2740556 Z M12.491,0.0304444444 C5.67238889,0.0304444444 0.145166667,5.55794444 0.145166667,12.3762778 C0.145166667,19.1948889 5.67238889,24.7221111 12.491,24.7221111 C19.3093333,24.7221111 24.8368333,19.1948889 24.8368333,12.3762778 C24.8368333,5.55794444 19.3093333,0.0304444444 12.491,0.0304444444 L12.491,0.0304444444 Z" mask="url(#b)"/>
  </g>
</svg>
