<svg xmlns="http://www.w3.org/2000/svg" width="50" height="47" viewBox="0 0 50 47">
  <path fill="#343F49" fill-rule="evenodd" d="M17.25,35 C16.559375,35 16,35.559375 16,36.25 C16,36.940625 16.559375,37.5 17.25,37.5 L43.5,37.5 C44.190625,37.5 44.75,36.940625 44.75,36.25 C44.75,35.559375 44.190625,35 43.5,35 L17.25,35 Z M17.25,28.125 C16.559375,28.125 16,28.684375 16,29.375 C16,30.065625 16.559375,30.625 17.25,30.625 L43.5,30.625 C44.190625,30.625 44.75,30.065625 44.75,29.375 C44.75,28.684375 44.190625,28.125 43.5,28.125 L17.25,28.125 Z M17.25,21.25 C16.559375,21.25 16,21.809375 16,22.5 C16,23.190625 16.559375,23.75 17.25,23.75 L43.5,23.75 C44.190625,23.75 44.75,23.190625 44.75,22.5 C44.75,21.809375 44.190625,21.25 43.5,21.25 L17.25,21.25 Z M3.5,15 L9.75,15 L9.75,40.625 C9.75,42.378125 8.378125,43.75 6.625,43.75 C4.871875,43.75 3.5,42.378125 3.5,40.625 L3.5,15 Z M36,13.75 C35.309375,13.75 34.75,14.309375 34.75,15 C34.75,15.690625 35.309375,16.25 36,16.25 L43.5,16.25 C44.190625,16.25 44.75,15.690625 44.75,15 C44.75,14.309375 44.190625,13.75 43.5,13.75 L36,13.75 Z M18.5,15 L28.5,15 L28.5,8.75 L18.5,8.75 L18.5,15 Z M36,7.5 C35.309375,7.5 34.75,8.059375 34.75,8.75 C34.75,9.440625 35.309375,10 36,10 L43.5,10 C44.190625,10 44.75,9.440625 44.75,8.75 C44.75,8.059375 44.190625,7.5 43.5,7.5 L36,7.5 Z M17.25,6.25 C16.588125,6.25 16.015625,6.936875 16,7.5 L16,16.25 C16,16.904375 16.595625,17.5 17.25,17.5 L29.75,17.5 C30.404375,17.5 31,16.904375 31,16.25 L31,7.5 C31,6.845625 30.404375,6.25 29.75,6.25 L17.25,6.25 Z M12.25,2.5 L48.5,2.5 L48.5,40.625 C48.5,42.378125 47.128125,43.75 45.375,43.75 L11.15625,43.75 C11.78875,42.840625 12.25,41.810625 12.25,40.625 L12.25,2.5 Z M11,0 C10.34125,0.02125 9.765625,0.686875 9.75,1.25 L9.75,12.5 L2.25,12.5 C1.57375,12.515625 1.015625,13.186875 1,13.75 L1,40.625 C1,43.719375 3.530625,46.25 6.625,46.25 L45.375,46.25 C48.469375,46.25 51,43.719375 51,40.625 L51,1.25 C51,0.595625 50.404375,0 49.75,0 L11,0 Z" transform="translate(-1)"/>
</svg>
