<?xml version="1.0" encoding="UTF-8"?>
<svg width="49px" height="57px" viewBox="0 0 49 57" version="1.1" xmlns="http://www.w3.org/2000/svg" xmlns:xlink="http://www.w3.org/1999/xlink">
    <!-- Generator: Sketch 41.2 (35397) - http://www.bohemiancoding.com/sketch -->
    <title>ym-logo-stacked-color</title>
    <desc>Created with Sketch.</desc>
    <defs></defs>
    <g id="Navigation" stroke="none" stroke-width="1" fill="none" fill-rule="evenodd">
        <g id="Navigation-Mobile---Tablet" transform="translate(-21.000000, -16.000000)">
            <g id="Top-Nav">
                <g id="ym-logo-stacked-color" transform="translate(20.000000, 16.000000)">
                    <path d="M24.4535725,6.75296424 L25.7958944,3.86393328 C25.8742993,3.69429009 25.856876,3.49552359 25.7508841,3.34262629 L23.926517,0.732450892 C23.8197991,0.579553589 23.6390321,0.49509603 23.4546353,0.511841926 L20.2886723,0.790697484 C20.1028235,0.806715297 19.9402058,0.921024233 19.8610749,1.09066743 L18.519479,3.97969839 C18.440348,4.1486135 18.4570454,4.34738 18.5652152,4.5002773 L20.3881304,7.11118078 C20.4955742,7.26407808 20.6756152,7.34780756 20.860738,7.33178974 L24.0267011,7.05293419 C24.2118239,7.03691637 24.3751675,6.92187935 24.4535725,6.75296424" id="Fill-18" fill="#575F64"></path>
                    <path d="M15.7215836,26.667474 L16.9208891,24.0907904 C16.999294,23.9211472 16.9825967,23.7238368 16.8758788,23.5702115 L15.2511539,21.2396197 C15.145162,21.0867224 14.9643951,21.0022648 14.7792722,21.0182827 L11.95379,21.2643745 C11.7686672,21.2803923 11.6060495,21.3947013 11.5269186,21.5643445 L10.3268872,24.1410281 C10.2484822,24.3099432 10.2659055,24.5079816 10.3718974,24.6608789 L11.9973483,26.9914706 C12.1040661,27.1443679 12.2841072,27.2288255 12.46923,27.2128077 L15.2947122,26.9667158 C15.4791091,26.950698 15.6431787,26.8363891 15.7215836,26.667474" id="Fill-20" fill="#575F64"></path>
                    <path d="M44.1542693,10.5346242 L44.8809671,8.94085184 C44.9542902,8.77921755 44.9368669,8.59064421 44.8345049,8.44575581 L43.8210482,7.01798623 C43.7186862,6.87309783 43.5466309,6.79373685 43.3702198,6.81048275 L41.6300653,6.97648553 C41.4536542,6.99323143 41.2997482,7.10317187 41.226425,7.26480616 L40.4997272,8.85930661 C40.4264041,9.02021282 40.4438274,9.20878617 40.5461894,9.35367456 L41.5596461,10.7814441 C41.6620081,10.9263325 41.8340634,11.0056935 42.0104746,10.9889476 L43.750629,10.8229448 C43.9270401,10.8061989 44.0809461,10.6962585 44.1542693,10.5346242" id="Fill-21" fill="#9CA2A2"></path>
                    <path d="M5.65308071,34.1667227 L6.67452303,31.9926686 C6.73477869,31.8652542 6.72243717,31.7152692 6.6418543,31.5995041 L5.27557537,29.6242166 C5.1949925,29.5099077 5.05996174,29.4451083 4.91984919,29.4567576 L2.53140195,29.6569803 C2.3912894,29.6686296 2.26860016,29.7545433 2.2083445,29.8812297 L1.1861762,32.0560118 C1.12737249,32.1834262 1.13971401,32.3326831 1.21884493,32.4491763 L2.58584984,34.4230077 C2.66643271,34.5387728 2.80146347,34.6021159 2.94157602,34.5904666 L5.33002325,34.3909721 C5.47013581,34.3793227 5.59282505,34.2941371 5.65308071,34.1667227" id="Fill-22" fill="#9CA2A2"></path>
                    <path d="M31.1172677,16.4364601 L31.7495891,15.0887796 C31.829446,14.9198645 31.8127487,14.721098 31.7060308,14.5674726 L30.8588217,13.3442942 C30.7528298,13.1906688 30.5720628,13.1054832 30.387666,13.121501 L28.9066835,13.2460031 C28.7215607,13.2612928 28.5574911,13.3756017 28.4790861,13.5445168 L27.8460387,14.8921974 C27.7661818,15.0611125 27.7828792,15.259879 27.890323,15.4135044 L28.7375321,16.6366828 C28.843524,16.7895801 29.023565,16.8747657 29.2086878,16.859476 L30.6896703,16.7349739 C30.8740671,16.7189561 31.0381367,16.6053752 31.1172677,16.4364601" id="Fill-23" fill="#9CA2A2"></path>
                    <path d="M25.2492376,32.9996066 L26.2017126,30.979906 C26.3135122,30.7447354 26.2910071,30.4658798 26.1429089,30.2518236 L24.8760881,28.4141436 C24.7272639,28.1986313 24.4768036,28.0799538 24.2161797,28.1010682 L21.9968839,28.2830888 C21.73626,28.3042032 21.5083049,28.461469 21.3965052,28.6988239 L20.4440302,30.7177964 C20.3315046,30.9536951 20.3547357,31.2318225 20.5028339,31.4466068 L21.7696547,33.2842868 C21.917753,33.498343 22.1689392,33.6177485 22.4288371,33.5966342 L24.6488589,33.4153416 C24.9087568,33.3942272 25.136712,33.2355053 25.2492376,32.9996066" id="Fill-24" fill="#9CA2A2"></path>
                    <path d="M48.6828814,28.3085717 L49.5358983,26.4672513 C49.6360824,26.252467 49.6135773,25.9990943 49.4778205,25.8054244 L48.3140877,24.1432123 C48.177605,23.9480862 47.9496499,23.8425143 47.7129831,23.8636287 L45.6969594,24.0427369 C45.4595666,24.0638513 45.2533906,24.2087397 45.1539325,24.4249802 L44.3001896,26.2663006 C44.2000055,26.4810849 44.2225107,26.7344576 44.3589934,26.9281275 L45.5220002,28.5903396 C45.6584829,28.7840095 45.887164,28.8910376 46.1238308,28.8699232 L48.1398545,28.690815 C48.3765213,28.6697006 48.5826973,28.5240841 48.6828814,28.3085717" id="Fill-25" fill="#575F64"></path>
                    <path d="M8.51123169,12.1189315 L9.14573105,10.7494085 C9.24155933,10.5404489 9.21978017,10.2965413 9.08837928,10.1079679 L8.22229492,8.8724121 C8.09016805,8.68456684 7.86874665,8.58117914 7.6407915,8.60156545 L6.14165973,8.73553261 C5.91225264,8.75591891 5.71261039,8.8971669 5.61605614,9.10539846 L4.98228276,10.4749215 C4.88500254,10.6838811 4.90678169,10.9277887 5.03890856,11.116362 L5.90426695,12.3519179 C6.03639382,12.5390351 6.25781522,12.6424228 6.48649634,12.6220364 L7.98635408,12.4880693 C8.21430923,12.467683 8.41395147,12.326435 8.51123169,12.1189315" id="Fill-26" fill="#9CA2A2"></path>
                    <path d="M39.7098699,28.6347526 L38.3094703,28.743965 C38.1243475,28.7585266 37.9595519,28.8706513 37.879695,29.0388383 L37.5217909,29.7894913 L28.7309983,21.7048644 L29.1716632,20.7539887 L37.1152467,18.7867101 L39.5581418,22.3142693 C39.6735713,22.479544 39.8674058,22.5720105 40.067774,22.5545365 L41.5901369,22.4271221 L39.7098699,28.6347526 Z M12.7617966,33.7335136 L11.5109472,33.8456383 L7.05711017,22.4147447 L7.61901235,22.3659632 C7.78380795,22.3514015 7.93045425,22.24947 8.00014755,22.0980289 L9.00924835,19.9312556 C9.08039359,19.7798145 9.06514818,19.6028905 8.9693199,19.466011 L8.47783699,18.7612272 L11.3686567,15.8954949 L12.4612443,17.4834426 C12.5759478,17.6509016 12.7705083,17.743368 12.9723284,17.7273502 L17.3419527,17.3742303 C17.5430469,17.3582124 17.72091,17.2351665 17.8073006,17.0516898 L18.4142131,15.7695367 L22.0055956,19.4070363 L21.4081208,20.6979264 C21.3289898,20.8668415 21.3464132,21.065608 21.453857,21.2185053 L22.1362705,22.1926796 L12.7617966,33.7335136 Z M29.9223181,9.12287244 L31.5419612,11.4454553 C31.648679,11.5983526 31.8279941,11.6828102 32.0138428,11.6667923 L35.0912373,11.398858 C35.2770861,11.3821121 35.4397038,11.2685313 35.5181087,11.0988881 L35.8745609,10.3336735 L38.7436015,14.1080526 L37.0441015,17.7273502 L29.0315507,19.7121028 L27.2347705,17.1470685 C27.1287786,16.9941712 26.9472856,16.9111698 26.7628888,16.9271877 L23.2992773,17.2358946 C23.1141545,17.2526405 22.9508109,17.3662213 22.8731319,17.5358645 L22.4738474,18.3957299 L18.8897246,14.765511 L19.6875676,13.0800003 C19.7739582,12.8979797 19.7565349,12.6817392 19.6418314,12.5150083 L18.8033339,11.2954703 L29.9223181,9.12287244 Z M46.9565205,17.160174 L44.3604453,13.4112778 C44.2457417,13.245275 44.0511813,13.1535366 43.8515391,13.1702825 L39.6118637,13.5263148 L36.3725775,9.26484851 L36.825584,8.29213043 C36.9047149,8.12321531 36.8872916,7.92444882 36.7798477,7.77155151 L35.0099285,5.23272819 C34.9039366,5.07910281 34.7238956,4.99464525 34.5380468,5.01139114 L31.4606523,5.27932547 C31.2748035,5.29534328 31.1121859,5.40965221 31.0337809,5.57929541 L29.873678,8.06860913 L18.157945,10.3577002 L17.1524741,8.89571073 C17.0377705,8.72897987 16.8424841,8.63724148 16.6413899,8.6532593 L12.2717656,9.00637926 C12.0699455,9.02239707 11.8920824,9.14471491 11.8064177,9.3274636 L9.92615074,13.2998812 C9.83976009,13.4826298 9.85718342,13.6988703 9.97116099,13.8648731 L10.768278,15.0225241 L7.87237651,17.8926249 L7.60304097,17.5060132 C7.50793866,17.3691337 7.34604695,17.2934131 7.18125135,17.3079748 L4.80514564,17.5147502 C4.63962407,17.5293118 4.49370374,17.6312433 4.42401044,17.7826845 L3.41418367,19.9501858 C3.3437644,20.1008988 3.35973578,20.2778229 3.45411212,20.4147023 L4.82111702,22.3747002 C4.91621933,22.5115797 5.07738507,22.5873002 5.24290664,22.5727386 L5.97468622,22.5093954 L10.4299752,33.9432014 L9.08039359,34.0640631 C8.89527078,34.080809 8.73337907,34.195846 8.65424814,34.3647611 L6.94531052,38.0612354 C6.86617959,38.2301505 6.88432888,38.4281889 6.99177271,38.5810862 L9.32867594,41.9135194 C9.43611977,42.0664167 9.61616078,42.1501462 9.80128359,42.1334003 L13.8471244,41.7700872 C14.0329732,41.7533413 14.1955909,41.6383042 14.2732699,41.4693891 L15.9822075,37.7729148 C16.0613384,37.6032716 16.0431892,37.4059613 15.9357453,37.253064 L13.7636377,34.1550734 L22.7584283,23.0816682 L23.4517314,24.0725883 C23.5584493,24.2254856 23.7392162,24.3092151 23.924339,24.2924692 L27.3879505,23.9844903 C27.5723474,23.9677444 27.736417,23.8527074 27.814096,23.6837923 L28.2700063,22.6986968 L37.0520872,30.7753149 L36.3805632,32.1848824 C36.2992544,32.3530694 36.3144998,32.5518359 36.4204917,32.7061894 L38.3871493,35.5813868 C38.4924152,35.7357402 38.6724562,35.821654 38.8568531,35.8070923 L42.3240944,35.5369737 C42.5092172,35.5224121 42.6732868,35.4095593 42.7531437,35.2413723 L44.2530015,32.0953283 C44.3343103,31.9271412 44.3183389,31.7276466 44.212347,31.5740213 L42.2464154,28.6980958 C42.1411495,28.5444704 41.9611085,28.4592848 41.7767116,28.4738464 L40.8249626,28.5481108 L42.7074075,22.3331995 L44.6029199,22.1737494 C44.8025621,22.1570035 44.9796992,22.0346857 45.0646379,21.851937 L47.0037086,17.7222536 C47.0886473,17.539505 47.071224,17.3261768 46.9565205,17.160174 L46.9565205,17.160174 Z" id="Fill-27" fill="#A1A83A"></path>
                    <path d="M32.6839148,30.0261181 C31.4809795,29.4618542 30.052993,29.9860735 29.4925428,31.1910499 L25.6013339,39.5574447 L20.7460345,35.7714163 C19.8654307,35.0841065 18.59498,35.2435565 17.9089367,36.1274486 C17.2228933,37.0120687 17.3818812,38.2862129 18.2632109,38.9735227 L24.1856889,43.5917493 L24.1856889,53.998231 C24.1856889,55.3291656 25.2608531,56.4074557 26.5872036,56.4074557 C27.9142801,56.4074557 28.9894443,55.3291656 28.9894443,53.998231 L28.9894443,43.6696541 L33.8454697,33.2274964 C34.4066459,32.0217919 33.8868501,30.5881977 32.6839148,30.0261181" id="Fill-28" fill="#575F64"></path>
                </g>
            </g>
        </g>
    </g>
</svg>