<svg xmlns="http://www.w3.org/2000/svg" width="30" height="30" viewBox="0 0 30 30"><path fill="#ABB3BE" fill-rule="evenodd" d="M15 4.24c-.54 0-.978.437-.978.977V15c0 .54.438.978.978.978h9.13c.54 0 .98-.438.98-.978s-.44-.978-.98-.978h-8.152V5.217c0-.54-.438-.978-.978-.978m0-2.283c7.215 0 13.043 5.828 13.043 13.043 0 7.215-5.828 13.043-13.043 13.043-7.215 0-13.043-5.828-13.043-13.043C1.957 7.785 7.785 1.957 15 1.957M15 0C6.727 0 0 6.728 0 15c0 8.273 6.727 15 15 15s15-6.727 15-15S23.273 0 15 0"/></svg>
