<svg xmlns="http://www.w3.org/2000/svg" width="25" height="25" viewBox="0 0 25 25">
  <path fill="#ABB3BE" fill-rule="evenodd" d="M17.3885556,9.87105556 C17.3935556,9.98105556 17.3960556,10.0918889 17.3960556,10.203 C17.3960556,13.5918889 14.8166111,17.4993889 10.0993889,17.4993889 C8.65133333,17.4993889 7.30327778,17.0752222 6.16827778,16.3474444 C6.36883333,16.3713333 6.573,16.3832778 6.77994444,16.3832778 C7.98161111,16.3832778 9.08744444,15.9735556 9.96522222,15.2855 C8.843,15.2649444 7.89577778,14.5232778 7.56938889,13.5043889 C7.72605556,13.5346667 7.88661111,13.5505 8.05188889,13.5505 C8.28577778,13.5505 8.51244444,13.5191111 8.72772222,13.4605 C7.55438889,13.2249444 6.6705,12.1885556 6.6705,10.9457778 L6.6705,10.9138333 C7.01661111,11.1057778 7.41161111,11.2213333 7.83216667,11.2343889 C7.14383333,10.7746667 6.69133333,9.98966667 6.69133333,9.09994444 C6.69133333,8.62994444 6.818,8.18938889 7.03883333,7.8105 C8.30355556,9.36216667 10.1932778,10.3832778 12.3246667,10.4902222 C12.2807778,10.3024444 12.258,10.1066111 12.258,9.90577778 C12.258,8.48966667 13.4063333,7.34133333 14.8224444,7.34133333 C15.5602222,7.34133333 16.2266111,7.65272222 16.6943889,8.15105556 C17.2785556,8.03605556 17.8274444,7.82272222 18.323,7.52883333 C18.1313333,8.12772222 17.7249444,8.63022222 17.1955,8.94772222 C17.7141111,8.8855 18.2082778,8.74772222 18.6682778,8.54355556 C18.3246667,9.058 17.8899444,9.50966667 17.3885556,9.87105556 M12.4182778,0.0305 C5.59994444,0.0305 0.0724444444,5.558 0.0724444444,12.3763333 C0.0724444444,19.1946667 5.59994444,24.7221667 12.4182778,24.7221667 C19.2368889,24.7221667 24.7641111,19.1946667 24.7641111,12.3763333 C24.7641111,5.558 19.2368889,0.0305 12.4182778,0.0305" transform="translate(.083)"/>
</svg>
