<svg xmlns="http://www.w3.org/2000/svg" width="47" height="39" viewBox="0 0 47 39">
  <g fill="#ABB3BE" fill-rule="evenodd">
    <path d="M44.7619048,32.3109429 L2.23809524,32.3109429 C1.93483333,32.3109429 1.67857143,32.0541 1.67857143,31.7499 L1.67857143,27.8538 L45.3214286,27.8538 L45.3214286,31.7499 C45.3214286,32.0541 45.0651667,32.3109429 44.7619048,32.3109429 L44.7619048,32.3109429 Z M20.1428571,37.3168714 L26.8571429,37.3168714 L26.8571429,33.9946286 L20.1428571,33.9946286 L20.1428571,37.3168714 Z M2.23809524,1.68312857 L44.7619048,1.68312857 C45.0651667,1.68312857 45.3214286,1.93997143 45.3214286,2.24417143 L45.3214286,26.1701143 L1.67857143,26.1701143 L1.67857143,2.24417143 C1.67857143,1.93997143 1.93483333,1.68312857 2.23809524,1.68312857 L2.23809524,1.68312857 Z M44.7619048,0 L2.23809524,0 C1.00714286,0 0,1.0101 0,2.24417143 L0,31.7499 C0,32.9845286 1.00714286,33.9940714 2.23809524,33.9940714 L18.4642857,33.9940714 L18.4642857,37.3163143 L14.2678571,37.3163143 C13.8040119,37.3163143 13.4285714,37.6935 13.4285714,38.1581571 C13.4285714,38.6228143 13.8040119,39 14.2678571,39 L32.7673929,39 C33.2312381,39 33.6066786,38.6228143 33.6066786,38.1581571 C33.6066786,37.6935 33.2312381,37.3163143 32.7673929,37.3163143 L28.5357143,37.3163143 L28.5357143,33.9940714 L44.7619048,33.9940714 C45.9928571,33.9940714 47,32.9839714 47,31.7499 L47,2.24417143 C47,1.0101 45.9928571,0 44.7619048,0 L44.7619048,0 Z"/>
    <path d="M18.554369,17.589 C19.823369,16.3181571 21.5662857,15.5342571 23.5,15.5342571 C25.4337143,15.5342571 27.176631,16.3176 28.445631,17.589 C29.5255119,18.6732 30.2478571,20.1061714 30.4392143,21.7062857 L16.5613452,21.7062857 C16.7521429,20.1061714 17.4744881,18.6737571 18.554369,17.589 M21.0162738,7.75431429 C21.65525,7.11582857 22.5275476,6.72248571 23.5,6.72248571 C24.4724524,6.72248571 25.345869,7.11527143 25.9837262,7.75431429 C26.6210238,8.39391429 27.012131,9.26918571 27.0126905,10.2453 C27.012131,11.2203 26.6210238,12.0955714 25.9837262,12.7362857 C25.34475,13.3747714 24.4724524,13.7675571 23.5,13.7681143 C22.5275476,13.7675571 21.6546905,13.3753286 21.0168333,12.7362857 C20.3795357,12.0961286 19.9884286,11.2203 19.9873095,10.2453 C19.987869,9.26918571 20.3795357,8.39391429 21.0162738,7.75431429 M15.6666667,23.3894143 L31.3333333,23.3894143 C31.5549048,23.3894143 31.7703214,23.2997143 31.9269881,23.1431571 C32.0836548,22.9866 32.172619,22.7693143 32.172619,22.5481286 C32.1720595,18.8347714 29.8477976,15.6746571 26.5824167,14.4272143 C27.85925,13.4789571 28.6918214,11.9613 28.6918214,10.2453 C28.6912619,7.36988571 26.368119,5.03991429 23.5005595,5.03935714 C20.633,5.03991429 18.3104167,7.36988571 18.3092976,10.2453 C18.3098571,11.9613 19.1413095,13.4789571 20.4192619,14.4272143 C17.1533214,15.6746571 14.8290595,18.8347714 14.8285,22.5481286 C14.8285,22.7693143 14.9180238,22.9866 15.074131,23.1431571 C15.2302381,23.2997143 15.4450952,23.3894143 15.6666667,23.3894143"/>
  </g>
</svg>
