<svg id="flight" xmlns="http://www.w3.org/2000/svg" viewBox="0 0 100 100"><path id="bow" fill="#C1CE20" d="M36.6 69.2l-12 2-8.1-9.1-5 13.9 4.3-.5c.7-.1 1.2-.7 1.2-1.5-.1-.7-.7-1.2-1.5-1.2h-.1l2-5.7 4.4 4.9-2.2.3c-.7.1-1.2.8-1.1 1.5.1.7.8 1.2 1.5 1.1l3.3-.5 8.4 8.5 4.9-13.7zm-10.5 4.4l6.5-1.1-2 5.7-4.5-4.6z"/><g id="body" fill="#C1CE20"><path id="frame" d="M24.5 71.2l40.5-28-16.3-31.7L15 22.9l3.7 18.9c.1.7.8 1.2 1.6 1 .7-.1 1.2-.8 1-1.6L18 24.6l27.7-9.4-6.6 16.4L23 25.2c-.7-.3-1.4.1-1.7.7-.3.7.1 1.4.7 1.7L38.1 34 25.9 64.3 23 49.6c-.1-.7-.8-1.2-1.6-1-.7.1-1.2.8-1 1.6l3.8 19.1.3 1.9zm23.7-54.9l12.3 23.9-18.9-7.6 6.6-16.3zm12.3 26.8L28.3 65.3l12.3-30.2 19.9 8z"/><path id="dot" d="M21 46.8c.1 0 .2 0 .2-.1.1 0 .2-.1.2-.1.1 0 .1-.1.2-.2l.2-.2c0-.1.1-.1.1-.2s.1-.2.1-.2v-.3-.3c0-.1 0-.2-.1-.2 0-.1-.1-.2-.1-.2 0-.1-.1-.1-.2-.2l-.2-.2c-.1 0-.1-.1-.2-.1s-.2-.1-.2-.1c-.4-.1-.9.1-1.2.4l-.2.2c0 .1-.1.1-.1.2s-.1.2-.1.2v.6c0 .1 0 .2.1.2 0 .1.1.2.1.2 0 .1.1.1.2.2.2.2.6.4.9.4h.3z"/></g><path id="tail" fill="#C1CE20" d="M41.4 99h-.9c-.7 0-1.3-.6-1.3-1.4 0-.7.6-1.3 1.4-1.3.9 0 1.9 0 2.8-.1.7-.1 1.4.4 1.5 1.2.1.7-.4 1.4-1.2 1.5-.7.1-1.5.1-2.3.1zm-4.8-.6h-.3c-1-.3-2.1-.6-3.1-1-.7-.3-1-1-.7-1.7.3-.7 1-1 1.7-.7.9.4 1.8.7 2.7.9.7.2 1.1.9 1 1.6-.2.5-.7.9-1.3.9zm11-.4c-.6 0-1.1-.4-1.3-.9-.2-.7.2-1.4.9-1.7.9-.3 1.8-.6 2.7-1.1.7-.3 1.5 0 1.8.6.3.7 0 1.5-.6 1.8-1 .5-2 .9-3 1.2-.2.1-.3.1-.5.1zm19.6-2.1c-1.1 0-2.2-.1-3.2-.3-.7-.1-1.2-.8-1.1-1.5.1-.7.8-1.2 1.5-1.1 1 .1 1.9.2 2.9.2.7 0 1.3.6 1.3 1.3 0 .8-.6 1.4-1.4 1.4zM30 95.6c-.2 0-.5-.1-.7-.2-.9-.6-1.8-1.2-2.6-2-.5-.5-.6-1.3-.1-1.9.5-.5 1.3-.6 1.9-.1.7.6 1.5 1.2 2.3 1.7.6.4.8 1.2.4 1.8-.3.5-.7.7-1.2.7zm41.3-.1c-.6 0-1.2-.4-1.3-1.1-.1-.7.3-1.4 1-1.6.9-.2 1.8-.5 2.7-.8.7-.3 1.4.1 1.7.7.3.7-.1 1.4-.7 1.7-1 .4-2.1.7-3.1.9-.1.2-.2.2-.3.2zM54 94.8c-.4 0-.8-.2-1.1-.6-.4-.6-.3-1.4.3-1.8.8-.5 1.5-1.2 2.3-1.8.5-.5 1.4-.4 1.9.1 0 0 .1.1.1.2.2 0 .4.1.6.1.8.4 1.7.8 2.6 1.1.7.2 1.1 1 .8 1.7-.2.7-1 1.1-1.7.8-1-.4-2-.8-3-1.3-.1-.1-.2-.1-.3-.2-.6.5-1.2 1-1.8 1.4-.2.2-.5.3-.7.3zm23.8-2.1c-.4 0-.8-.2-1.1-.6-.4-.6-.3-1.4.3-1.8.8-.5 1.5-1.2 2.2-1.8.5-.5 1.4-.5 1.9 0s.5 1.4 0 1.9c-.8.8-1.6 1.5-2.5 2.1-.3.2-.5.2-.8.2zM54 91.3c-.3 0-.6-.1-.8-.3-.9-.8-1.7-1.6-2.3-2.4-.4-.6-.3-1.4.3-1.8.6-.4 1.4-.3 1.8.3.5.7 1.1 1.3 1.9 2 .6.5.6 1.3.2 1.9-.3.1-.7.3-1.1.3zm-29.1-.5c-.4 0-.8-.2-1.1-.6-.6-.9-1.2-1.9-1.6-2.9-.3-.7 0-1.5.7-1.8.7-.3 1.5 0 1.8.7.4.9.9 1.7 1.4 2.4.4.6.3 1.4-.3 1.8-.4.3-.6.4-.9.4zm34.3-.8c-.3 0-.6-.1-.9-.3-.6-.5-.6-1.3-.1-1.9.6-.7 1.2-1.5 1.8-2.3.4-.6 1.3-.7 1.8-.3.6.4.7 1.3.3 1.8-.6.9-1.3 1.7-2 2.5-.1.4-.5.5-.9.5zm23.4-2.4c-.2 0-.4-.1-.6-.2-.6-.3-.9-1.2-.5-1.8.4-.8.7-1.6.8-2.5.1-.7.8-1.2 1.5-1.1.7.1 1.2.8 1.1 1.5-.2 1.1-.6 2.3-1.1 3.3-.3.5-.7.8-1.2.8zM50 85.5c-.5 0-1-.3-1.2-.8-.4-1-.8-2.1-1-3.1-.2-.7.3-1.4 1-1.6.7-.2 1.4.3 1.6 1 .2.9.5 1.8.9 2.7.3.7 0 1.5-.7 1.7-.3.1-.5.1-.6.1zm-27.9-1.2c-.6 0-1.2-.4-1.3-1.1-.3-1.4-.3-2.5-.3-3v-.3c0-.7.7-1.3 1.4-1.2.7 0 1.3.7 1.2 1.4v.2c0 .3 0 1.3.3 2.5.1.7-.3 1.4-1 1.6-.1-.2-.2-.1-.3-.1zm41.2-.1c-.2 0-.4 0-.6-.1-.7-.3-.9-1.1-.6-1.8.4-.8.7-1.7 1-2.6.2-.7.9-1.1 1.6-1 .7.2 1.1.9 1 1.6-.3 1.1-.7 2.1-1.2 3.2-.3.4-.7.7-1.2.7zm20.1-3.6c-.6 0-1.2-.4-1.3-1-.2-.8-.4-1.7-.8-2.7-.3-.7.1-1.4.8-1.7.7-.3 1.4.1 1.7.8.4 1.1.7 2.2.9 3.1.2.7-.3 1.4-1 1.6-.1-.1-.2-.1-.3-.1zm-34.9-2c-.8 0-1.3-.6-1.3-1.3 0-1.2.2-2.4.6-3.4.2-.7 1-1.1 1.7-.8.7.2 1.1 1 .8 1.7-.3.8-.4 1.6-.4 2.6-.1.6-.7 1.2-1.4 1.2zm16.1-1.3c-.7 0-1.2-.5-1.3-1.2-.1-.9-.4-1.7-.7-2.5-.3-.7-.1-1.4.6-1.8.7-.3 1.4-.1 1.8.6.5 1 .9 2.1 1 3.3.1.7-.4 1.4-1.1 1.5-.2.1-.2.1-.3.1zM81 73.9c-.5 0-1-.3-1.2-.8-.4-.9-.8-1.9-1.2-2.9-.3-.7.1-1.4.8-1.7.7-.3 1.4.1 1.7.8.4 1 .8 1.9 1.1 2.8.3.7 0 1.5-.7 1.7-.2.1-.4.1-.5.1zm-29.6-1.6c-.4 0-.8-.2-1.1-.5-.4-.6-.3-1.4.3-1.9.7-.5 1.5-1 2.5-1.3.2-.1.5-.2.7-.2.7-.2 1.4.2 1.7.9.2.7-.2 1.4-.9 1.7-.2.1-.4.1-.6.2-.7.2-1.3.6-1.8.9-.3.1-.6.2-.8.2zm9.6-.9c-.2 0-.5-.1-.7-.2-.7-.4-1.5-.7-2.4-.7-.7-.1-1.3-.7-1.2-1.4.1-.7.7-1.3 1.4-1.2 1.2.1 2.4.5 3.4 1.1.6.4.8 1.2.5 1.8-.1.4-.6.6-1 .6zm17.7-4.2c-.6 0-1.2-.5-1.3-1.1-.1-.7-.2-1.4-.2-2.1 0-.4 0-.9.1-1.3.1-.7.7-1.3 1.5-1.2.7.1 1.3.7 1.2 1.5 0 .3-.1.7-.1 1 0 .5 0 1.1.1 1.7.1.7-.4 1.4-1.1 1.5h-.2zm1.2-6.9c-.2 0-.4-.1-.6-.2-.6-.4-.9-1.2-.5-1.8.5-.9 1.2-1.8 2-2.7.5-.5 1.3-.6 1.9-.1.5.5.6 1.3.1 1.9-.7.7-1.2 1.5-1.6 2.2-.4.5-.9.7-1.3.7zm4.8-5.2c-.4 0-.8-.2-1.1-.5-.4-.6-.3-1.4.3-1.9.8-.6 1.7-1.2 2.6-1.8.6-.4 1.4-.2 1.8.4s.2 1.4-.4 1.8c-.9.5-1.7 1.1-2.4 1.6-.2.3-.5.4-.8.4z"/></svg>