<svg id="membership_1_" xmlns="http://www.w3.org/2000/svg" viewBox="0 0 100 100"><path id="left-line" fill="#C1CE20" d="M22.3 59.6c-.2 0-.5-.1-.7-.2-.6-.4-.8-1.2-.4-1.8l11.1-17.5c.4-.6 1.2-.8 1.8-.4.6.4.8 1.2.4 1.8L23.4 59c-.2.4-.6.6-1.1.6z"/><path id="right-line" fill="#C1CE20" d="M77.7 59.6c-.4 0-.8-.2-1.1-.6L64.9 42.2c-.4-.6-.3-1.4.3-1.8.6-.4 1.4-.3 1.8.3l11.8 16.9c.4.6.3 1.4-.3 1.8-.3.1-.5.2-.8.2z"/><path id="center-line" fill="#C1CE20" d="M49.7 72.1c-.7 0-1.3-.6-1.3-1.3V48.2c0-.7.6-1.3 1.3-1.3s1.3.6 1.3 1.3v22.6c0 .7-.6 1.3-1.3 1.3z"/><path d="M49.7 24.9c-4.8 0-8.7-3.9-8.7-8.7s3.9-8.7 8.7-8.7 8.7 3.9 8.7 8.7-3.9 8.7-8.7 8.7zm0-14.9c-3.4 0-6.2 2.8-6.2 6.2s2.8 6.2 6.2 6.2 6.2-2.8 6.2-6.2-2.8-6.2-6.2-6.2zM36.4 43.9c-.7 0-1.3-.6-1.3-1.3v-8.3c0-5 4.6-9.1 10.3-9.1h8.5c5.7 0 10.3 4.1 10.3 9.1v8.3c0 .7-.6 1.3-1.3 1.3s-1.3-.6-1.3-1.3v-8.3c0-3.6-3.5-6.5-7.7-6.5h-8.5c-4.3 0-7.7 2.9-7.7 6.5v8.3c0 .7-.6 1.3-1.3 1.3z" id="top-member" fill="#C1CE20"/><path id="center-globe" fill="#C1CE20" d="M49.7 98.6c-8 0-14.5-6.5-14.5-14.5s6.5-14.5 14.5-14.5 14.5 6.5 14.5 14.5c0 7.9-6.5 14.5-14.5 14.5zm0-26.5c-6.6 0-11.9 5.4-11.9 11.9 0 6.6 5.4 11.9 11.9 11.9S61.6 90.6 61.6 84c0-6.5-5.3-11.9-11.9-11.9z"/><path id="left-globe" fill="#C1CE20" d="M16 86.1c-6.4 0-12.1-4.3-13.9-10.4-.2-.7.2-1.4.9-1.6s1.4.2 1.6.9c1.5 5 6.2 8.6 11.5 8.6 6.6 0 11.9-5.4 11.9-11.9 0-6.6-5.4-11.9-11.9-11.9-5.8 0-10.8 4.1-11.8 9.8-.1.7-.8 1.2-1.5 1-.7-.1-1.2-.8-1-1.5 1.2-6.9 7.2-12 14.3-12 8 0 14.5 6.5 14.5 14.5-.1 8-6.6 14.5-14.6 14.5z"/><path d="M15.9 73.5c-2.7 0-4.9-2.2-4.9-4.9s2.2-4.9 4.9-4.9 4.9 2.2 4.9 4.9-2.2 4.9-4.9 4.9zm0-7.3c-1.3 0-2.3 1.1-2.3 2.3 0 1.3 1.1 2.3 2.3 2.3 1.3 0 2.3-1.1 2.3-2.3 0-1.2-1-2.3-2.3-2.3zM9.4 83.6c-.7 0-1.3-.6-1.3-1.3v-3.6c0-2.8 2.5-5.1 5.7-5.1H18c3.1 0 5.7 2.3 5.7 5.1v3.5c0 .7-.6 1.3-1.3 1.3s-1.3-.6-1.3-1.3v-3.5c0-1.4-1.4-2.5-3.1-2.5h-4.1c-1.7 0-3.1 1.2-3.1 2.5v3.6c-.1.7-.7 1.3-1.4 1.3z" id="left-member" fill="#C1CE20"/><path d="M49.7 86.3c-2.7 0-4.9-2.2-4.9-4.9s2.2-4.9 4.9-4.9 4.9 2.2 4.9 4.9-2.2 4.9-4.9 4.9zm0-7.2c-1.3 0-2.3 1.1-2.3 2.3s1.1 2.3 2.3 2.3c1.3 0 2.3-1.1 2.3-2.3s-1-2.3-2.3-2.3zm-6.5 17.3c-.7 0-1.3-.6-1.3-1.3v-3.6c0-2.8 2.5-5.1 5.7-5.1h4.1c3.1 0 5.7 2.3 5.7 5.1V95c0 .7-.6 1.3-1.3 1.3s-1.3-.6-1.3-1.3v-3.5c0-1.4-1.4-2.5-3.1-2.5h-4.1c-1.7 0-3.1 1.2-3.1 2.5v3.6c0 .7-.6 1.3-1.3 1.3z" id="center-member" fill="#C1CE20"/><path d="M84.2 74c-2.7 0-4.9-2.2-4.9-4.9s2.2-4.9 4.9-4.9 4.9 2.2 4.9 4.9-2.2 4.9-4.9 4.9zm0-7.3c-1.3 0-2.3 1.1-2.3 2.3 0 1.3 1.1 2.3 2.3 2.3s2.3-1.1 2.3-2.3c0-1.2-1-2.3-2.3-2.3zm-6.5 17.4c-.7 0-1.3-.6-1.3-1.3v-3.6c0-2.8 2.5-5.1 5.7-5.1h4.1c3.1 0 5.7 2.3 5.7 5.1v3.5c0 .7-.6 1.3-1.3 1.3s-1.3-.6-1.3-1.3v-3.5c0-1.4-1.4-2.5-3.1-2.5h-4.1c-1.7 0-3.1 1.2-3.1 2.5v3.6c0 .7-.6 1.3-1.3 1.3z" id="right-member" fill="#C1CE20"/><path id="right-globe" fill="#C1CE20" d="M83.8 86.1c-8 0-14.5-6.5-14.5-14.5s6.5-14.5 14.5-14.5 14.5 6.5 14.5 14.5-6.5 14.5-14.5 14.5zm0-26.4c-6.6 0-11.9 5.4-11.9 11.9 0 6.6 5.4 11.9 11.9 11.9 6.6 0 11.9-5.4 11.9-11.9 0-6.6-5.3-11.9-11.9-11.9z"/><g id="big-circle" fill="#C1CE20"><path id="top-globe" d="M49.7 48.9C36.6 48.9 26 38.2 26 25.1S36.6 1.4 49.7 1.4c12 0 22.1 9 23.5 20.9.1.7-.4 1.3-1.1 1.4s-1.3-.4-1.4-1.1C69.4 12 60.4 4 49.7 4 38 4 28.6 13.5 28.6 25.1S38 46.3 49.7 46.3c4.7 0 9.1-1.5 12.8-4.3 3.6-2.7 6.2-6.6 7.5-10.9.2-.7.9-1.1 1.6-.9s1.1.9.9 1.6C71 36.6 68.1 41 64 44c-4.1 3.2-9.1 4.9-14.3 4.9z"/><circle id="dot" cx="72" cy="26.9" r="1.3"/></g></svg>