<svg id="flag" xmlns="http://www.w3.org/2000/svg" viewBox="0 0 100 100"><path id="flagpole" fill="#C1CE20" d="M56.1 31.9l5-7H38.6v-1.3c1.6-.5 2.7-2 2.7-3.8 0-2.2-1.8-4-4-4s-4 1.8-4 4c0 1.7 1.1 3.2 2.7 3.8v30.2c0 .7.6 1.3 1.3 1.3.7 0 1.3-.6 1.3-1.3V38.9h22.5l-5-7zM37.4 18.5c.8 0 1.4.6 1.4 1.4 0 .6-.4 1.2-1 1.4-.1 0-.3-.1-.4-.1-.1 0-.3 0-.4.1-.6-.2-1-.7-1-1.4 0-.8.6-1.4 1.4-1.4zm1.3 9h17.5L53 31.9l3.2 4.4H38.7v-8.8z"/><g id="mountains"><path id="dot" fill="#C1CE20" d="M11 84h-.3s-.2 0-.2-.1c-.1 0-.2-.1-.2-.1-.1 0-.1-.1-.2-.2-.2-.2-.4-.6-.4-.9v-.3c0-.1 0-.2.1-.2 0-.1.1-.2.1-.2 0-.1.1-.1.2-.2l.2-.2c.1 0 .1-.1.2-.1s.2-.1.2-.1h.5c.1 0 .2 0 .2.1.1 0 .2.1.2.1.1 0 .1.1.2.2l.2.2c0 .1.1.1.1.2s.1.2.1.2v.3c0 .3-.1.7-.4.9-.2.3-.5.4-.8.4z"/><path id="left-hill" fill="#C1CE20" d="M2.5 99c-.2 0-.4-.1-.6-.2-.6-.3-.8-1.1-.5-1.8l6.3-11.4c.3-.6 1.1-.8 1.8-.5.6.3.8 1.1.5 1.8L3.7 98.4c-.3.4-.7.6-1.2.6z"/><path id="small-snow" fill="#FFF" d="M68.9 68.9l4 5.1 4.2-5.1-3.8-5.7z"/><path id="big-snow" fill="#FFF" d="M27.3 58.2l4.2 5.6 5.7-7.5 5.8 7.4 4.1-6-9.7-15.8z"/><path id="peaks" fill="#C1CE20" d="M98.5 97l-25-38.3-12.7 16.5L37.4 37 11.8 78.3c-.4.6-.2 1.4.4 1.8.6.4 1.4.2 1.8-.4l11.9-19.1 5.7 7.5 5.7-7.6 5.9 7.5 5.4-7.9L72 98.4c.2.4.7.6 1.1.6.2 0 .5-.1.7-.2.6-.4.8-1.2.4-1.8l-12-19.6.2-.2 4.8-6.3 5.5 7.1 5.8-6.9 17.8 27.2c.2.4.7.6 1.1.6.2 0 .5-.1.7-.2.7-.3.8-1.1.4-1.7zM43 63.7l-5.8-7.4-5.7 7.6-4.3-5.6L37.3 42 47 57.8l-4 5.9zM72.9 74l-4-5.1 4.5-5.8 3.8 5.8-4.3 5.1z"/></g><path id="cloud" fill="#C1CE20" d="M87.8 25H71.4c-2.9 0-5.2-2.4-5.2-5.2s2.3-5.2 5.1-5.2c1-2.8 3.6-4.7 6.7-4.7 3.6 0 6.6 2.7 7.1 6.3 1.8.2 3.4 1.5 3.8 3.3 1.1.4 1.9 1.5 1.9 2.7-.1 1.5-1.4 2.8-3 2.8zm-16.4-7.9c-1.5 0-2.7 1.2-2.7 2.7s1.2 2.7 2.7 2.7h16.4c.2 0 .3-.2.3-.3 0-.2-.2-.4-.4-.3l-1.4.1v-1.4c0-1-.9-1.9-1.9-1.9-.2 0-.3 0-.5.1l-1.8.4.2-1.8V17c0-2.5-2-4.5-4.5-4.5-2.2 0-4.1 1.6-4.5 3.7l-.2 1.3-1.3-.3c-.1 0-.2-.1-.4-.1z"/></svg>