<svg id="Media" xmlns="http://www.w3.org/2000/svg" viewBox="0 0 500 500"><g id="dollar-sign" fill="#C1CE20"><path id="big-s" d="M276.1 404.3h-49.6V385c0-3.6 2.9-6.5 6.5-6.5s6.5 2.9 6.5 6.5v6.3h23.6v-33.9l5.9-.5c23.6-2.2 43.2-9.4 56.6-21 13.6-11.8 20.5-27.4 20.5-46.4 0-3.6 2.9-6.5 6.5-6.5s6.5 2.9 6.5 6.5c0 22.6-8.7 42.1-25 56.2-14.3 12.3-34.3 20.4-58 23.5v35.1zM233 369.5h-.7c-35.7-3.6-70.6-16.5-98.1-36.4l-5.1-3.7L168 272l5.4 3.6c20.2 13.7 38 22.3 55.3 26.6v-29.4c-30-7.4-49.6-16.1-63.2-28.2-2.7-2.4-2.9-6.5-.6-9.2 2.4-2.7 6.5-2.9 9.2-.6 12.5 11 32.3 19.4 62.5 26.4l5 1.2V318l-7.6-1.4c-20-3.5-40-12-62.5-26.6L147 326.1c24.9 16.5 55.4 27.2 86.6 30.4 3.6.4 6.2 3.5 5.8 7.1-.3 3.4-3.1 5.9-6.4 5.9zm28.7-50.4v-54.3l8.2 2.2c10.3 2.8 16.8 5.8 21.3 9.7 4.8 4.3 7.1 9.7 7.1 16.6v.7c0 19-18.5 23.5-29.5 24.4l-7.1.7zm13-36.9v22.2c10.6-2.6 10.6-8.1 10.6-10.4v-.7c-.1-3.3 0-7.1-10.6-11.1zm62.8-30.6c-1.8 0-3.5-.7-4.8-2.2-11.9-13.2-32.7-22.8-65.6-30.3L262 218v-55.3l8 2c15.1 3.7 30.3 10.2 43.6 18.6l22-36.2c-20.3-12.3-42-19.8-66.1-22.7l-5.7-.7v-20.4h-23.6v19.9l-6 .4c-48.9 3.5-78 28.6-78 67v.7c0 1.8.1 3.6.2 5.2 0 .6.1 1.1.1 1.7l.1.6c.3 3.6-2.3 6.7-5.9 7.1-3.6.3-6.7-2.3-7.1-5.9l-.1-.6v-.1c-.1-.7-.1-1.3-.1-2-.1-2-.2-4-.2-6v-.7c0-22.3 8.4-41.5 24.2-55.6 14.5-12.9 35.2-21.1 59.9-23.9v-21h49.6V112c25.9 3.9 49.3 12.9 71.3 27.3l5.3 3.4-35.7 58.8-5.7-4c-10.9-7.7-23.8-14.1-36.9-18.2v28.1c33.2 8.1 54 18.3 67.3 33.1 2.4 2.7 2.2 6.8-.5 9.2-1.4 1.3-3 1.9-4.5 1.9zM242 214.7l-8.2-2.3c-17.7-4.9-28.7-11-28.7-26.3v-.7c0-6.6 2.9-22.1 30-23.7l6.9-.4v53.4zm-13-39.2c-7.3 1.5-10.9 4.9-10.9 9.9v.7c0 3.6 0 7.1 10.9 11.2v-21.8z"/><circle id="right-dot" cx="156" cy="221" r="6.5"/><circle id="left-dot" cx="348" cy="266" r="6.5"/></g><g id="solids" fill="#FFF"><path id="twelve-bg" d="M240.6 8.3h16.7v57.6h-16.7z"/><path id="eleven-bg" d="M120.6 46.125l14.074-8.99 31.006 48.54-14.073 8.99z"/><path id="ten-bg" d="M37.09 136.23l8.35-14.46 49.88 28.8-8.35 14.46z"/><path id="nine-bg" d="M66.613 240.903v16.7h-57.6v-16.7z"/><path id="eight-bg" d="M85.944 332.622l8.99 14.073-48.54 31.006-8.99-14.07z"/><path id="seven-bg" d="M150.83 403.554l14.462 8.35-28.8 49.882-14.463-8.35z"/><path id="six-bg" d="M240.6 432.3h16.7v57.6h-16.7z"/><path id="five-bg" d="M332.373 412.91l14.073-8.99 31.006 48.54-14.073 8.99z"/><path id="four-bg" d="M404.443 346.043l9.352-13.835 47.72 32.256-9.35 13.836z"/><path id="three-bg" d="M490.166 240.95v16.7h-57.6v-16.7z"/><path id="two-bg_1_" d="M452.69 120.788l8.988 14.073-48.54 31.01-8.99-14.075z"/><path id="one-bg_1_" d="M362.612 36.772l14.462 8.35-28.8 49.882-14.462-8.35z"/></g><g id="open-ovals" fill="#C1CE20"><path id="twelve-disk" d="M251.7 73.7h-4.3c-8.5 0-15.5-6.9-15.5-15.5V16.8c0-8.5 6.9-15.5 15.5-15.5h4.3c8.5 0 15.5 6.9 15.5 15.5v41.4c0 8.6-6.9 15.5-15.5 15.5zm-4.3-59.4c-1.4 0-2.5 1.1-2.5 2.5v41.4c0 1.4 1.1 2.5 2.5 2.5h4.3c1.4 0 2.5-1.1 2.5-2.5V16.8c0-1.4-1.1-2.5-2.5-2.5h-4.3z"/><path id="eleven-disk" d="M152.2 100.4c-5.4 0-10.6-2.8-13.4-7.7l-20.7-35.8c-2.1-3.6-2.6-7.8-1.5-11.8 1.1-4 3.6-7.3 7.2-9.4l3.7-2.2c3.6-2.1 7.8-2.6 11.8-1.5 4 1.1 7.3 3.6 9.4 7.2L169.3 75c2.1 3.6 2.6 7.8 1.5 11.8-1.1 4-3.6 7.3-7.2 9.4l-3.7 2.2c-2.4 1.3-5.1 2-7.7 2zm-17-56c-.4 0-.8.1-1.2.3l-3.7 2.2c-.8.4-1.1 1.1-1.2 1.5-.1.4-.2 1.1.2 1.9L150 86.1c.4.8 1.1 1.1 1.5 1.2.4.1 1.1.2 1.9-.2l3.7-2.2c.8-.4 1.1-1.1 1.2-1.5s.2-1.1-.2-1.9l-20.7-35.8c-.4-.8-1.1-1.1-1.5-1.2-.2 0-.4-.1-.7-.1z"/><path id="ten-disk" d="M83 171.1c-2.6 0-5.3-.7-7.7-2.1l-35.8-20.7c-7.4-4.3-9.9-13.8-5.7-21.2l2.2-3.7c4.3-7.4 13.8-9.9 21.2-5.7L93 138.4c3.6 2.1 6.1 5.4 7.2 9.4 1.1 4 .5 8.2-1.5 11.8l-2.2 3.7c-2.9 5-8.1 7.8-13.5 7.8zm-33.7-42.4c-.9 0-1.7.4-2.2 1.2l-2.2 3.7c-.7 1.2-.3 2.7.9 3.4l35.8 20.7c1.2.7 2.7.3 3.4-.9l2.2-3.7c.4-.8.3-1.5.2-1.9s-.4-1.1-1.2-1.5L50.6 129c-.4-.2-.8-.3-1.3-.3z"/><path id="nine-disk" d="M58.5 267H17.1c-8.5 0-15.5-6.9-15.5-15.5v-4.3c0-8.5 6.9-15.5 15.5-15.5h41.4c8.5 0 15.5 6.9 15.5 15.5v4.3c0 8.5-7 15.5-15.5 15.5zm-41.4-22.3c-1.4 0-2.5 1.1-2.5 2.5v4.3c0 1.4 1.1 2.5 2.5 2.5h41.4c1.4 0 2.5-1.1 2.5-2.5v-4.3c0-1.4-1.1-2.5-2.5-2.5H17.1z"/><path id="eight-disk" d="M49.4 382.9c-5.4 0-10.6-2.8-13.4-7.7l-2.2-3.7c-4.3-7.4-1.7-16.9 5.7-21.2l35.8-20.7c7.4-4.3 16.9-1.7 21.2 5.7l2.2 3.7c2.1 3.6 2.6 7.8 1.5 11.8-1.1 4-3.6 7.3-7.2 9.4l-35.8 20.7c-2.6 1.3-5.2 2-7.8 2zM83 340.5c-.4 0-.9.1-1.2.3L46 361.5c-1.2.7-1.6 2.2-.9 3.4l2.2 3.7c.4.8 1.1 1.1 1.5 1.2.4.1 1.1.2 1.9-.2l35.8-20.7c.8-.4 1.1-1.1 1.2-1.5.1-.4.2-1.1-.2-1.9l-2.2-3.7c-.6-.9-1.4-1.3-2.3-1.3z"/><path id="seven-disk" d="M135.2 467.2c-2.7 0-5.3-.7-7.7-2.1l-3.7-2.2c-3.6-2.1-6.1-5.4-7.2-9.4-1.1-4-.5-8.2 1.5-11.8l20.7-35.8c4.3-7.4 13.8-9.9 21.2-5.7l3.7 2.2c3.6 2.1 6.1 5.4 7.2 9.4 1.1 4 .5 8.2-1.5 11.8l-20.7 35.8c-2.1 3.6-5.4 6.1-9.4 7.2-1.4.4-2.8.6-4.1.6zm17-56c-.3 0-.5 0-.7.1-.4.1-1.1.4-1.5 1.2l-20.7 35.8c-.4.8-.3 1.5-.2 1.9.1.4.4 1.1 1.2 1.5l3.7 2.2c.8.4 1.5.3 1.9.2.4-.1 1.1-.4 1.5-1.2l20.7-35.8c.4-.8.3-1.5.2-1.9s-.4-1.1-1.2-1.5l-3.7-2.2c-.4-.2-.9-.3-1.2-.3z"/><path id="six-disk" d="M251.7 497.3h-4.3c-8.5 0-15.5-6.9-15.5-15.5v-41.4c0-8.5 6.9-15.5 15.5-15.5h4.3c8.5 0 15.5 6.9 15.5 15.5v41.4c0 8.5-6.9 15.5-15.5 15.5zm-4.3-59.4c-1.4 0-2.5 1.1-2.5 2.5v41.4c0 1.4 1.1 2.5 2.5 2.5h4.3c1.4 0 2.5-1.1 2.5-2.5v-41.4c0-1.4-1.1-2.5-2.5-2.5h-4.3z"/><path id="five-disk" d="M364 467.2c-1.3 0-2.7-.2-4-.5-4-1.1-7.3-3.6-9.4-7.2l-20.7-35.8c-2.1-3.6-2.6-7.8-1.5-11.8 1.1-4 3.6-7.3 7.2-9.4l3.7-2.2c7.4-4.3 16.9-1.7 21.2 5.7l20.7 35.8c2.1 3.6 2.6 7.8 1.5 11.8-1.1 4-3.6 7.3-7.2 9.4l-3.7 2.2c-2.5 1.3-5.1 2-7.8 2zm-17-56c-.4 0-.9.1-1.2.3l-3.7 2.2c-.8.4-1.1 1.1-1.2 1.5-.1.4-.2 1.1.2 1.9l20.7 35.8c.4.8 1.1 1.1 1.5 1.2.4.1 1.1.2 1.9-.2l3.7-2.2c.8-.4 1.1-1.1 1.2-1.5s.2-1.1-.2-1.9l-20.7-35.8c-.5-.8-1.4-1.3-2.2-1.3zm-8.2-3.1z"/><path id="four-disk" d="M449.8 382.9c-2.6 0-5.3-.7-7.7-2.1l-35.8-20.7c-3.6-2.1-6.1-5.4-7.2-9.4-1.1-4-.5-8.2 1.5-11.8l2.2-3.7c4.3-7.4 13.8-9.9 21.2-5.7l35.8 20.7c7.4 4.3 9.9 13.8 5.7 21.2l-2.2 3.7c-2.9 5-8.1 7.8-13.5 7.8zm-33.7-42.4c-.9 0-1.7.4-2.2 1.2l-2.2 3.7c-.4.8-.3 1.5-.2 1.9s.4 1.1 1.2 1.5l35.8 20.7c.8.4 1.5.3 1.9.2.4-.1 1.1-.4 1.5-1.2l2.2-3.7c.7-1.2.3-2.7-.9-3.4l-35.8-20.7c-.4-.1-.8-.2-1.3-.2zm-9.9 1.7z"/><path id="three-disk" d="M482.1 267h-41.4c-8.5 0-15.5-6.9-15.5-15.5v-4.3c0-8.5 6.9-15.5 15.5-15.5h41.4c8.5 0 15.5 6.9 15.5 15.5v4.3c-.1 8.5-7 15.5-15.5 15.5zm-41.4-22.3c-1.4 0-2.5 1.1-2.5 2.5v4.3c0 1.4 1.1 2.5 2.5 2.5h41.4c1.4 0 2.5-1.1 2.5-2.5v-4.3c0-1.4-1.1-2.5-2.5-2.5h-41.4z"/><path id="two-disk" d="M416.2 171.1c-5.4 0-10.6-2.8-13.4-7.7l-2.2-3.7c-2.1-3.6-2.6-7.8-1.5-11.8 1.1-4 3.6-7.3 7.2-9.4l35.8-20.7c7.4-4.3 16.9-1.7 21.2 5.7l2.2 3.7c4.3 7.4 1.7 16.9-5.7 21.2L423.9 169c-2.4 1.5-5.1 2.1-7.7 2.1zm-2.2-14.2c.7 1.2 2.2 1.6 3.4.9l35.8-20.7c1.2-.7 1.6-2.2.9-3.4L452 130c-.7-1.2-2.2-1.6-3.4-.9l-35.8 20.7c-.8.4-1.1 1.1-1.2 1.5-.1.4-.2 1.1.2 1.9l2.2 3.7z"/><path id="one--disk" d="M347 100.4c-2.6 0-5.3-.7-7.7-2.1l-3.7-2.2c-3.6-2.1-6.1-5.4-7.2-9.4-1.1-4-.5-8.2 1.5-11.8l20.7-35.8c2.1-3.6 5.4-6.1 9.4-7.2 4-1.1 8.2-.5 11.8 1.5l3.7 2.2c3.6 2.1 6.1 5.4 7.2 9.4 1.1 4 .5 8.2-1.5 11.8l-20.7 35.8c-3 5-8.2 7.8-13.5 7.8zm-1.3-13.3c1.2.7 2.7.3 3.4-.9l20.7-35.8c.4-.8.3-1.5.2-1.9s-.4-1.1-1.2-1.5l-3.7-2.2c-.8-.4-1.5-.3-1.9-.2-.4.1-1.1.4-1.5 1.2L341 81.6c-.4.8-.3 1.5-.2 1.9.1.4.4 1.1 1.2 1.5l3.7 2.1z"/></g></svg>