<svg id="robot" xmlns="http://www.w3.org/2000/svg" viewBox="0 0 100 100"><g id="power-group" fill="#C1CE20"><path id="left-electrode" d="M32.8 24.1c0-4.3-3.5-7.8-7.8-7.8s-7.8 3.5-7.8 7.8c0 3.8 2.8 7.1 6.5 7.7v24.8c0 .7.6 1.3 1.3 1.3.7 0 1.3-.6 1.3-1.3V31.8c3.7-.6 6.5-3.8 6.5-7.7zM25 29.3c-2.9 0-5.2-2.3-5.2-5.2s2.3-5.2 5.2-5.2 5.2 2.3 5.2 5.2-2.4 5.2-5.2 5.2z"/><path id="right-electrode" d="M83 24.1c0-4.3-3.5-7.8-7.8-7.8s-7.8 3.5-7.8 7.8c0 3.8 2.8 7.1 6.5 7.7v24.8c0 .7.6 1.3 1.3 1.3.7 0 1.3-.6 1.3-1.3V31.8c3.7-.6 6.5-3.8 6.5-7.7zm-7.8 5.2c-2.9 0-5.2-2.3-5.2-5.2s2.3-5.2 5.2-5.2c2.9 0 5.2 2.3 5.2 5.2s-2.3 5.2-5.2 5.2z"/><path id="power" d="M44.8 36.7L39.9 30l-4 5.9c-.4.6-1.2.7-1.8.3-.6-.4-.7-1.2-.3-1.8l6.1-8.9 5 6.9 5.1-6.8 5.2 6.8 5.3-6.8 6 8.8c.4.6.2 1.4-.3 1.8-.6.4-1.4.2-1.8-.3l-4-5.9-5.2 6.7-5.1-6.8-5.3 6.8z"/></g><g id="head"><path id="left-panel" fill="#FFF" d="M19.8 42.9h10.4v38.6H19.8z"/><path id="right-panel" fill="#FFF" d="M70 42.9h10.4v38.6H70z"/><path id="face" fill="#C1CE20" d="M83 48.4v-8H67.4v8H32.8v-8H17.2v8c-8.9.4-15.9 7.8-15.9 16.7v7c0 .7.6 1.3 1.3 1.3s1.3-.6 1.3-1.3v-7c0-7.8 6.4-14.2 14.2-14.2h64.2c7.8 0 14.2 6.4 14.2 14.2v17.7c0 7.8-6.4 14.2-14.2 14.2H18.1c-7.8 0-14.2-6.4-14.2-14.2v-1.1c0-.7-.6-1.3-1.3-1.3s-1.3.6-1.3 1.3v1.1c0 9.3 7.5 16.8 16.8 16.8h64.1c9.3 0 16.8-7.5 16.8-16.8V65.1c0-9-7.1-16.3-16-16.7zm-63.2-.1v-5.4h10.4v5.4H19.8zm50.2 0v-5.4h10.4v5.4H70z"/></g><path id="left-eye" fill="#C1CE20" d="M25 78.2c-6.4 0-11.6-5.2-11.6-11.6S18.6 55 25 55s11.6 5.2 11.6 11.6S31.4 78.2 25 78.2zm0-20.6c-5 0-9 4-9 9s4 9 9 9 9-4 9-9-4-9-9-9z"/><path id="right-eye" fill="#C1CE20" d="M75.2 78.2c-6.4 0-11.6-5.2-11.6-11.6S68.8 55 75.2 55c6.4 0 11.6 5.2 11.6 11.6s-5.2 11.6-11.6 11.6zm0-20.6c-5 0-9 4-9 9s4 9 9 9 9-4 9-9-4-9-9-9z"/><path id="left-heart" fill="#C1CE20" d="M24.7 73.7L19.2 66c-.4-.6-.6-1.3-.6-2 0-2.3 1.5-3.9 3.9-3.9 1 0 1.8.6 2.5 1.2.6-.6 1.5-1.2 2.5-1.2 2.3 0 3.9 1.5 3.9 3.9 0 .7-.2 1.4-.5 1.9v.1l-6.2 7.7zm-3.3-9.1l3.4 4.7 3.8-4.8c.1-.2.1-.4.1-.6 0-1-.5-1.3-1.3-1.3-.3.1-1 .7-1.4 1.3l-1 1.8-1.1-1.6c-.4-.6-1.1-1.3-1.4-1.3-.6 0-1.2.1-1.2 1.3-.1.1 0 .4.1.5zm8.3.7z"/><path id="right-heart" fill="#C1CE20" d="M74.9 73.7L69.5 66c-.4-.6-.6-1.3-.6-2 0-2.3 1.5-3.9 3.9-3.9 1 0 1.8.6 2.5 1.2.6-.6 1.5-1.2 2.5-1.2 2.3 0 3.9 1.5 3.9 3.9 0 .7-.2 1.4-.5 1.9v.1l-6.3 7.7zm-3.3-9.1l3.4 4.7 3.8-4.8c.1-.2.1-.4.1-.6 0-1-.5-1.3-1.3-1.3-.3.1-1 .7-1.4 1.3l-1.1 1.6-1.1-1.6c-.4-.6-1.1-1.3-1.4-1.3-.6 0-1.2.1-1.2 1.3.1.3.1.6.2.7zm8.3.7z"/><path id="nose" fill="#C1CE20" d="M57.2 77.4H43.1l7.2-13.6 6.9 13.6zm-9.8-2.6H53l-2.8-5.4-2.8 5.4z"/><path fill="#C1CE20" d="M2.6 78.1h-.3c-.1 0-.2 0-.2-.1-.1 0-.2-.1-.2-.1-.1 0-.1-.1-.2-.2-.2-.2-.4-.6-.4-.9v-.3c0-.1 0-.2.1-.2 0-.1.1-.2.1-.2 0-.1.1-.1.2-.2.3-.3.7-.4 1.2-.4.1 0 .2 0 .2.1.1 0 .2.1.2.1.1 0 .1.1.2.2l.1.1c0 .1.1.1.1.2s.1.2.1.2v.6c0 .1 0 .2-.1.2 0 .1-.1.2-.1.2 0 .1-.1.1-.2.2l-.2.2c-.1 0-.1.1-.2.1 0 .1-.1.1-.2.1s-.2.1-.2.1z"/><g id="mouth" fill="#C1CE20"><path id="dot" d="M67.7 93.6h-.3c-.1 0-.2 0-.2-.1-.1 0-.2-.1-.2-.1-.1 0-.1-.1-.2-.2-.2-.2-.4-.6-.4-.9V92c0-.1 0-.2.1-.2 0-.1.1-.2.1-.2 0-.1.1-.1.2-.2l.2-.2c.1 0 .1-.1.2-.1s.2-.1.2-.1h.5c.1 0 .2 0 .2.1.1 0 .2.1.2.1.1 0 .1.1.2.2l.2.2c0 .1.1.1.1.2s.1.2.1.2v.3c0 .3-.1.7-.4.9s-.5.4-.8.4z"/><path id="lips" d="M78.7 93.6H72c-.7 0-1.3-.6-1.3-1.3S71.3 91 72 91h6.7c.2 0 .3-.1.3-.3v-6.2c0-.2-.1-.3-.3-.3H21.6c-.2 0-.3.1-.3.3v6.2c0 .2.1.3.3.3h41.7c.7 0 1.3.6 1.3 1.3s-.6 1.3-1.3 1.3H21.6c-1.6 0-2.9-1.3-2.9-2.9v-6.2c0-1.6 1.3-2.9 2.9-2.9h57.1c1.6 0 2.9 1.3 2.9 2.9v6.2c0 1.6-1.3 2.9-2.9 2.9z"/></g></svg>