<svg id="membership" xmlns="http://www.w3.org/2000/svg" viewBox="0 0 1433.6 167.2" preserveAspectRatio="xMinYMin meet">
    <path class="sprinkle-1" id="chart-loop-left" fill="#D0DD29"
          d="M214 43.8h-11.6c-2.1 0-4-1.1-5.1-2.9l-5.8-10c-1-1.8-1-4 0-5.9l5.8-10c1-1.8 3-2.9 5.1-2.9H214c2.1 0 4 1.1 5.1 2.9l5.8 10c1 1.8 1 4 0 5.8l-5.8 10c-1.1 1.9-3 3-5.1 3zM202.4 14c-1.4 0-2.6.7-3.3 1.9l-5.8 10c-.7 1.2-.7 2.7 0 3.8l5.8 10c.7 1.2 2 1.9 3.3 1.9H214c1.4 0 2.6-.7 3.3-1.9l5.8-10c.7-1.2.7-2.7 0-3.8l-5.8-10c-.7-1.2-2-1.9-3.3-1.9h-11.6z"/>
    <path class="sprinkle-2" id="small-chart-right" fill-rule="evenodd" clip-rule="evenodd" fill="#D0DD29"
          d="M1326.1 99.3l3.8-6.6c.6-1 1.6-1.5 2.7-1.5h7.6c1.1 0 2.1.6 2.7 1.5l3.8 6.6c.6 1 .6 2.1 0 3.1l-3.8 6.6c-.6 1-1.6 1.5-2.7 1.5h-7.6c-1.1 0-2.1-.6-2.7-1.5l-3.8-6.6c-.5-1-.5-2.1 0-3.1"/>
    <path class="sprinkle-3" id="big-teal-right" fill-rule="evenodd" clip-rule="evenodd" fill="#1EAEB4"
          d="M1250.3 44.9l6.3-10.9c.7-1.2 2-2 3.4-2h12.5c1.4 0 2.7.7 3.4 2l6.3 10.9c.7 1.2.7 2.7 0 3.9l-6.3 10.9c-.7 1.2-2 2-3.4 2H1260c-1.4 0-2.7-.7-3.4-2l-6.3-10.9c-.7-1.2-.7-2.7 0-3.9"/>
    <path class="sprinkle-1" id="gray-loop-right" fill="#ACB4BF"
          d="M1255.2 128.5h-10.6c-2.4 0-4.5-1.3-5.7-3.3l-5.3-9.1c-1.2-2-1.2-4.6 0-6.6l5.3-9.1c1.2-2 3.4-3.3 5.7-3.3h10.6c2.4 0 4.5 1.3 5.7 3.3l5.3 9.1c1.2 2 1.2 4.6 0 6.6l-5.3 9.1c-1.2 2-3.4 3.3-5.7 3.3zm-14.5-4.3c.8 1.4 2.3 2.3 4 2.3h10.6c1.6 0 3.2-.9 4-2.3l5.3-9.1c.8-1.4.8-3.2 0-4.6l-5.3-9.1c-.8-1.4-2.3-2.3-4-2.3h-10.6c-1.6 0-3.2.9-4 2.3l-5.3 9.1c-.8 1.4-.8 3.2 0 4.6l5.3 9.1z"/>
    <path class="sprinkle-2" id="small-black-right" fill-rule="evenodd" clip-rule="evenodd" fill="#343F49"
          d="M1164.2 70.6l3.8-6.6c.6-1 1.6-1.5 2.7-1.5h7.6c1.1 0 2.1.6 2.7 1.5l3.8 6.6c.6 1 .6 2.1 0 3.1l-3.8 6.6c-.6 1-1.6 1.5-2.7 1.5h-7.6c-1.1 0-2.1-.6-2.7-1.5l-3.8-6.6c-.6-1-.6-2.1 0-3.1"/>
    <path class="sprinkle-3" id="med-gray-right" fill-rule="evenodd" clip-rule="evenodd" fill="#ABB3BE"
          d="M1029.3 98.9l6.3-10.9c.7-1.2 2-2 3.4-2h12.5c1.4 0 2.7.7 3.4 2l6.3 10.9c.7 1.2.7 2.7 0 3.9l-6.3 10.9c-.7 1.2-2 2-3.4 2H1039c-1.4 0-2.7-.7-3.4-2l-6.3-10.9c-.7-1.2-.7-2.7 0-3.9"/>
    <path class="sprinkle-1" id="small-chart-center-two" fill-rule="evenodd" clip-rule="evenodd" fill="#D0DD29"
          d="M1003.1 45.1l3.8-6.6c.6-1 1.6-1.5 2.7-1.5h7.6c1.1 0 2.1.6 2.7 1.5l3.8 6.6c.6 1 .6 2.1 0 3.1l-3.8 6.6c-.6 1-1.6 1.5-2.7 1.5h-7.6c-1.1 0-2.1-.6-2.7-1.5l-3.8-6.6c-.5-1-.5-2.2 0-3.1"/>
    <path class="sprinkle-2" id="teal-loop-right" fill="#1FAEB4"
          d="M932.2 72.5h-10.6c-2.4 0-4.5-1.3-5.7-3.3l-5.3-9.1c-1.2-2-1.2-4.6 0-6.6l5.3-9.1c1.2-2 3.4-3.3 5.7-3.3h10.6c2.4 0 4.5 1.3 5.7 3.3l5.3 9.1c1.2 2 1.2 4.6 0 6.6l-5.3 9.1c-1.2 2-3.4 3.3-5.7 3.3zm-14.5-4.3c.8 1.4 2.3 2.3 4 2.3h10.6c1.6 0 3.2-.9 4-2.3l5.3-9.1c.8-1.4.8-3.2 0-4.6l-5.3-9.1c-.8-1.4-2.3-2.3-4-2.3h-10.6c-1.6 0-3.2.9-4 2.3l-5.3 9.1c-.8 1.4-.8 3.2 0 4.6l5.3 9.1z"/>
    <path class="sprinkle-3" id="chart-loop-lower" fill="#D0DD29"
          d="M839.9 123.3h-11.5c-2.1 0-4-1.1-5-2.9l-5.8-10c-1-1.8-1-4 0-5.8l5.8-10c1-1.8 3-2.9 5-2.9h11.5c2.1 0 4 1.1 5 2.9l5.8 10c1 1.8 1 4 0 5.8l-5.8 10c-1 1.7-3 2.9-5 2.9zm-11.6-29.6c-1.4 0-2.6.7-3.3 1.9l-5.8 10c-.7 1.2-.7 2.6 0 3.8l5.8 10c.7 1.2 1.9 1.9 3.3 1.9h11.5c1.4 0 2.6-.7 3.3-1.9l5.8-10c.7-1.2.7-2.6 0-3.8l-5.8-10c-.7-1.2-1.9-1.9-3.3-1.9h-11.5z"/>
    <path class="sprinkle-1" id="small-black-center" fill-rule="evenodd" clip-rule="evenodd" fill="#343F49"
          d="M706.1 87.1l3.8-7.1c.5-1 1.5-1.6 2.6-1.7l8-.3c1.1 0 2.2.5 2.8 1.5l4.3 6.8c.6.9.6 2.1.1 3.1l-3.8 7.1c-.5 1-1.5 1.6-2.6 1.7l-8 .3c-1.1 0-2.2-.5-2.8-1.5l-4.3-6.8c-.6-.9-.6-2.1-.1-3.1"/>
    <path class="sprinkle-2" id="big-lt-gray-center" fill="#E0E1E0"
          d="M631.5 93.5h-11.6c-2.1 0-4-1.1-5.1-2.9l-5.8-10c-1-1.8-1-4 0-5.8l5.8-10c1-1.8 3-2.9 5.1-2.9h11.6c2.1 0 4 1.1 5.1 2.9l5.8 10c1 1.8 1 4 0 5.9l-5.8 10c-1.1 1.7-3 2.8-5.1 2.8zm-20.7-17.8c-.7 1.2-.7 2.7 0 3.8l5.8 10c.7 1.2 2 1.9 3.3 1.9h11.6c1.4 0 2.6-.7 3.3-1.9l5.8-10c.7-1.2.7-2.7 0-3.8l-5.8-10c-.7-1.2-2-1.9-3.3-1.9h-11.6c-1.4 0-2.6.7-3.3 1.9l-5.8 10z"/>
    <path class="sprinkle-3" id="small-teal-center" fill-rule="evenodd" clip-rule="evenodd" fill="#1EAEB4"
          d="M551.2 55.3l3.8-6.7c.6-1 1.6-1.6 2.7-1.6h7.7c1.1 0 2.1.6 2.7 1.6l3.8 6.7c.6 1 .6 2.1 0 3.1l-3.8 6.7c-.6 1-1.6 1.6-2.7 1.6h-7.7c-1.1 0-2.1-.6-2.7-1.6l-3.8-6.7c-.6-1-.6-2.2 0-3.1"/>
    <path class="sprinkle-1" id="small-chart-center-one" fill-rule="evenodd" clip-rule="evenodd" fill="#D0DD29"
          d="M506.1 97.4l3.7-6.5c.6-1 1.6-1.6 2.7-1.6h7.5c1.1 0 2.1.6 2.7 1.6l3.7 6.5c.6 1 .6 2.1 0 3.1l-3.7 6.5c-.6 1-1.6 1.6-2.7 1.6h-7.5c-1.1 0-2.1-.6-2.7-1.6l-3.7-6.5c-.6-1-.6-2.2 0-3.1"/>
    <path class="sprinkle-2" id="chart-loop-two-left" fill="#D0DD29"
          d="M407.6 67.9H396c-2.1 0-4-1.1-5.1-2.9l-5.8-10c-1-1.8-1-4 0-5.8l5.8-10c1-1.8 3-2.9 5.1-2.9h11.6c2.1 0 4 1.1 5.1 2.9l5.8 10c1 1.8 1 4 0 5.9l-5.8 10c-1.1 1.7-3.1 2.8-5.1 2.8zM396 38.1c-1.4 0-2.6.7-3.3 1.9l-5.8 10c-.7 1.2-.7 2.7 0 3.8l5.8 10c.7 1.2 2 1.9 3.3 1.9h11.6c1.4 0 2.6-.7 3.3-1.9l5.8-10c.7-1.2.7-2.7 0-3.8l-5.8-10c-.7-1.2-2-1.9-3.3-1.9H396z"/>
    <path class="sprinkle-3" id="big-teal-left" fill-rule="evenodd" clip-rule="evenodd" fill="#1EAEB4"
          d="M254.9 105.8l-4.5-9.2c-.9-1.8-.7-3.9.4-5.6l5.7-8.5c1.1-1.7 3-2.6 5-2.5l10.2.7c2 .1 3.8 1.3 4.7 3.1l4.5 9.2c.9 1.8.7 3.9-.4 5.6l-5.7 8.5c-1.1 1.7-3 2.6-5 2.5l-10.2-.7c-2.1-.1-3.9-1.3-4.7-3.1"/>
    <path class="sprinkle-1" id="chart-loop-left_1_" fill="#D0DD29"
          d="M1409.9 66.6H1399c-2.1 0-4-1.1-5-2.9l-5.5-9.4c-1-1.8-1-4 0-5.8l5.5-9.4c1-1.8 3-2.9 5-2.9h10.9c2.1 0 4 1.1 5 2.9l5.5 9.4c1 1.8 1 4 0 5.8l-5.5 9.4c-1 1.7-2.9 2.9-5 2.9zM1399 38c-1.4 0-2.6.7-3.3 1.9l-5.5 9.4c-.7 1.2-.7 2.6 0 3.8l5.5 9.4c.7 1.2 1.9 1.9 3.3 1.9h10.9c1.4 0 2.6-.7 3.3-1.9l5.5-9.4c.7-1.2.7-2.6 0-3.8l-5.5-9.4c-.7-1.2-1.9-1.9-3.3-1.9H1399z"/>
    <path class="sprinkle-2" id="teal-loop-left" fill="#1FAEB4"
          d="M182.2 138.5h-10.6c-2.4 0-4.5-1.3-5.7-3.3l-5.3-9.1c-1.2-2-1.2-4.6 0-6.6l5.3-9.1c1.2-2 3.4-3.3 5.7-3.3h10.6c2.4 0 4.5 1.3 5.7 3.3l5.3 9.1c1.2 2 1.2 4.6 0 6.6l-5.3 9.1c-1.2 2-3.4 3.3-5.7 3.3zm-14.5-4.3c.8 1.4 2.3 2.3 4 2.3h10.6c1.6 0 3.2-.9 4-2.3l5.3-9.1c.8-1.4.8-3.2 0-4.6l-5.3-9.1c-.8-1.4-2.3-2.3-4-2.3h-10.6c-1.6 0-3.2.9-4 2.3l-5.3 9.1c-.8 1.4-.8 3.2 0 4.6l5.3 9.1z"/>
    <path class="sprinkle-3" id="big-black-left" fill-rule="evenodd" clip-rule="evenodd" fill="#343F49"
          d="M99.1 68.8l-7.6-13.2c-1-1.7-1-3.9 0-5.6l7.6-13.2c1-1.7 2.8-2.8 4.9-2.8h15.2c2 0 3.9 1.1 4.9 2.8l7.6 13.2c1 1.7 1 3.9 0 5.6L124 68.8c-1 1.7-2.9 2.8-4.9 2.8H104c-2 0-3.9-1.1-4.9-2.8"/>
    <path class="sprinkle-1" id="big-gray-left" fill-rule="evenodd" clip-rule="evenodd" fill="#ABB3BE"
          d="M46.4 153.3l-7.6-13.2c-1-1.7-1-3.9 0-5.6l7.6-13.2c1-1.7 2.8-2.8 4.9-2.8h15.2c2 0 3.9 1.1 4.9 2.8l7.6 13.2c1 1.7 1 3.9 0 5.6l-7.6 13.2c-1 1.7-2.9 2.8-4.9 2.8H51.3c-2 0-3.9-1.1-4.9-2.8"/>
    <path class="sprinkle-2" id="small-chart-left" fill-rule="evenodd" clip-rule="evenodd" fill="#D0DD29"
          d="M13.5 66.1l3.7-6.5c.6-1 1.6-1.6 2.7-1.6h7.5c1.1 0 2.1.6 2.7 1.6l3.7 6.5c.6 1 .6 2.1 0 3.1l-3.7 6.5c-.6 1-1.6 1.6-2.7 1.6H20c-1.1 0-2.1-.6-2.7-1.6l-3.7-6.5c-.6-1-.6-2.1-.1-3.1"/>
</svg>
