<?xml version="1.0" encoding="utf-8"?>
<!-- Generator: Adobe Illustrator 21.0.2, SVG Export Plug-In . SVG Version: 6.00 Build 0)  -->
<svg version="1.1" id="Layer_1" xmlns="http://www.w3.org/2000/svg" xmlns:xlink="http://www.w3.org/1999/xlink" x="0px" y="0px"
	 viewBox="0 0 375 52" style="enable-background:new 0 0 375 52;" xml:space="preserve">
<style type="text/css">
	.st0{fill:none;stroke:#D0DD29;stroke-miterlimit:10;}
	.st1{fill-rule:evenodd;clip-rule:evenodd;fill:#D0DD29;}
	.st2{fill:none;stroke:#1FAEB4;stroke-miterlimit:10;}
	.st3{fill-rule:evenodd;clip-rule:evenodd;fill:#343F49;}
	.st4{fill:none;stroke:#E0E1E0;stroke-miterlimit:10;}
	.st5{fill-rule:evenodd;clip-rule:evenodd;fill:#1EAEB4;}
</style>
<g>
	<path class="st0" d="M269.1,35l3.4,5.8c0.5,0.9,0.5,1.9,0,2.8l-3.4,5.8c-0.5,0.9-1.4,1.4-2.4,1.4H260c-1,0-1.9-0.5-2.4-1.4
		l-3.4-5.8c-0.5-0.9-0.5-1.9,0-2.8l3.4-5.8c0.5-0.9,1.4-1.4,2.4-1.4h6.7C267.7,33.6,268.6,34.2,269.1,35z"/>
	<path class="st1" d="M361.7,5.9l2.2-3.9c0.3-0.6,0.9-0.9,1.6-0.9h4.5c0.6,0,1.2,0.3,1.6,0.9l2.2,3.9c0.3,0.6,0.3,1.2,0,1.8
		l-2.2,3.9c-0.3,0.6-0.9,0.9-1.6,0.9h-4.5c-0.6,0-1.2-0.3-1.6-0.9l-2.2-3.9C361.4,7.1,361.4,6.5,361.7,5.9"/>
	<path class="st2" d="M311.5,19.7l-3.1-5.3c-0.6-1-0.6-2.3,0-3.3l3.1-5.3c0.6-1,1.7-1.6,2.8-1.6h6.1c1.2,0,2.2,0.6,2.8,1.6l3.1,5.3
		c0.6,1,0.6,2.3,0,3.3l-3.1,5.3c-0.6,1-1.7,1.6-2.8,1.6h-6.1C313.1,21.3,312,20.7,311.5,19.7z"/>
	<path class="st3" d="M188.8,30.4l2.2-4.1c0.3-0.6,0.9-0.9,1.5-1l4.7-0.2c0.6,0,1.3,0.3,1.6,0.8l2.5,4c0.3,0.5,0.4,1.2,0.1,1.8
		l-2.2,4.1c-0.3,0.6-0.9,0.9-1.5,1L193,37c-0.6,0-1.3-0.3-1.6-0.8l-2.5-4C188.5,31.6,188.5,30.9,188.8,30.4"/>
	<path class="st4" d="M132.8,23.5l3.4-5.8c0.5-0.9,1.4-1.4,2.4-1.4h6.8c1,0,1.9,0.5,2.4,1.4l3.4,5.8c0.5,0.9,0.5,2,0,2.8l-3.4,5.8
		c-0.5,0.9-1.4,1.4-2.4,1.4h-6.8c-1,0-1.9-0.5-2.4-1.4l-3.4-5.8C132.3,25.4,132.3,24.3,132.8,23.5z"/>
	<path class="st0" d="M17.4,2.7l3.4,5.8c0.5,0.9,0.5,2,0,2.8l-3.4,5.8c-0.5,0.9-1.4,1.4-2.4,1.4H8.2c-1,0-1.9-0.5-2.4-1.4l-3.4-5.8
		c-0.5-0.9-0.5-2,0-2.8l3.4-5.8c0.5-0.9,1.4-1.4,2.4-1.4H15C16,1.3,16.9,1.8,17.4,2.7z"/>
	<path class="st1" d="M72.3,36.4l2.2-3.8c0.3-0.6,0.9-0.9,1.6-0.9h4.3c0.6,0,1.2,0.3,1.6,0.9l2.2,3.8c0.3,0.6,0.3,1.3,0,1.8L82,41.9
		c-0.3,0.6-0.9,0.9-1.6,0.9h-4.3c-0.6,0-1.2-0.3-1.6-0.9l-2.2-3.8C72,37.6,72,36.9,72.3,36.4"/>
	<path class="st5" d="M98.6,11.8l2.2-3.9c0.3-0.6,0.9-0.9,1.6-0.9h4.5c0.6,0,1.2,0.3,1.6,0.9l2.2,3.9c0.3,0.6,0.3,1.3,0,1.8
		l-2.2,3.9c-0.3,0.6-0.9,0.9-1.6,0.9h-4.5c-0.6,0-1.2-0.3-1.6-0.9l-2.2-3.9C98.3,13.1,98.3,12.4,98.6,11.8"/>
</g>
</svg>
