<?xml version="1.0" encoding="utf-8"?>
<!-- Generator: Adobe Illustrator 21.0.2, SVG Export Plug-In . SVG Version: 6.00 Build 0)  -->
<svg version="1.1" id="Layer_1" xmlns="http://www.w3.org/2000/svg" xmlns:xlink="http://www.w3.org/1999/xlink" x="0px" y="0px"
	 viewBox="0 0 800 95" style="enable-background:new 0 0 800 95;" xml:space="preserve">
<style type="text/css">
	.st0{fill:none;stroke:#D0DD29;stroke-width:1.5;stroke-miterlimit:10;}
	.st1{fill-rule:evenodd;clip-rule:evenodd;fill:#D0DD29;}
	.st2{fill-rule:evenodd;clip-rule:evenodd;fill:#343F49;}
	.st3{fill-rule:evenodd;clip-rule:evenodd;fill:#ABB3BE;}
	.st4{fill:none;stroke:#1FAEB4;stroke-width:1.5;stroke-miterlimit:10;}
	.st5{fill:none;stroke:#E0E1E0;stroke-width:1.5;stroke-miterlimit:10;}
	.st6{fill-rule:evenodd;clip-rule:evenodd;fill:#1EAEB4;}
</style>
<path class="st0" d="M484.8,58l5.3,9.2c0.8,1.4,0.8,3.1,0,4.4l-5.3,9.2c-0.8,1.4-2.3,2.2-3.8,2.2h-10.6c-1.6,0-3-0.8-3.8-2.2
	l-5.3-9.2c-0.8-1.4-0.8-3.1,0-4.4l5.3-9.2c0.8-1.4,2.3-2.2,3.8-2.2H481C482.5,55.8,484,56.6,484.8,58z"/>
<path class="st1" d="M631,12l3.5-6.1c0.5-0.9,1.4-1.4,2.5-1.4h7c1,0,2,0.5,2.5,1.4L650,12c0.5,0.9,0.5,2,0,2.8l-3.5,6.1
	c-0.5,0.9-1.4,1.4-2.5,1.4h-7c-1,0-2-0.5-2.5-1.4l-3.5-6.1C630.5,14,630.5,12.9,631,12"/>
<path class="st2" d="M779.1,35.5l3.5-6.1c0.5-0.9,1.4-1.4,2.5-1.4h7c1,0,2,0.5,2.5,1.4l3.5,6.1c0.5,0.9,0.5,2,0,2.8l-3.5,6.1
	c-0.5,0.9-1.4,1.4-2.5,1.4h-7c-1,0-2-0.5-2.5-1.4l-3.5-6.1C778.6,37.4,778.6,36.4,779.1,35.5"/>
<path class="st3" d="M655.1,61.5l5.8-10c0.6-1.1,1.8-1.8,3.1-1.8h11.5c1.3,0,2.5,0.7,3.1,1.8l5.8,10c0.6,1.1,0.6,2.5,0,3.6l-5.8,10
	c-0.6,1.1-1.8,1.8-3.1,1.8H664c-1.3,0-2.5-0.7-3.1-1.8l-5.8-10C654.5,63.9,654.5,62.6,655.1,61.5"/>
<path class="st4" d="M551.7,33.7l-4.8-8.4c-0.9-1.6-0.9-3.6,0-5.1l4.8-8.4c0.9-1.6,2.6-2.6,4.5-2.6h9.7c1.8,0,3.5,1,4.5,2.6l4.8,8.4
	c0.9,1.6,0.9,3.6,0,5.1l-4.8,8.4c-0.9,1.6-2.6,2.6-4.5,2.6h-9.7C554.3,36.3,552.6,35.3,551.7,33.7z"/>
<g>
	<defs>
		<path id="SVGID_1_" d="M7.1,73.4l5.7-9.8c0.7-1.2,2-1.9,3.3-1.9h11.4c1.4,0,2.7,0.7,3.3,1.9l5.7,9.8c0.7,1.2,0.7,2.7,0,3.9
			l-5.7,9.8c-0.7,1.2-2,1.9-3.3,1.9H16.1c-1.4,0-2.7-0.7-3.3-1.9l-5.7-9.8C6.4,76,6.4,74.6,7.1,73.4"/>
	</defs>
	<clipPath id="SVGID_2_">
		<use xlink:href="#SVGID_1_"  style="overflow:visible;"/>
	</clipPath>
	
		<use xlink:href="#SVGID_1_"  style="overflow:visible;fill-rule:evenodd;clip-rule:evenodd;fill:none;stroke:#1FAEB4;stroke-width:1.5;stroke-miterlimit:10;"/>
</g>
<path class="st2" d="M358,50.6l3.5-6.5c0.5-0.9,1.4-1.5,2.4-1.5l7.4-0.3c1,0,2,0.5,2.5,1.3l3.9,6.3c0.5,0.9,0.6,2,0.1,2.9l-3.5,6.5
	c-0.5,0.9-1.4,1.5-2.4,1.5l-7.4,0.3c-1,0-2-0.5-2.5-1.3l-3.9-6.3C357.6,52.6,357.6,51.6,358,50.6"/>
<path class="st5" d="M269.6,39.7l5.3-9.2c0.8-1.4,2.3-2.2,3.9-2.2h10.7c1.6,0,3.1,0.8,3.9,2.2l5.3,9.2c0.8,1.4,0.8,3.1,0,4.5
	l-5.3,9.2c-0.8,1.4-2.3,2.2-3.9,2.2h-10.7c-1.6,0-3.1-0.8-3.9-2.2l-5.3-9.2C268.8,42.8,268.8,41.1,269.6,39.7z"/>
<path class="st0" d="M87.4,6.9l5.3,9.2c0.8,1.4,0.8,3.1,0,4.5l-5.3,9.2c-0.8,1.4-2.3,2.2-3.9,2.2H72.9c-1.6,0-3.1-0.8-3.9-2.2
	l-5.3-9.2c-0.8-1.4-0.8-3.1,0-4.5l5.3-9.2c0.8-1.4,2.3-2.2,3.9-2.2h10.7C85.2,4.7,86.6,5.6,87.4,6.9z"/>
<path class="st1" d="M174.2,60.1l3.4-5.9c0.5-0.9,1.5-1.4,2.5-1.4h6.9c1,0,2,0.5,2.5,1.4l3.4,5.9c0.5,0.9,0.5,2,0,2.9l-3.4,5.9
	c-0.5,0.9-1.5,1.4-2.5,1.4h-6.9c-1,0-2-0.5-2.5-1.4l-3.4-5.9C173.6,62.1,173.6,61,174.2,60.1"/>
<path class="st6" d="M215.6,21.4l3.5-6.1c0.5-0.9,1.5-1.4,2.5-1.4h7.1c1,0,2,0.5,2.5,1.4l3.5,6.1c0.5,0.9,0.5,2,0,2.9l-3.5,6.1
	c-0.5,0.9-1.5,1.4-2.5,1.4h-7.1c-1,0-2-0.5-2.5-1.4l-3.5-6.1C215.1,23.4,215.1,22.3,215.6,21.4"/>
</svg>
