<svg xmlns="http://www.w3.org/2000/svg" width="25" height="25" viewBox="0 0 25 25" xmlns:xlink="http://www.w3.org/1999/xlink">
  <defs>
    <polygon id="a" points="24.692 24.722 0 24.722 0 .031 24.692 .031"/>
  </defs>
  <g fill="none" fill-rule="evenodd">
    <mask id="b" fill="white">
      <use xlink:href="#a"/>
    </mask>
    <path fill="#ABB3BE" d="M15.1891111,8.0515 L13.8132778,8.0515 C13.5410556,8.0515 13.2660556,8.33316667 13.2660556,8.54261111 L13.2660556,9.94538889 L15.1863333,9.94538889 C15.1091111,11.0209444 14.9502222,12.0045556 14.9502222,12.0045556 L13.2560556,12.0045556 L13.2560556,18.1003889 L10.7316111,18.1003889 L10.7316111,12.0037222 L9.50244444,12.0037222 L9.50244444,9.95261111 L10.7316111,9.95261111 L10.7316111,8.27566667 C10.7316111,7.969 10.6693889,5.91566667 13.318,5.91566667 L15.1891111,5.91566667 L15.1891111,8.0515 Z M12.3457778,0.0306666667 C5.52744444,0.0306666667 -5.55555553e-05,5.55788889 -5.55555553e-05,12.3765 C-5.55555553e-05,19.1948333 5.52744444,24.7223333 12.3457778,24.7223333 C19.1641111,24.7223333 24.6916111,19.1948333 24.6916111,12.3765 C24.6916111,5.55788889 19.1641111,0.0306666667 12.3457778,0.0306666667 L12.3457778,0.0306666667 Z" mask="url(#b)"/>
  </g>
</svg>
