<svg xmlns="http://www.w3.org/2000/svg" width="20" height="15" viewBox="0 0 20 15" id="green-arrow">
    <path fill="#C1CE20" fill-rule="evenodd" d="M19.702 6.506L13.652.26c-.34-.347-.886-.347-1.223 0-.34.35-.34.914 0 1.262l4.616 4.766H.87c-.48 0-.87.402-.87.898 0 .495.39.898.87.898h16.178l-4.62 4.766c-.336.348-.336.913 0 1.26.34.348.886.35 1.223 0l6.056-6.247c.018-.016.04-.02.056-.037.028-.028.028-.067.05-.097.074-.097.127-.2.158-.31.01-.045.02-.08.023-.127.037-.266-.03-.545-.23-.75-.017-.017-.04-.023-.057-.04z"/>
</svg>
