<svg xmlns="http://www.w3.org/2000/svg" width="16" height="23" viewBox="0 0 16 23"><g fill="none" fill-rule="evenodd" stroke="#ABB3BE"><path fill="#ABB3BE" stroke-width=".5" d="M8.338 19.85l-5.503-7.71h.028c-.65-1.03-1.016-2.286-1.016-3.6 0-3.684 2.907-6.683 6.49-6.683 3.586 0 6.493 3 6.493 6.683 0 1.314-.367 2.57-1.016 3.6h.028l-5.504 7.71zm7.338-11.424C15.676 4.313 12.402 1 8.338 1S1 4.313 1 8.426c0 1.485.423 2.856 1.157 4H2.13l6.208 8.567 6.21-8.568h-.03c.735-1.143 1.158-2.514 1.158-4z"/><path stroke-width="2" d="M3.4 22h9.88" stroke-linecap="square"/></g></svg>
