<svg xmlns="http://www.w3.org/2000/svg" viewBox="0 0 50 50">
    <g id="fill-color" fill="#C1CE20" fill-rule="evenodd">
        <path d="M25 50c13.807 0 25-11.193 25-25S38.807 0 25 0 0 11.193 0 25s11.193 25 25 25zm0-1.923C12.255 48.077 1.923 37.745 1.923 25 1.923 12.255 12.255 1.923 25 1.923c12.745 0 23.077 10.332 23.077 23.077 0 12.745-10.332 23.077-23.077 23.077z"/>
        <path d="M20.994 31.22c0 .548.386.765.864.484l10.29-6.04c.478-.28.48-.744.02-1.025l-10.33-6.333c-.466-.287-.844-.07-.844.473v12.44z"/>
    </g>
</svg>
