<svg xmlns="http://www.w3.org/2000/svg" width="39" height="52" viewBox="0 0 39 52" xmlns:xlink="http://www.w3.org/1999/xlink">
  <defs>
    <polygon id="a" points="0 52 39 52 39 0 0 0"/>
  </defs>
  <g fill="none" fill-rule="evenodd" transform="translate(-1076 -2594)">
    <polygon fill="#F7F7F7" points="0 644 740.859 644 1440 644 1440 3885 0 3885"/>
    <g transform="translate(1042 2567)">
      <rect width="278" height="106" fill="#FFFFFF"/>
      <g transform="translate(34 27)">
        <mask id="b" fill="white">
          <use xlink:href="#a"/>
        </mask>
        <path fill="#ABB3BE" d="M6.38940539,39.5912264 C5.73646143,39.6219528 5.23242415,40.1756205 5.26315092,40.8285584 C5.2938777,41.4809053 5.84755054,41.9855288 6.4999036,41.9548023 L32.500073,41.9548023 C33.152426,41.9642566 33.6889628,41.4424972 33.6984172,40.7895594 C33.7072807,40.1372124 33.1861073,39.6006807 32.5331634,39.5912264 L32.500073,39.5912264 L6.4999036,39.5912264 C6.46326783,39.5894537 6.42604116,39.5894537 6.38940539,39.5912264 L6.38940539,39.5912264 Z M6.38940539,33.0913925 C5.73646143,33.122119 5.23242415,33.6757867 5.26315092,34.3287245 C5.2938777,34.9810715 5.84755054,35.485695 6.4999036,35.4549685 L32.500073,35.4549685 C33.152426,35.4644228 33.6889628,34.9426634 33.6984172,34.2897255 C33.7072807,33.6373786 33.1861073,33.1008469 32.5331634,33.0913925 L32.500073,33.0913925 L6.4999036,33.0913925 C6.46326783,33.0896199 6.42604116,33.0896199 6.38940539,33.0913925 L6.38940539,33.0913925 Z M6.38940539,26.5915587 C5.73646143,26.6222852 5.23242415,27.1759529 5.26315092,27.8288907 C5.2938777,28.4812377 5.84755054,28.9858612 6.4999036,28.9551347 L32.500073,28.9551347 C33.152426,28.964589 33.6889628,28.4428296 33.6984172,27.7898917 C33.7072807,27.1375448 33.1861073,26.601013 32.5331634,26.5915587 L32.500073,26.5915587 L6.4999036,26.5915587 C6.46326783,26.5897861 6.42604116,26.5897861 6.38940539,26.5915587 L6.38940539,26.5915587 Z M6.38940539,20.0917249 C5.73646143,20.1224514 5.23242415,20.6761191 5.26315092,21.3290569 C5.2938777,21.9814039 5.84755054,22.4860273 6.4999036,22.4553009 L32.500073,22.4553009 C33.152426,22.4647552 33.6889628,21.9429958 33.6984172,21.2900579 C33.7072807,20.637711 33.1861073,20.1011792 32.5331634,20.0917249 L32.500073,20.0917249 L6.4999036,20.0917249 C6.46326783,20.0899522 6.42604116,20.0899522 6.38940539,20.0917249 L6.38940539,20.0917249 Z M6.38940539,13.5918911 C5.73646143,13.6226176 5.23242415,14.1762853 5.26315092,14.8292231 C5.2938777,15.4815701 5.84755054,15.9861935 6.4999036,15.955467 L19.4996928,15.955467 C20.1526368,15.9649214 20.6891736,15.443162 20.6986279,14.7902241 C20.7074914,14.1378772 20.1863181,13.6013454 19.5333741,13.5918911 L19.4996928,13.5918911 L6.4999036,13.5918911 C6.46326783,13.5901184 6.42604116,13.5901184 6.38940539,13.5918911 L6.38940539,13.5918911 Z M29.5455754,4.02649932 L34.9741692,9.45563324 L29.5455754,9.45563324 L29.5455754,4.02649932 Z M2.36419792,2.36490544 L27.1819774,2.36490544 L27.1819774,10.6374212 C27.1819774,11.2903591 27.7108324,11.8192092 28.3637764,11.8192092 L36.6363696,11.8192092 L36.6363696,49.6364241 L2.36419792,49.6364241 L2.36419792,2.36490544 Z M1.07130979,0.00132951146 C0.462092398,0.0586462278 -0.00235461712,0.571542205 8.98092102e-06,1.18311748 L8.98092102e-06,50.818212 C0.000599880432,51.4711499 0.529454943,52 1.181808,52 L37.8181686,52 C38.4705216,52 38.9993767,51.4711499 38.9999676,50.818212 L38.9999676,10.6374212 C39.0023312,10.3183385 38.8752878,10.0122554 38.6489733,9.78771565 L29.1945811,0.33341193 C28.971812,0.11832652 28.6734077,-0.00103406447 28.3637764,0.00132951146 L1.181808,0.00132951146 C1.14517223,-0.000443170487 1.10794556,-0.000443170487 1.07130979,0.00132951146 L1.07130979,0.00132951146 Z" mask="url(#b)"/>
      </g>
    </g>
  </g>
</svg>
