<svg id="careers" xmlns="http://www.w3.org/2000/svg" viewBox="0 0 500 500"><g id="case-body" fill="#C1CE20"><circle id="outer-dot" cx="12.8" cy="382.8" r="6.4"/><path id="lower-right-corner" d="M463.9 136.4h-23.6c-3.6 0-6.5 2.9-6.5 6.5s2.9 6.5 6.5 6.5h23.6c9.1 0 16.5 7.4 16.5 16.5v266.9c0 9.1-7.4 16.5-16.5 16.5H288.4V332.6c0-3.6-2.9-6.5-6.5-6.5s-6.5 2.9-6.5 6.5v116.7h-44V332.6c0-3.6-2.9-6.5-6.5-6.5s-6.5 2.9-6.5 6.5v116.7H35.8c-9.1 0-16.5-7.4-16.5-16.5v-25.1c0-3.6-2.9-6.5-6.5-6.5s-6.5 2.9-6.5 6.5v25.1c0 16.3 13.2 29.5 29.5 29.5h428.1c16.3 0 29.5-13.2 29.5-29.5V165.9c0-16.2-13.2-29.5-29.5-29.5z"/><path id="top-wrap" d="M385 149.4H113.8c-3.6 0-6.5-2.9-6.5-6.5s2.9-6.5 6.5-6.5H385c3.6 0 6.5 2.9 6.5 6.5s-2.9 6.5-6.5 6.5z"/><path id="upper-left-corner" d="M12.8 366c-3.6 0-6.5-2.9-6.5-6.5V165.9c0-16.3 13.2-29.5 29.5-29.5h22.4c3.6 0 6.5 2.9 6.5 6.5s-2.9 6.5-6.5 6.5H35.8c-9.1 0-16.5 7.4-16.5 16.5v193.6c0 3.6-2.9 6.5-6.5 6.5z"/><path id="line-top-left" d="M224.9 225.3c-3.6 0-6.5-2.9-6.5-6.5V148c0-3.6 2.9-6.5 6.5-6.5s6.5 2.9 6.5 6.5v70.8c0 3.6-2.9 6.5-6.5 6.5z"/><path id="line-top-right" d="M281.9 244.7c-3.6 0-6.5-2.9-6.5-6.5v-93.5c0-3.6 2.9-6.5 6.5-6.5s6.5 2.9 6.5 6.5v93.5c0 3.6-2.9 6.5-6.5 6.5z"/><circle id="upper-dot" cx="224.9" cy="241.3" r="6.4"/></g><g id="handle" fill="#C1CE20"><path id="inner-handle" d="M334 140.9h-13V98.5H177.6v42.4h-13V98.3c0-7.1 5.8-12.8 12.8-12.8h143.7c7.1 0 12.8 5.8 12.8 12.8v42.6z"/><path id="outer-handle" d="M152.6 144.6h-13V85.4c0-14.3 11.6-25.9 25.9-25.9h168.7c14.3 0 25.9 11.6 25.9 25.9v55.8h-13V85.4c0-7.1-5.8-12.9-12.9-12.9H165.5c-7.1 0-12.9 5.8-12.9 12.9v59.2z"/></g><path id="left-fold" fill="#C1CE20" d="M214.6 293c-150-3-201-24-203-24.9l5.1-12c.4.2 51.3 20.9 198.1 23.9l-.2 13z"/><path id="right-fold" fill="#C1CE20" d="M292.3 292.8l-.3-13c139.5-3.7 193.4-23.6 193.9-23.8l4.6 12.1c-2.2.9-55.9 20.9-198.2 24.7z"/><path id="center-buckle" fill="#C1CE20" d="M292 311.9h-81.8c-3.7 0-6.6-3-6.6-6.6v-37.2c0-3.7 3-6.6 6.6-6.6H292c3.7 0 6.6 3 6.6 6.6v37.2c.1 3.6-2.9 6.6-6.6 6.6zm-75.4-13h69.1v-24.4h-69.1v24.4z"/><g id="clips" fill="#C1CE20"><path id="left-clip" d="M102.8 223H68.9c-5.7 0-10.4-4.7-10.4-10.4v-89.3c0-5.7 4.7-10.4 10.4-10.4h33.9c5.7 0 10.4 4.7 10.4 10.4v89.3c0 5.7-4.7 10.4-10.4 10.4zm-31.2-13h28.6v-84.1H71.6V210z"/><path id="right-clip" d="M429.6 223h-33.9c-5.7 0-10.4-4.7-10.4-10.4v-89.3c0-5.7 4.7-10.4 10.4-10.4h33.9c5.7 0 10.4 4.7 10.4 10.4v89.3c0 5.7-4.7 10.4-10.4 10.4zm-31.2-13H427v-84.1h-28.6V210z"/><path id="left-snap" d="M91.8 204.4H78.6c-1.3 0-2.4-1.1-2.4-2.4v-13.2c0-1.3 1.1-2.4 2.4-2.4h13.2c1.3 0 2.4 1.1 2.4 2.4V202c0 1.4-1.1 2.4-2.4 2.4z"/><path id="right-snap" d="M419.3 204.4h-13.2c-1.3 0-2.4-1.1-2.4-2.4v-13.2c0-1.3 1.1-2.4 2.4-2.4h13.2c1.3 0 2.4 1.1 2.4 2.4V202c-.1 1.4-1.1 2.4-2.4 2.4z"/></g></svg>