<svg id="Layer_1" xmlns="http://www.w3.org/2000/svg" viewBox="0 0 100 100"><g id="Noise" fill="#C1CE20"><path id="noise-six" d="M78 32.8c-.6 0-1.2-.4-1.3-1-.1-.7.3-1.4 1-1.5l3-.6c.7-.1 1.4.3 1.5 1 .1.7-.3 1.4-1 1.5l-3 .6H78zm6.9-1.4c-.6 0-1.2-.4-1.3-1-.1-.7.3-1.4 1-1.5l3-.6c.7-.1 1.4.3 1.5 1 .1.7-.3 1.4-1 1.5l-3 .6h-.2zm6.9-1.4c-.6 0-1.2-.4-1.3-1-.1-.7.3-1.4 1-1.5l3-.6c.7-.1 1.4.3 1.5 1 .1.7-.3 1.4-1 1.5l-3 .6h-.2z"/><path id="noise-five" d="M76.8 25.4c-.5 0-.9-.2-1.1-.7-.3-.6-.1-1.4.5-1.8l2.6-1.4c.6-.3 1.4-.1 1.8.5.3.6.1 1.4-.5 1.8l-2.6 1.4c-.3.1-.5.2-.7.2zM83 22c-.5 0-.9-.2-1.1-.7-.3-.6-.1-1.4.5-1.8l2.6-1.4c.6-.3 1.4-.1 1.8.5.3.6.1 1.4-.5 1.8l-2.6 1.4c-.3.2-.5.2-.7.2zm6.2-3.4c-.5 0-.9-.2-1.1-.7-.3-.6-.1-1.4.5-1.8l2.6-1.4c.6-.3 1.4-.1 1.8.5.3.6.1 1.4-.5 1.8l-2.6 1.4c-.3.2-.5.2-.7.2z"/><path id="noise-four" d="M71 20c-.3 0-.7-.1-.9-.4-.5-.5-.5-1.3 0-1.8l2.1-2.1c.5-.5 1.3-.5 1.8 0s.5 1.3 0 1.8l-2 2.1c-.3.3-.6.4-1 .4zm5-5c-.3 0-.7-.1-.9-.4-.5-.5-.5-1.3 0-1.8l2.1-2.1c.5-.5 1.3-.5 1.8 0s.5 1.3 0 1.8l-2.1 2.1c-.3.3-.6.4-.9.4zm4.9-5c-.3 0-.7-.1-.9-.4-.5-.5-.5-1.3 0-1.8l2.1-2.1c.5-.5 1.3-.5 1.8 0s.5 1.3 0 1.8l-2.1 2.1c-.2.3-.6.4-.9.4z"/><path id="noise-three" d="M29 20c-.3 0-.7-.1-.9-.4L26 17.5c-.5-.5-.5-1.3 0-1.8s1.3-.5 1.8 0l2.1 2.1c.5.5.5 1.3 0 1.8-.2.3-.6.4-.9.4zm-4.9-5c-.3 0-.7-.1-.9-.4L21 12.5c-.5-.5-.5-1.3 0-1.8s1.3-.5 1.8 0l2.1 2.1c.5.5.5 1.3 0 1.8-.2.3-.5.4-.8.4zm-5-5c-.3 0-.7-.1-.9-.4l-2.1-2.1c-.5-.5-.5-1.3 0-1.8s1.3-.5 1.8 0L20 7.8c.5.5.5 1.3 0 1.8-.2.3-.5.4-.9.4z"/><path id="noise-two" d="M23.2 25.4c-.2 0-.4-.1-.6-.2L20 23.8c-.6-.3-.9-1.1-.5-1.8.3-.6 1.1-.9 1.8-.5l2.6 1.4c.6.3.9 1.1.5 1.8-.3.4-.7.7-1.2.7zM17 22c-.2 0-.4-.1-.6-.2l-2.6-1.4c-.6-.3-.9-1.1-.5-1.8.3-.6 1.1-.9 1.8-.5l2.6 1.4c.6.3.9 1.1.5 1.8-.2.5-.7.7-1.2.7zm-6.1-3.4c-.2 0-.4-.1-.6-.2L7.6 17c-.6-.3-.9-1.1-.5-1.8.3-.6 1.1-.9 1.8-.5l2.6 1.4c.6.3.9 1.1.5 1.8-.2.5-.7.7-1.1.7z"/><path id="noise-one" d="M22 32.8h-.3l-3-.6c-.7-.1-1.2-.8-1-1.5.1-.7.8-1.2 1.5-1l3 .6c.7.1 1.2.8 1 1.5 0 .6-.5 1-1.2 1zm-6.8-1.4h-.3l-3-.6c-.7-.1-1.2-.8-1-1.5.1-.7.8-1.2 1.5-1l3 .6c.7.1 1.2.8 1 1.5-.1.6-.6 1-1.2 1zM8.3 30H8l-3-.6c-.7-.1-1.2-.8-1-1.5.1-.7.8-1.2 1.5-1l3 .6c.7.1 1.2.8 1 1.5-.1.6-.6 1-1.2 1z"/></g><g id="right-hand" fill="#C1CE20"><path id="right-dot" d="M75.2 37.8c-.1 0-.2.1-.2.1l-.2.2c-.2.3-.4.6-.3.9v.3c0 .1 0 .2.1.2 0 .1.1.2.1.2 0 .1.1.1.2.2l.2.2c.1 0 .2.1.2.1.1 0 .2 0 .2.1h.3c.3 0 .7-.2.9-.4l.2-.2c0-.1.1-.2.1-.2 0-.1.1-.2.1-.2V39c0-.3-.2-.7-.4-.9-.3-.3-.8-.4-1.2-.3-.1-.1-.2-.1-.3 0z"/><path id="inside-right-hand" d="M70.7 47.4c-.6-.5-1.4-.4-1.8.2-2.1 2.6-3.3 5.2-4.1 7.6-1.7-.4-4.6-.6-7 1-.6.4-.8 1.2-.3 1.8.3.4.7.6 1.1.6.2 0 .5-.1.7-.2 1.6-1.1 3.7-.9 4.9-.6-.8 4.4.1 7.6.2 7.8.2.6.7 1 1.3.9h.3c.7-.2 1.1-.9.9-1.6 0-.1-2.2-7.8 4-15.5.4-.7.3-1.5-.2-2z"/><path id="outer-right-hand" d="M91.3 72.1l-2.4 1.2-2.3-4.6-2.8-5.8.1-10.4c0-.4-.2-.7-.4-1 0-.2-.1-.3-.1-.4L78.9 42c-.3-.6-1.1-.9-1.7-.6-.6.3-.9 1.1-.6 1.7l4.5 9.1c.1.1.2.3.3.4l-.1 10.9 3.1 6.3-19.7 9.8-2.7-5.3-22.2-13c-.1-.1-.2-.1-.2-.2-1.2-.7-1.7-2.4-.9-3.6.4-.6.9-1 1.6-1.2.7-.2 1.4-.1 2 .3l8.1 4.5H51.7l.1-.1s.1 0 .1-.1l.1-.1.1-.1v-.1-.1-.1-.1-.1-.1-.1-.1-.1-.1-.1-.1-.1-.1-.1-.1-.1-.1l-13-26.6c-.3-.6-.4-1.3-.1-2 .2-.7.7-1.2 1.3-1.5.6-.3 1.3-.4 2-.1.7.2 1.2.7 1.5 1.3l8.9 18.2c.2.5.7.8 1.2.7.2 0 .3-.1.5-.1.6-.3.9-1.1.6-1.7l-8.9-18.2-2-4-.3-.3c0-.1-.1-.3-.1-.4-.6-1.3-.1-2.9 1.2-3.5 1.3-.6 2.9-.1 3.5 1.2L59 43.4c.2.5.7.8 1.2.7.2 0 .3-.1.5-.1.6-.3.9-1.1.6-1.7l-9.2-18.7c-.6-1.3-.1-2.9 1.2-3.5 1.3-.6 2.9-.1 3.5 1.2l10.4 21.3c.2.5.7.8 1.2.7.2 0 .3-.1.5-.1.6-.3.9-1.1.6-1.7l-6-12.3c-.6-1.3-.1-2.9 1.2-3.5.6-.3 1.3-.4 2-.1.6.2 1.2.7 1.5 1.3l4.6 9.3c.2.5.7.8 1.2.7.2 0 .3-.1.5-.1.6-.3.9-1.1.6-1.7L70.6 26v-.1-.1l-.3-.6c-.1-.2-.3-.4-.5-.5-.6-.7-1.3-1.2-2.2-1.4-1.3-.5-2.8-.4-4 .3-.9.4-1.6 1.1-2.1 1.8l-2.4-4.9-.1-.3c-.1-.1-.1-.2-.2-.3-1.4-2.2-4.3-3-6.7-1.8-.9.5-1.7 1.2-2.2 2-1.5-1.6-4-2.1-6.1-1.1-2.6 1.3-3.7 4.4-2.4 7l.3.3c0 .1.1.3.1.4-.9-.1-1.8.1-2.7.5-2.6 1.3-3.7 4.4-2.4 7L48 56.8l-4.5-2.5c-1.2-.7-2.6-.9-3.9-.6-1.4.3-2.5 1.2-3.2 2.4-1.4 2.4-.7 5.5 1.5 7 .1.1.2.2.3.2L60 76.2l2.2 4.7.6 1.2.6 1.2 1.1 2.2-2.3 1.1 5.1 10.2 29.2-14.5-5.2-10.2zm-5.8.2l1 2.1-19.8 9.8-1-2.2 19.8-9.7zM65.6 87.7l24.5-12.1 2.8 5.6-24.5 12.1-2.8-5.6z"/></g><g id="left-hand"><path id="hand-panel" fill="#FFF" d="M45 72.6l-7.4-1.3c-5.8 0-10.6-4.8-10.6-10.6l-6.3-9.8 8.1-16.6c0-2 4.4-12.2 7.5-11 5.4 2.1 6.3-1.3 11-5.4 2.7-2.3 3.2 2.1 5 2.1l4-2.1c4.5.9 2.7 3.4 4.2 7.3.6 1.6 2 1.8 4.1 4.8l-14 28.4c0 1.9 11.6-4.7 13.3-4.1 9.8 3.6-15 18.3-18.9 18.3z"/><path id="outer-left-hand" fill="#C1CE20" d="M66.4 55c-1.5-2.5-4.7-3.2-7.2-1.8l-4.5 2.6 10.9-23.1c1.2-2.6.1-5.8-2.5-7-.9-.4-1.8-.6-2.7-.5.1-.1.1-.3.1-.4.1-.1.2-.2.2-.4 1.2-2.6.1-5.8-2.5-7-2.1-1-4.6-.5-6.1 1.2-.5-.8-1.3-1.6-2.2-2-2.4-1.1-5.3-.3-6.7 1.9-.1.1-.1.2-.2.3L40.5 24c-.5-.7-1.2-1.4-2.1-1.8-2.6-1.2-5.8-.1-7 2.5v.2L19 51.4v.7l.2 10.4-2.7 5.8-2.2 4.6-2.4-1.2-5.2 10.2L36.1 96 41 85.7l-2.3-1.1 1.1-2.2.6-1.2.6-1.2 2.2-4.7 1.5-.9c.6-.4.8-1.2.4-1.8-.4-.6-1.2-.8-1.8-.4L41 73.5l-2.5 5.4-19.9-9.5 3-6.4-.2-10.7 12.4-26.2V26v-.1c.6-1.3 2.2-1.9 3.5-1.3 1.3.6 1.9 2.2 1.3 3.5l-5.9 12.4c-.3.7 0 1.4.6 1.7.2.1.4.1.6.1.5 0 1-.3 1.2-.7l10.1-21.4c.6-1.3 2.2-1.9 3.5-1.3 1.3.6 1.9 2.2 1.3 3.5l-8.9 18.8c-.3.7 0 1.4.6 1.7.2.1.4.1.6.1.5 0 1-.3 1.2-.7l8.9-18.8 1.2-2.6c.6-1.3 2.2-1.9 3.5-1.3 1.3.6 1.9 2.2 1.3 3.5-.1.1-.1.3-.1.4-.1.1-.2.2-.2.4L47.5 46.5c-.3.7 0 1.4.6 1.7.2.1.4.1.6.1.5 0 1-.3 1.2-.7l8.7-18.3c.6-1.3 2.2-1.9 3.5-1.3 1.3.6 1.9 2.2 1.3 3.5L50.6 58.4V60.2l.1.1.1.1.1.1.1.1H52.4l8.1-4.6c.6-.4 1.3-.5 2-.3s1.3.6 1.6 1.2c.4.6.5 1.3.3 2s-.6 1.3-1.2 1.6c-.1.1-.2.1-.2.2L50 68c-.6.4-.8 1.2-.4 1.8.2.4.7.6 1.1.6.2 0 .5-.1.7-.2l13.3-8c.1-.1.2-.2.3-.2 1-.7 1.8-1.8 2.1-3.1.3-1.3.1-2.7-.7-3.9zM34.8 92.5L10.2 80.7l2.7-5.6 24.7 11.8-2.8 5.6zm1.6-9.1l-19.9-9.5 1-2.1 19.9 9.5-1 2.1z"/><path id="left-dot" fill="#C1CE20" d="M48.5 70.5c0-.1-.1-.2-.1-.2 0-.1-.1-.1-.2-.2-.3-.3-.8-.4-1.2-.4-.1 0-.2 0-.2.1-.1 0-.2.1-.2.1-.1 0-.1.1-.2.2l-.2.2c0 .1-.1.1-.1.2s-.1.2-.1.2v.3c0 .3.1.7.4.9.2.2.6.4.9.4h.3c.1 0 .2 0 .2-.1.1 0 .2-.1.2-.1.1 0 .1-.1.2-.2.2-.2.4-.6.4-.9v-.3c-.1 0-.1-.1-.1-.2z"/></g></svg>