<svg id="learning" xmlns="http://www.w3.org/2000/svg" viewBox="0 0 500 500"><path id="hat" fill="#C1CE20" d="M497.8 149.3L252.3 62l-2.2-.9-2.3.9L6.6 147.8l-4.4 1.6.1 9.3 85 29.2v112.9l2.2 1.9c.4.3 8.9 7.9 25.1 17.2 1 .6 2.1.9 3.2.9 2.2 0 4.4-1.2 5.6-3.3 1.8-3.1.7-7.1-2.4-8.9-10.4-6-17.5-11.2-20.8-13.9V192.4l16.2 5.6c3.4 1.2 7.1-.6 8.3-4 1.2-3.4-.6-7.1-4-8.3l-92.4-31.8 221.7-79 222 79L250 233l-71.1-25.3c-3.4-1.2-7.1.6-8.3 3.9-1.2 3.4.6 7.1 3.9 8.3l73.3 26.1 2.3.8 149.6-53.3v101.3c-4.8 3.8-17.6 13.2-37.4 22.5-23.5 11.1-62.1 24.2-112.3 24.2-28.4 0-55.9-4.1-81.7-12.3-3.4-1.1-7.1.8-8.2 4.2-1.1 3.4.8 7.1 4.2 8.2 27.1 8.6 56 12.9 85.7 12.9 52.9 0 93.6-14 118.4-25.7 27.1-12.8 41.5-25.6 42.1-26.1l2.2-1.9V188.9l80.6-28.7 4.4-1.5v-4.6l.1-4.8z"/><path id="upper-string" fill="#C1CE20" d="M142.5 245.6c-3.6 0-6.5-2.9-6.5-6.5v-44.6L247.5 148c3.3-1.4 7.1.2 8.5 3.5 1.4 3.3-.2 7.1-3.5 8.5L149 203.2v35.9c0 3.6-2.9 6.5-6.5 6.5z"/><circle id="dot" fill="#C1CE20" cx="142.5" cy="262.6" r="6.5"/><g id="tassle" fill="#C1CE20"><path id="lower-string" d="M142.5 380.2c-3.6 0-6.5-2.9-6.5-6.5v-84.4c0-3.6 2.9-6.5 6.5-6.5s6.5 2.9 6.5 6.5v84.4c0 3.6-2.9 6.5-6.5 6.5z"/><path id="round-ring" d="M141.4 422c-14.8 0-26.8-12-26.8-26.8s12-26.8 26.8-26.8 26.8 12 26.8 26.8-12 26.8-26.8 26.8zm0-40.6c-7.6 0-13.8 6.2-13.8 13.8s6.2 13.8 13.8 13.8c7.6 0 13.8-6.2 13.8-13.8s-6.2-13.8-13.8-13.8z"/><path id="center-tassle" d="M141.4 493.4c-3.6 0-6.5-2.9-6.5-6.5v-71.4c0-3.6 2.9-6.5 6.5-6.5s6.5 2.9 6.5 6.5v71.4c0 3.6-2.9 6.5-6.5 6.5z"/><path id="left-tassle" d="M117.8 474.3c-.3 0-.7 0-1-.1-3.5-.6-6-3.9-5.4-7.4l9.2-58.6c.6-3.5 3.9-6 7.4-5.4 3.5.6 6 3.9 5.4 7.4l-9.2 58.6c-.5 3.2-3.2 5.5-6.4 5.5z"/><path id="right-tassle" d="M166.3 474.3c-3.1 0-5.9-2.3-6.4-5.5l-9.2-58.6c-.6-3.5 1.9-6.9 5.4-7.4 3.5-.6 6.9 1.9 7.4 5.4l9.2 58.6c.6 3.5-1.9 6.9-5.4 7.4-.3 0-.7.1-1 .1z"/></g></svg>