<svg id="Layer_1" xmlns="http://www.w3.org/2000/svg" viewBox="0 0 100 100"><style>.st0{fill:#C1CE20;}</style><path class="st0" d="M50.2 89.5L39.1 73.9c-.4-.6-.3-1.4.3-1.8.6-.4 1.4-.3 1.8.3l9 12.6 25.2-36c3-4.8 4.6-10.3 4.6-16C80 16.5 66.6 3 50 3 33.5 3 20 16.5 20 33c0 6.6 2.1 12.9 6.1 18.2L35.9 65c.4.6.3 1.4-.3 1.8-.6.4-1.4.3-1.8-.3L24 52.7C19.7 47 17.4 40.2 17.4 33 17.4 15 32 .4 50 .4S82.6 15 82.6 33c0 6.2-1.8 12.2-5.1 17.4L50.2 89.5z"/><path class="st0" d="M37.4 70.7h-.3c-.1 0-.2 0-.2-.1-.1 0-.2-.1-.2-.1-.1 0-.1-.1-.2-.2l-.2-.2c0-.1-.1-.1-.1-.2s-.1-.2-.1-.2v-.3-.3c0-.1 0-.2.1-.2 0-.1.1-.2.1-.2 0-.1.1-.1.2-.2l.2-.2c.1 0 .1-.1.2-.1s.2-.1.2-.1h.5c.1 0 .2 0 .2.1.1 0 .2.1.2.1.1 0 .1.1.2.2l.2.2c0 .1.1.1.1.2s.1.2.1.2v.6c0 .1 0 .2-.1.2 0 .1-.1.2-.1.2 0 .1-.1.1-.2.2l-.2.2c-.1 0-.1.1-.2.1s-.2.1-.2.1h-.2zM81.9 99.6h-.8c-.7 0-1.3-.6-1.3-1.3 0-.7.6-1.3 1.3-1.3h.8c.7 0 1.3.6 1.3 1.3 0 .7-.6 1.3-1.3 1.3zm-4.8 0h-3c-.7 0-1.3-.6-1.3-1.3 0-.7.6-1.3 1.3-1.3h3c.7 0 1.3.6 1.3 1.3 0 .7-.6 1.3-1.3 1.3zm-7 0h-3c-.7 0-1.3-.6-1.3-1.3 0-.7.6-1.3 1.3-1.3h3c.7 0 1.3.6 1.3 1.3 0 .7-.6 1.3-1.3 1.3zm-7 0h-3c-.7 0-1.3-.6-1.3-1.3 0-.7.6-1.3 1.3-1.3h3c.7 0 1.3.6 1.3 1.3 0 .7-.6 1.3-1.3 1.3zm-7 0h-3c-.7 0-1.3-.6-1.3-1.3 0-.7.6-1.3 1.3-1.3h3c.7 0 1.3.6 1.3 1.3 0 .7-.6 1.3-1.3 1.3zm-7 0h-3c-.7 0-1.3-.6-1.3-1.3 0-.7.6-1.3 1.3-1.3h3c.7 0 1.3.6 1.3 1.3 0 .7-.6 1.3-1.3 1.3zm-7 0h-3c-.7 0-1.3-.6-1.3-1.3 0-.7.6-1.3 1.3-1.3h3c.7 0 1.3.6 1.3 1.3 0 .7-.6 1.3-1.3 1.3zm-7 0h-3c-.7 0-1.3-.6-1.3-1.3 0-.7.6-1.3 1.3-1.3h3c.7 0 1.3.6 1.3 1.3 0 .7-.6 1.3-1.3 1.3zm-7 0h-3c-.7 0-1.3-.6-1.3-1.3 0-.7.6-1.3 1.3-1.3h3c.7 0 1.3.6 1.3 1.3 0 .7-.6 1.3-1.3 1.3zm-7 0h-3c-.7 0-1.3-.6-1.3-1.3 0-.7.6-1.3 1.3-1.3h3c.7 0 1.3.6 1.3 1.3 0 .7-.6 1.3-1.3 1.3zM50 50c-9.4 0-17-7.6-17-17s7.6-17 17-17c3.4 0 6.7 1 9.5 2.9.6.4.7 1.2.3 1.8-.4.6-1.2.7-1.8.3-2.4-1.6-5.1-2.5-8-2.5-7.9 0-14.4 6.5-14.4 14.4S42.1 47.4 50 47.4 64.4 40.9 64.4 33c0-1.6-.3-3.2-.8-4.7-.2-.7.1-1.4.8-1.7.7-.2 1.4.1 1.7.8.6 1.8.9 3.7.9 5.6 0 9.4-7.6 17-17 17z"/><path class="st0" d="M62.7 24.5c-.3 0-.7-.1-.9-.4-.2-.2-.4-.6-.4-.9v-.3c0-.1 0-.2.1-.2 0-.1.1-.2.1-.2 0-.1.1-.1.2-.2.2-.2.6-.4.9-.4.3 0 .7.1.9.4l.2.2c0 .1.1.1.1.2s.1.2.1.2v.3c0 .3-.1.7-.4.9-.3.3-.6.4-.9.4z"/></svg>